ParibartanSColr0.ttx.ufo
<glyph name="exclam" format="2">
  <advance width="252"/>
  <unicode hex="0021"/>
  <outline>
    <contour>
      <point x="50" y="3" type="line"/>
      <point x="50" y="145" type="line"/>
      <point x="202" y="145" type="line"/>
      <point x="202" y="3" type="line"/>
    </contour>
    <contour>
      <point x="50" y="263" type="line"/>
      <point x="50" y="777" type="line"/>
      <point x="202" y="777" type="line"/>
      <point x="202" y="263" type="line"/>
    </contour>
  </outline>
</glyph>
<glyph name="quotedbl" format="2">
  <advance width="452"/>
  <unicode hex="0022"/>
  <outline>
    <contour>
      <point x="50" y="537" type="line"/>
      <point x="50" y="794" type="line"/>
      <point x="202" y="794" type="line"/>
      <point x="202" y="537" type="line"/>
    </contour>
    <contour>
      <point x="250" y="537" type="line"/>
      <point x="250" y="794" type="line"/>
      <point x="402" y="794" type="line"/>
      <point x="402" y="537" type="line"/>
    </contour>
  </outline>
</glyph>
<glyph name="numbersign" format="2">
  <advance width="644"/>
  <unicode hex="0023"/>
  <outline>
    <contour>
      <point x="149" y="702" type="line"/>
      <point x="301" y="702" type="line"/>
      <point x="288" y="628" type="line"/>
      <point x="436" y="628" type="line"/>
      <point x="449" y="702" type="line"/>
      <point x="601" y="702" type="line"/>
      <point x="588" y="628" type="line"/>
      <point x="599" y="628" type="line"/>
      <point x="599" y="476" type="line"/>
      <point x="561" y="476" type="line"/>
      <point x="544" y="378" type="line"/>
      <point x="599" y="378" type="line"/>
      <point x="599" y="226" type="line"/>
      <point x="517" y="226" type="line"/>
      <point x="505" y="159" type="line"/>
      <point x="353" y="159" type="line"/>
      <point x="365" y="226" type="line"/>
      <point x="217" y="226" type="line"/>
      <point x="205" y="159" type="line"/>
      <point x="53" y="159" type="line"/>
      <point x="65" y="226" type="line"/>
      <point x="55" y="226" type="line"/>
      <point x="55" y="378" type="line"/>
      <point x="92" y="378" type="line"/>
      <point x="109" y="476" type="line"/>
      <point x="55" y="476" type="line"/>
      <point x="55" y="628" type="line"/>
      <point x="136" y="628" type="line"/>
    </contour>
    <contour>
      <point x="409" y="476" type="line"/>
      <point x="261" y="476" type="line"/>
      <point x="244" y="378" type="line"/>
      <point x="392" y="378" type="line"/>
    </contour>
  </outline>
</glyph>
<glyph name="dollar" format="2">
  <advance width="512"/>
  <unicode hex="0024"/>
  <outline>
    <contour>
      <point x="60" y="67" type="qcurve"/>
      <point x="135" y="192" type="line"/>
      <point x="143" y="186"/>
      <point x="157" y="177" type="qcurve"/>
      <point x="195" y="155"/>
      <point x="238" y="165" type="qcurve"/>
      <point x="246" y="167"/>
      <point x="253" y="170" type="qcurve"/>
      <point x="253" y="320" type="line"/>
      <point x="243" y="323"/>
      <point x="232" y="325" type="qcurve"/>
      <point x="183" y="352"/>
      <point x="111" y="418"/>
      <point x="69" y="500"/>
      <point x="75" y="598"/>
      <point x="106" y="649" type="qcurve"/>
      <point x="157" y="733"/>
      <point x="253" y="768" type="qcurve"/>
      <point x="253" y="1040" type="line"/>
      <point x="332" y="1040" type="line"/>
      <point x="332" y="784" type="line"/>
      <point x="403" y="787"/>
      <point x="458" y="737" type="qcurve"/>
      <point x="461" y="734"/>
      <point x="476" y="725"/>
      <point x="479" y="722" type="qcurve"/>
      <point x="404" y="597" type="line"/>
      <point x="392" y="607"/>
      <point x="382" y="612" type="qcurve"/>
      <point x="358" y="625"/>
      <point x="332" y="626" type="qcurve"/>
      <point x="332" y="411" type="line"/>
      <point x="361" y="393"/>
      <point x="383" y="376" type="qcurve"/>
      <point x="416" y="349"/>
      <point x="465" y="279"/>
      <point x="462" y="191"/>
      <point x="432" y="140" type="qcurve"/>
      <point x="397" y="81"/>
      <point x="332" y="42" type="qcurve"/>
      <point x="332" y="-172" type="line"/>
      <point x="253" y="-172" type="line"/>
      <point x="253" y="10" type="line"/>
      <point x="227" y="4"/>
      <point x="202" y="4" type="qcurve"/>
      <point x="135" y="3"/>
      <point x="81" y="52" type="qcurve"/>
      <point x="78" y="55"/>
      <point x="63" y="64"/>
    </contour>
    <contour>
      <point x="253" y="596" type="line"/>
      <point x="244" y="587"/>
      <point x="237" y="575" type="qcurve"/>
      <point x="212" y="534"/>
      <point x="232" y="485" type="qcurve"/>
      <point x="241" y="466"/>
      <point x="253" y="453" type="qcurve"/>
    </contour>
  </outline>
</glyph>
<glyph name="percent" format="2">
  <advance width="691"/>
  <unicode hex="0025"/>
  <outline>
    <contour>
      <point x="535" y="823" type="line"/>
      <point x="641" y="762" type="line"/>
      <point x="156" y="-78" type="line"/>
      <point x="50" y="-17" type="line"/>
    </contour>
    <contour>
      <point x="506" y="269"/>
      <point x="498" y="267" type="qcurve"/>
      <point x="498" y="268" type="line" smooth="yes"/>
      <point x="498" y="268" type="line"/>
      <point x="479" y="264"/>
      <point x="456" y="235"/>
      <point x="456" y="215" type="qcurve"/>
      <point x="456" y="196"/>
      <point x="479" y="167"/>
      <point x="498" y="163" type="qcurve"/>
      <point x="498" y="164" type="line"/>
      <point x="506" y="162"/>
      <point x="514" y="162"/>
      <point x="522" y="164" type="qcurve"/>
      <point x="522" y="163" type="line"/>
      <point x="541" y="167"/>
      <point x="564" y="196"/>
      <point x="564" y="215" type="qcurve"/>
      <point x="564" y="235"/>
      <point x="541" y="264"/>
      <point x="522" y="268" type="qcurve"/>
      <point x="522" y="267" type="line"/>
      <point x="514" y="269"/>
    </contour>
    <contour>
      <point x="509" y="87" type="line"/>
      <point x="507" y="87" type="line"/>
      <point x="500" y="87" type="line"/>
      <point x="449" y="91"/>
      <point x="380" y="164"/>
      <point x="380" y="266"/>
      <point x="450" y="340"/>
      <point x="500" y="344" type="qcurve"/>
      <point x="507" y="344" type="line"/>
      <point x="509" y="344" type="line"/>
      <point x="511" y="344" type="line"/>
      <point x="565" y="344"/>
      <point x="640" y="269"/>
      <point x="640" y="215" type="qcurve"/>
      <point x="640" y="162"/>
      <point x="565" y="87"/>
      <point x="511" y="87" type="qcurve"/>
    </contour>
    <contour>
      <point x="201" y="670"/>
      <point x="193" y="668" type="qcurve"/>
      <point x="193" y="669" type="line" smooth="yes"/>
      <point x="193" y="669" type="line"/>
      <point x="174" y="665"/>
      <point x="151" y="636"/>
      <point x="151" y="616" type="qcurve"/>
      <point x="151" y="597"/>
      <point x="174" y="568"/>
      <point x="193" y="564" type="qcurve"/>
      <point x="193" y="565" type="line"/>
      <point x="201" y="563"/>
      <point x="209" y="563"/>
      <point x="217" y="565" type="qcurve"/>
      <point x="217" y="564" type="line"/>
      <point x="236" y="568"/>
      <point x="259" y="597"/>
      <point x="259" y="616" type="qcurve"/>
      <point x="259" y="636"/>
      <point x="236" y="665"/>
      <point x="217" y="669" type="qcurve"/>
      <point x="217" y="668" type="line"/>
      <point x="209" y="670"/>
    </contour>
    <contour>
      <point x="204" y="488" type="line"/>
      <point x="202" y="488" type="line"/>
      <point x="195" y="488" type="line"/>
      <point x="144" y="492"/>
      <point x="75" y="565"/>
      <point x="75" y="667"/>
      <point x="145" y="741"/>
      <point x="195" y="745" type="qcurve"/>
      <point x="202" y="745" type="line"/>
      <point x="204" y="745" type="line"/>
      <point x="206" y="745" type="line"/>
      <point x="260" y="745"/>
      <point x="335" y="670"/>
      <point x="335" y="616" type="qcurve"/>
      <point x="335" y="563"/>
      <point x="260" y="488"/>
      <point x="206" y="488" type="qcurve"/>
    </contour>
  </outline>
</glyph>
<glyph name="ampersand" format="2">
  <advance width="650"/>
  <unicode hex="0026"/>
  <outline>
    <contour>
      <point x="322.667" y="163" type="qcurve"/>
      <point x="209.667" y="277" type="line"/>
      <point x="208.667" y="271"/>
      <point x="208.667" y="265" type="qcurve"/>
      <point x="208.667" y="221"/>
      <point x="270.667" y="159"/>
      <point x="315.667" y="159" type="qcurve"/>
      <point x="316.667" y="159"/>
    </contour>
    <contour>
      <point x="389.667" y="815" type="qcurve"/>
      <point x="386.667" y="696" type="line"/>
      <point x="368.667" y="695"/>
      <point x="239.667" y="625"/>
      <point x="224.667" y="610" type="qcurve"/>
      <point x="190.667" y="576"/>
      <point x="193.667" y="526" type="qcurve"/>
      <point x="216.667" y="503" type="line"/>
      <point x="263.667" y="523"/>
      <point x="315.667" y="523" type="qcurve"/>
      <point x="328.667" y="523"/>
      <point x="341.667" y="522" type="qcurve"/>
      <point x="341.667" y="378" type="line"/>
      <point x="452.667" y="267" type="line"/>
      <point x="565.667" y="359"/>
      <point x="569.667" y="360" type="qcurve"/>
      <point x="569.667" y="207" type="line"/>
      <point x="566.667" y="207"/>
      <point x="536.667" y="183" type="qcurve"/>
      <point x="600.667" y="119" type="line"/>
      <point x="482.667" y="1" type="line"/>
      <point x="406.667" y="78" type="line"/>
      <point x="319.667" y="8"/>
      <point x="315.667" y="8" type="qcurve"/>
      <point x="208.667" y="8"/>
      <point x="57.667" y="158"/>
      <point x="57.667" y="265" type="qcurve"/>
      <point x="57.667" y="335"/>
      <point x="92.667" y="395" type="qcurve"/>
      <point x="76.667" y="411" type="line"/>
      <point x="56.667" y="447"/>
      <point x="46.667" y="523"/>
      <point x="66.667" y="604"/>
      <point x="93.667" y="672"/>
      <point x="117.667" y="717" type="qcurve"/>
      <point x="130.667" y="741"/>
      <point x="251.667" y="797"/>
      <point x="373.667" y="825"/>
    </contour>
  </outline>
</glyph>
<glyph name="quotesingle" format="2">
  <advance width="252"/>
  <unicode hex="0027"/>
  <outline>
    <contour>
      <point x="50" y="542" type="line"/>
      <point x="50" y="799" type="line"/>
      <point x="202" y="799" type="line"/>
      <point x="202" y="542" type="line"/>
    </contour>
  </outline>
</glyph>
<glyph name="parenleft" format="2">
  <advance width="555"/>
  <unicode hex="0028"/>
  <outline>
    <contour>
      <point x="432" y="754" type="line"/>
      <point x="332" y="754"/>
      <point x="154" y="533"/>
      <point x="154" y="388" type="qcurve"/>
      <point x="154" y="242"/>
      <point x="332" y="21"/>
      <point x="432" y="21" type="qcurve"/>
      <point x="505" y="3" type="line"/>
      <point x="471" y="-4"/>
      <point x="432" y="-4" type="qcurve"/>
      <point x="274" y="-4"/>
      <point x="50" y="227"/>
      <point x="50" y="553"/>
      <point x="274" y="783"/>
      <point x="432" y="783" type="qcurve"/>
      <point x="471" y="783"/>
      <point x="505" y="776" type="qcurve"/>
    </contour>
  </outline>
</glyph>
<glyph name="parenright" format="2">
  <advance width="555"/>
  <unicode hex="0029"/>
  <outline>
    <contour>
      <point x="123" y="749" type="qcurve"/>
      <point x="50" y="771" type="line"/>
      <point x="84" y="778"/>
      <point x="123" y="778" type="qcurve"/>
      <point x="281" y="778"/>
      <point x="505" y="548"/>
      <point x="505" y="222"/>
      <point x="281" y="-9"/>
      <point x="123" y="-9" type="qcurve"/>
      <point x="84" y="-9"/>
      <point x="50" y="-2" type="qcurve"/>
      <point x="123" y="16" type="line"/>
      <point x="223" y="16"/>
      <point x="401" y="237"/>
      <point x="401" y="383" type="qcurve"/>
      <point x="401" y="528"/>
      <point x="223" y="749"/>
    </contour>
  </outline>
</glyph>
<glyph name="asterisk" format="2">
  <advance width="644"/>
  <unicode hex="002A"/>
  <outline>
    <contour>
      <point x="594" y="501" type="line"/>
      <point x="594" y="349" type="line"/>
      <point x="505" y="349" type="line"/>
      <point x="568" y="286" type="line"/>
      <point x="461" y="179" type="line"/>
      <point x="398" y="242" type="line"/>
      <point x="398" y="154" type="line"/>
      <point x="246" y="154" type="line"/>
      <point x="246" y="242" type="line"/>
      <point x="183" y="179" type="line"/>
      <point x="76" y="286" type="line"/>
      <point x="139" y="349" type="line"/>
      <point x="50" y="349" type="line"/>
      <point x="50" y="501" type="line"/>
      <point x="139" y="501" type="line"/>
      <point x="76" y="564" type="line"/>
      <point x="183" y="671" type="line"/>
      <point x="246" y="608" type="line"/>
      <point x="246" y="697" type="line"/>
      <point x="398" y="697" type="line"/>
      <point x="398" y="608" type="line"/>
      <point x="461" y="671" type="line"/>
      <point x="568" y="564" type="line"/>
      <point x="505" y="501" type="line"/>
    </contour>
  </outline>
</glyph>
<glyph name="plus" format="2">
  <advance width="644"/>
  <unicode hex="002B"/>
  <outline>
    <contour>
      <point x="246" y="697" type="line"/>
      <point x="398" y="697" type="line"/>
      <point x="398" y="501" type="line"/>
      <point x="594" y="501" type="line"/>
      <point x="594" y="349" type="line"/>
      <point x="398" y="349" type="line"/>
      <point x="398" y="154" type="line"/>
      <point x="246" y="154" type="line"/>
      <point x="246" y="349" type="line"/>
      <point x="50" y="349" type="line"/>
      <point x="50" y="501" type="line"/>
      <point x="246" y="501" type="line"/>
    </contour>
  </outline>
</glyph>
<glyph name="comma" format="2">
  <advance width="252"/>
  <unicode hex="002C"/>
  <outline>
    <contour>
      <point x="50" y="8" type="line"/>
      <point x="50" y="150" type="line"/>
      <point x="202" y="150" type="line"/>
      <point x="202" y="8" type="line"/>
      <point x="142" y="-124" type="line"/>
      <point x="84" y="-120" type="line"/>
      <point x="93" y="8" type="line"/>
    </contour>
  </outline>
</glyph>
<glyph name="hyphen" format="2">
  <advance width="644"/>
  <unicode hex="002D"/>
  <outline>
    <contour>
      <point x="594" y="506" type="line"/>
      <point x="594" y="354" type="line"/>
      <point x="50" y="354" type="line"/>
      <point x="50" y="506" type="line"/>
    </contour>
  </outline>
</glyph>
<glyph name="slash" format="2">
  <advance width="691"/>
  <unicode hex="002F"/>
  <outline>
    <contour>
      <point x="535" y="823" type="line"/>
      <point x="641" y="762" type="line"/>
      <point x="156" y="-78" type="line"/>
      <point x="50" y="-17" type="line"/>
    </contour>
  </outline>
</glyph>
<glyph name="zero" format="2">
  <advance width="864"/>
  <unicode hex="0030"/>
  <outline>
    <contour>
      <point x="738" y="390" type="qcurve"/>
      <point x="738" y="283"/>
      <point x="656" y="101"/>
      <point x="516" y="-4"/>
      <point x="349" y="-4"/>
      <point x="208" y="101"/>
      <point x="126" y="283"/>
      <point x="126" y="390" type="qcurve"/>
      <point x="126" y="497"/>
      <point x="208" y="678"/>
      <point x="349" y="783"/>
      <point x="516" y="783"/>
      <point x="656" y="678"/>
      <point x="738" y="497"/>
    </contour>
    <contour>
      <point x="616" y="388" type="qcurve"/>
      <point x="616" y="485"/>
      <point x="509" y="622"/>
      <point x="356" y="622"/>
      <point x="248" y="485"/>
      <point x="248" y="388" type="qcurve"/>
      <point x="248" y="290"/>
      <point x="356" y="153"/>
      <point x="509" y="153"/>
      <point x="616" y="290"/>
    </contour>
  </outline>
</glyph>
<glyph name="one" format="2">
  <advance width="436"/>
  <unicode hex="0031"/>
  <outline>
    <contour>
      <point x="158" y="497" type="line"/>
      <point x="50" y="604" type="line"/>
      <point x="232" y="786" type="line"/>
      <point x="340" y="679" type="line"/>
    </contour>
    <contour>
      <point x="234" y="784" type="line"/>
      <point x="386" y="784" type="line"/>
      <point x="386" y="8" type="line"/>
      <point x="234" y="8" type="line"/>
    </contour>
  </outline>
</glyph>
<glyph name="two" format="2">
  <advance width="555"/>
  <unicode hex="0032"/>
  <outline>
    <contour>
      <point x="130" y="596" type="qcurve"/>
      <point x="225" y="596"/>
      <point x="359" y="486"/>
      <point x="359" y="409" type="qcurve"/>
      <point x="359" y="332"/>
      <point x="227" y="236"/>
      <point x="130" y="236" type="qcurve"/>
      <point x="92" y="236"/>
      <point x="57" y="246" type="qcurve"/>
      <point x="54" y="10" type="line"/>
      <point x="557" y="15" type="line"/>
      <point x="557" y="136" type="line"/>
      <point x="282" y="134" type="line"/>
      <point x="386" y="168"/>
      <point x="512" y="315"/>
      <point x="512" y="410" type="qcurve"/>
      <point x="512" y="496"/>
      <point x="410" y="641"/>
      <point x="234" y="725"/>
      <point x="130" y="725" type="qcurve"/>
      <point x="93" y="725"/>
      <point x="57" y="719" type="qcurve"/>
      <point x="57" y="586" type="line"/>
      <point x="92" y="596"/>
    </contour>
  </outline>
</glyph>
<glyph name="three" format="2">
  <advance width="435"/>
  <unicode hex="0033"/>
  <outline>
    <contour>
      <point x="50" y="0" type="qcurve"/>
      <point x="50" y="124" type="line"/>
      <point x="63" y="121"/>
      <point x="76" y="121" type="qcurve"/>
      <point x="142" y="121"/>
      <point x="234" y="171"/>
      <point x="234" y="207" type="qcurve"/>
      <point x="234" y="241"/>
      <point x="180" y="289"/>
      <point x="140" y="293" type="qcurve"/>
      <point x="133" y="293"/>
      <point x="121" y="293"/>
      <point x="115" y="293" type="qcurve"/>
      <point x="108" y="293"/>
      <point x="101" y="291" type="qcurve"/>
      <point x="101" y="294" type="line"/>
      <point x="101" y="415" type="line"/>
      <point x="101" y="418" type="line"/>
      <point x="108" y="416"/>
      <point x="115" y="416" type="qcurve"/>
      <point x="121" y="416"/>
      <point x="133" y="416"/>
      <point x="140" y="416" type="qcurve"/>
      <point x="180" y="419"/>
      <point x="234" y="468"/>
      <point x="234" y="501" type="qcurve"/>
      <point x="234" y="538"/>
      <point x="146" y="588"/>
      <point x="82" y="588" type="qcurve"/>
      <point x="69" y="588"/>
      <point x="56" y="585" type="qcurve"/>
      <point x="56" y="709" type="line"/>
      <point x="69" y="710"/>
      <point x="82" y="710" type="qcurve"/>
      <point x="208" y="710"/>
      <point x="385" y="588"/>
      <point x="385" y="501" type="qcurve"/>
      <point x="385" y="415"/>
      <point x="310" y="354" type="qcurve"/>
      <point x="385" y="293"/>
      <point x="385" y="121"/>
      <point x="204" y="-1"/>
      <point x="76" y="-1" type="qcurve"/>
      <point x="63" y="-1"/>
    </contour>
  </outline>
</glyph>
<glyph name="four" format="2">
  <advance width="565"/>
  <unicode hex="0034"/>
  <outline>
    <contour>
      <point x="378" y="346" type="line"/>
      <point x="378" y="526" type="line"/>
      <point x="280" y="349" type="line"/>
    </contour>
    <contour>
      <point x="386" y="5" type="line"/>
      <point x="386" y="197" type="line"/>
      <point x="385" y="196" type="line"/>
      <point x="50" y="196" type="line"/>
      <point x="372" y="779" type="line"/>
      <point x="515" y="779" type="line"/>
      <point x="515" y="5" type="line"/>
    </contour>
  </outline>
</glyph>
<glyph name="five" format="2">
  <advance width="418"/>
  <unicode hex="0035"/>
  <outline>
    <contour>
      <point x="50" y="9" type="qcurve"/>
      <point x="50" y="162" type="line"/>
      <point x="62" y="159"/>
      <point x="76" y="159" type="qcurve"/>
      <point x="121" y="159"/>
      <point x="183" y="221"/>
      <point x="183" y="265" type="qcurve"/>
      <point x="183" y="310"/>
      <point x="121" y="372"/>
      <point x="76" y="372" type="qcurve"/>
      <point x="62" y="372"/>
      <point x="50" y="369" type="qcurve"/>
      <point x="50" y="402" type="line"/>
      <point x="50" y="522" type="line"/>
      <point x="50" y="778" type="line"/>
      <point x="51" y="778" type="line"/>
      <point x="51" y="779" type="line"/>
      <point x="368" y="779" type="line"/>
      <point x="367" y="627" type="line"/>
      <point x="202" y="627" type="line"/>
      <point x="202" y="490" type="line"/>
      <point x="262" y="456"/>
      <point x="334" y="337"/>
      <point x="334" y="265" type="qcurve"/>
      <point x="334" y="158"/>
      <point x="183" y="8"/>
      <point x="76" y="8" type="qcurve"/>
      <point x="59" y="8"/>
    </contour>
  </outline>
</glyph>
<glyph name="six" format="2">
  <advance width="709"/>
  <unicode hex="0036"/>
  <outline>
    <contour>
      <point x="383" y="372" type="qcurve"/>
      <point x="372" y="372"/>
      <point x="359" y="369" type="qcurve"/>
      <point x="359" y="370" type="line"/>
      <point x="322" y="362"/>
      <point x="274" y="304"/>
      <point x="274" y="265" type="qcurve"/>
      <point x="274" y="211"/>
      <point x="318" y="179" type="qcurve"/>
      <point x="333" y="170"/>
      <point x="350" y="163" type="qcurve"/>
      <point x="355" y="162"/>
      <point x="359" y="161" type="qcurve"/>
      <point x="359" y="162" type="line"/>
      <point x="370" y="159"/>
      <point x="383" y="159" type="qcurve"/>
      <point x="395" y="159"/>
      <point x="407" y="162" type="qcurve"/>
      <point x="407" y="161" type="line"/>
      <point x="444" y="169"/>
      <point x="492" y="227"/>
      <point x="492" y="265" type="qcurve"/>
      <point x="492" y="304"/>
      <point x="444" y="362"/>
      <point x="407" y="370" type="qcurve"/>
      <point x="407" y="369" type="line"/>
      <point x="395" y="372"/>
    </contour>
    <contour>
      <point x="432" y="617" type="qcurve"/>
      <point x="347" y="617"/>
      <point x="219" y="505"/>
      <point x="206" y="421" type="qcurve"/>
      <point x="276" y="497"/>
      <point x="379" y="504" type="qcurve"/>
      <point x="387" y="505"/>
      <point x="393" y="505" type="qcurve"/>
      <point x="396" y="505"/>
      <point x="397" y="505" type="qcurve"/>
      <point x="398" y="505" type="line"/>
      <point x="399" y="505"/>
      <point x="401" y="505" type="qcurve"/>
      <point x="492" y="505"/>
      <point x="633" y="392"/>
      <point x="653" y="305" type="qcurve"/>
      <point x="659" y="277"/>
      <point x="659" y="247" type="qcurve"/>
      <point x="659" y="207"/>
      <point x="647" y="169" type="qcurve"/>
      <point x="617" y="75"/>
      <point x="531" y="25" type="qcurve"/>
      <point x="482" y="-9"/>
      <point x="432" y="-9" type="qcurve"/>
      <point x="428" y="-9"/>
      <point x="425" y="-9" type="qcurve"/>
      <point x="413" y="-10"/>
      <point x="401" y="-10" type="qcurve"/>
      <point x="400" y="-10"/>
      <point x="399" y="-10" type="qcurve" smooth="yes"/>
      <point x="398" y="-10" type="line"/>
      <point x="397" y="-10" type="line"/>
      <point x="395" y="-10"/>
      <point x="393" y="-10" type="qcurve"/>
      <point x="385" y="-10"/>
      <point x="379" y="-9" type="qcurve"/>
      <point x="299" y="-3"/>
      <point x="237" y="46" type="qcurve"/>
      <point x="152" y="98"/>
      <point x="50" y="278"/>
      <point x="50" y="385" type="qcurve"/>
      <point x="50" y="548"/>
      <point x="274" y="778"/>
      <point x="432" y="778" type="qcurve"/>
      <point x="515" y="778"/>
      <point x="551" y="771" type="qcurve"/>
      <point x="551" y="605" type="line"/>
      <point x="536" y="610"/>
      <point x="456" y="617"/>
    </contour>
  </outline>
</glyph>
<glyph name="seven" format="2">
  <advance width="610"/>
  <unicode hex="0037"/>
  <outline>
    <contour>
      <point x="213" y="5" type="line"/>
      <point x="51" y="5" type="line"/>
      <point x="389" y="615" type="line"/>
      <point x="50" y="615" type="line"/>
      <point x="50" y="767" type="line"/>
      <point x="560" y="767" type="line"/>
      <point x="560" y="615" type="line"/>
    </contour>
  </outline>
</glyph>
<glyph name="eight" format="2">
  <advance width="558"/>
  <unicode hex="0038"/>
  <outline>
    <contour>
      <point x="278" y="8" type="line"/>
      <point x="277" y="8" type="line"/>
      <point x="276" y="8"/>
      <point x="274" y="8" type="qcurve"/>
      <point x="267" y="8"/>
      <point x="262" y="9" type="qcurve"/>
      <point x="172" y="15"/>
      <point x="50" y="145"/>
      <point x="50" y="234" type="qcurve"/>
      <point x="50" y="309"/>
      <point x="94" y="369" type="qcurve"/>
      <point x="50" y="428"/>
      <point x="50" y="503" type="qcurve"/>
      <point x="50" y="593"/>
      <point x="172" y="723"/>
      <point x="262" y="729" type="qcurve"/>
      <point x="267" y="730"/>
      <point x="274" y="730" type="qcurve"/>
      <point x="276" y="730"/>
      <point x="277" y="730" type="qcurve"/>
      <point x="278" y="730" type="line"/>
      <point x="279" y="730"/>
      <point x="281" y="730" type="qcurve"/>
      <point x="375" y="730"/>
      <point x="508" y="597"/>
      <point x="508" y="503" type="qcurve"/>
      <point x="508" y="428"/>
      <point x="464" y="369" type="qcurve"/>
      <point x="508" y="309"/>
      <point x="508" y="234" type="qcurve"/>
      <point x="508" y="141"/>
      <point x="375" y="8"/>
      <point x="281" y="8" type="qcurve"/>
      <point x="280" y="8"/>
      <point x="279" y="8" type="qcurve" smooth="yes"/>
    </contour>
    <contour>
      <point x="279" y="597" type="qcurve"/>
      <point x="268" y="597"/>
      <point x="258" y="594" type="qcurve"/>
      <point x="258" y="595" type="line"/>
      <point x="225" y="588"/>
      <point x="183" y="537"/>
      <point x="183" y="503" type="qcurve"/>
      <point x="183" y="469"/>
      <point x="225" y="418"/>
      <point x="258" y="411" type="qcurve"/>
      <point x="258" y="412" type="line"/>
      <point x="268" y="410"/>
      <point x="279" y="409" type="qcurve"/>
      <point x="290" y="410"/>
      <point x="300" y="412" type="qcurve"/>
      <point x="300" y="411" type="line"/>
      <point x="333" y="418"/>
      <point x="375" y="469"/>
      <point x="375" y="503" type="qcurve"/>
      <point x="375" y="537"/>
      <point x="333" y="588"/>
      <point x="300" y="595" type="qcurve"/>
      <point x="300" y="594" type="line"/>
      <point x="290" y="597"/>
    </contour>
    <contour>
      <point x="279" y="329" type="qcurve"/>
      <point x="268" y="328"/>
      <point x="258" y="326" type="qcurve"/>
      <point x="258" y="327" type="line"/>
      <point x="225" y="320"/>
      <point x="183" y="269"/>
      <point x="183" y="234" type="qcurve"/>
      <point x="183" y="201"/>
      <point x="225" y="150"/>
      <point x="258" y="143" type="qcurve"/>
      <point x="258" y="144" type="line"/>
      <point x="268" y="141"/>
      <point x="279" y="141" type="qcurve"/>
      <point x="290" y="141"/>
      <point x="300" y="144" type="qcurve"/>
      <point x="300" y="143" type="line"/>
      <point x="333" y="150"/>
      <point x="375" y="201"/>
      <point x="375" y="234" type="qcurve"/>
      <point x="375" y="269"/>
      <point x="333" y="320"/>
      <point x="300" y="327" type="qcurve"/>
      <point x="300" y="326" type="line"/>
      <point x="290" y="328"/>
    </contour>
  </outline>
</glyph>
<glyph name="nine" format="2">
  <advance width="709"/>
  <unicode hex="0039"/>
  <outline>
    <contour>
      <point x="326" y="396" type="qcurve"/>
      <point x="337" y="396"/>
      <point x="350" y="399" type="qcurve"/>
      <point x="350" y="398" type="line"/>
      <point x="387" y="406"/>
      <point x="435" y="464"/>
      <point x="435" y="503" type="qcurve"/>
      <point x="435" y="557"/>
      <point x="391" y="589" type="qcurve"/>
      <point x="376" y="598"/>
      <point x="359" y="605" type="qcurve"/>
      <point x="354" y="606"/>
      <point x="350" y="607" type="qcurve"/>
      <point x="350" y="606" type="line"/>
      <point x="339" y="609"/>
      <point x="326" y="609" type="qcurve"/>
      <point x="314" y="609"/>
      <point x="302" y="606" type="qcurve"/>
      <point x="302" y="607" type="line"/>
      <point x="265" y="599"/>
      <point x="217" y="541"/>
      <point x="217" y="503" type="qcurve"/>
      <point x="217" y="464"/>
      <point x="265" y="406"/>
      <point x="302" y="398" type="qcurve"/>
      <point x="302" y="399" type="line"/>
      <point x="314" y="396"/>
    </contour>
    <contour>
      <point x="277" y="151" type="qcurve"/>
      <point x="362" y="151"/>
      <point x="490" y="263"/>
      <point x="503" y="347" type="qcurve"/>
      <point x="433" y="271"/>
      <point x="330" y="264" type="qcurve"/>
      <point x="322" y="263"/>
      <point x="316" y="263" type="qcurve"/>
      <point x="313" y="263"/>
      <point x="312" y="263" type="qcurve"/>
      <point x="311" y="263" type="line"/>
      <point x="310" y="263"/>
      <point x="308" y="263" type="qcurve"/>
      <point x="217" y="263"/>
      <point x="76" y="376"/>
      <point x="56" y="463" type="qcurve"/>
      <point x="50" y="491"/>
      <point x="50" y="521" type="qcurve"/>
      <point x="50" y="561"/>
      <point x="62" y="599" type="qcurve"/>
      <point x="92" y="693"/>
      <point x="178" y="743" type="qcurve"/>
      <point x="227" y="777"/>
      <point x="277" y="777" type="qcurve"/>
      <point x="281" y="777"/>
      <point x="284" y="777" type="qcurve"/>
      <point x="296" y="778"/>
      <point x="308" y="778" type="qcurve"/>
      <point x="309" y="778"/>
      <point x="310" y="778" type="qcurve" smooth="yes"/>
      <point x="311" y="778" type="line"/>
      <point x="312" y="778" type="line"/>
      <point x="314" y="778"/>
      <point x="316" y="778" type="qcurve"/>
      <point x="324" y="778"/>
      <point x="330" y="777" type="qcurve"/>
      <point x="410" y="771"/>
      <point x="472" y="722" type="qcurve"/>
      <point x="557" y="670"/>
      <point x="659" y="490"/>
      <point x="659" y="383" type="qcurve"/>
      <point x="659" y="220"/>
      <point x="435" y="-10"/>
      <point x="277" y="-10" type="qcurve"/>
      <point x="194" y="-10"/>
      <point x="158" y="-3" type="qcurve"/>
      <point x="158" y="163" type="line"/>
      <point x="173" y="158"/>
      <point x="253" y="151"/>
    </contour>
  </outline>
</glyph>
<glyph name="colon" format="2">
  <advance width="252"/>
  <unicode hex="003A"/>
  <outline>
    <contour>
      <point x="50" y="3" type="line"/>
      <point x="50" y="145" type="line"/>
      <point x="202" y="145" type="line"/>
      <point x="202" y="3" type="line"/>
    </contour>
    <contour>
      <point x="50" y="403" type="line"/>
      <point x="50" y="545" type="line"/>
      <point x="202" y="545" type="line"/>
      <point x="202" y="403" type="line"/>
    </contour>
  </outline>
</glyph>
<glyph name="semicolon" format="2">
  <advance width="252"/>
  <unicode hex="003B"/>
  <outline>
    <contour>
      <point x="50" y="403" type="line"/>
      <point x="50" y="545" type="line"/>
      <point x="202" y="545" type="line"/>
      <point x="202" y="403" type="line"/>
    </contour>
    <contour>
      <point x="50" y="3" type="line"/>
      <point x="50" y="145" type="line"/>
      <point x="202" y="145" type="line"/>
      <point x="202" y="3" type="line"/>
      <point x="142" y="-129" type="line"/>
      <point x="84" y="-125" type="line"/>
      <point x="93" y="3" type="line"/>
    </contour>
  </outline>
</glyph>
<glyph name="less" format="2">
  <advance width="644"/>
  <unicode hex="003C"/>
  <outline>
    <contour>
      <point x="594" y="551" type="line"/>
      <point x="594" y="399" type="line"/>
      <point x="380" y="343" type="line"/>
      <point x="594" y="301" type="line"/>
      <point x="594" y="149" type="line"/>
      <point x="50" y="255" type="line"/>
      <point x="50" y="256" type="line"/>
      <point x="50" y="407" type="line"/>
      <point x="50" y="408" type="line"/>
    </contour>
  </outline>
</glyph>
<glyph name="equal" format="2">
  <advance width="644"/>
  <unicode hex="003D"/>
  <outline>
    <contour>
      <point x="594" y="551" type="line"/>
      <point x="594" y="399" type="line"/>
      <point x="50" y="399" type="line"/>
      <point x="50" y="551" type="line"/>
    </contour>
    <contour>
      <point x="594" y="301" type="line"/>
      <point x="594" y="149" type="line"/>
      <point x="50" y="149" type="line"/>
      <point x="50" y="301" type="line"/>
    </contour>
  </outline>
</glyph>
<glyph name="greater" format="2">
  <advance width="644"/>
  <unicode hex="003E"/>
  <outline>
    <contour>
      <point x="50" y="556" type="line"/>
      <point x="594" y="413" type="line"/>
      <point x="594" y="412" type="line"/>
      <point x="594" y="261" type="line"/>
      <point x="594" y="260" type="line"/>
      <point x="50" y="154" type="line"/>
      <point x="50" y="306" type="line"/>
      <point x="264" y="348" type="line"/>
      <point x="50" y="404" type="line"/>
    </contour>
  </outline>
</glyph>
<glyph name="question" format="2">
  <advance width="384"/>
  <unicode hex="003F"/>
  <outline>
    <contour>
      <point x="50" y="833" type="line"/>
      <point x="59" y="834"/>
      <point x="76" y="834" type="qcurve"/>
      <point x="183" y="834"/>
      <point x="334" y="684"/>
      <point x="334" y="577" type="qcurve"/>
      <point x="334" y="505"/>
      <point x="262" y="385"/>
      <point x="202" y="352" type="qcurve"/>
      <point x="202" y="235" type="line"/>
      <point x="50" y="235" type="line"/>
      <point x="50" y="320" type="line"/>
      <point x="50" y="445" type="line"/>
      <point x="50" y="473" type="line"/>
      <point x="62" y="470"/>
      <point x="76" y="470" type="qcurve"/>
      <point x="121" y="470"/>
      <point x="183" y="532"/>
      <point x="183" y="577" type="qcurve"/>
      <point x="183" y="621"/>
      <point x="121" y="683"/>
      <point x="76" y="683" type="qcurve"/>
      <point x="62" y="683"/>
      <point x="50" y="680" type="qcurve"/>
    </contour>
    <contour>
      <point x="50" y="3" type="line"/>
      <point x="50" y="145" type="line"/>
      <point x="202" y="145" type="line"/>
      <point x="202" y="3" type="line"/>
    </contour>
  </outline>
</glyph>
<glyph name="at" format="2">
  <advance width="876"/>
  <unicode hex="0040"/>
  <outline>
    <contour>
      <point x="567.555" y="241" type="line"/>
    </contour>
    <contour>
      <point x="530.555" y="171" type="line"/>
    </contour>
    <contour>
      <point x="493.555" y="233" type="qcurve"/>
      <point x="479.555" y="244" type="line"/>
      <point x="425.555" y="244"/>
      <point x="349.555" y="319"/>
      <point x="349.555" y="373" type="qcurve"/>
      <point x="349.555" y="426"/>
      <point x="425.555" y="497"/>
      <point x="479.555" y="497" type="qcurve"/>
      <point x="491.555" y="497" type="line"/>
      <point x="567.555" y="497" type="line"/>
      <point x="574.555" y="323" type="line"/>
      <point x="576.555" y="311"/>
      <point x="603.555" y="283"/>
      <point x="636.555" y="268"/>
      <point x="665.555" y="294"/>
      <point x="668.555" y="331" type="qcurve"/>
      <point x="668.555" y="332"/>
      <point x="664.555" y="346"/>
      <point x="664.555" y="347" type="qcurve"/>
      <point x="673.555" y="401"/>
      <point x="641.555" y="506"/>
      <point x="601.555" y="546" type="qcurve"/>
      <point x="533.555" y="613"/>
      <point x="342.555" y="610"/>
      <point x="274.555" y="542" type="qcurve"/>
      <point x="205.555" y="473"/>
      <point x="203.555" y="282"/>
      <point x="270.555" y="214" type="qcurve"/>
      <point x="322.555" y="162"/>
      <point x="466.555" y="140"/>
      <point x="530.555" y="171" type="qcurve"/>
      <point x="541.555" y="176"/>
      <point x="597.555" y="120"/>
      <point x="620.555" y="89" type="qcurve"/>
      <point x="643.555" y="59" type="line"/>
      <point x="530.555" y="-17"/>
      <point x="256.555" y="6"/>
      <point x="159.555" y="103" type="qcurve"/>
      <point x="47.5547" y="215"/>
      <point x="52.5547" y="537"/>
      <point x="282.555" y="767"/>
      <point x="603.555" y="772"/>
      <point x="715.555" y="660" type="qcurve"/>
      <point x="799.555" y="576"/>
      <point x="841.555" y="330"/>
      <point x="793.555" y="225" type="qcurve"/>
      <point x="771.555" y="212"/>
      <point x="727.555" y="196"/>
      <point x="678.555" y="193"/>
      <point x="644.555" y="192"/>
      <point x="590.555" y="205"/>
      <point x="565.555" y="211"/>
      <point x="502.555" y="230"/>
    </contour>
    <contour>
      <point x="491.555" y="425" type="line"/>
      <point x="487.555" y="426"/>
      <point x="479.555" y="426" type="qcurve"/>
      <point x="456.555" y="426"/>
      <point x="425.555" y="395"/>
      <point x="425.555" y="351"/>
      <point x="456.555" y="319"/>
      <point x="479.555" y="319" type="qcurve"/>
      <point x="483.555" y="319"/>
      <point x="491.555" y="321" type="qcurve"/>
    </contour>
  </outline>
</glyph>
<glyph name="A" format="2">
  <advance width="752"/>
  <unicode hex="0041"/>
  <outline>
    <contour>
      <point x="407" y="372" type="line"/>
      <point x="357" y="540" type="line"/>
      <point x="297" y="372" type="line"/>
    </contour>
    <contour>
      <point x="550" y="5" type="line"/>
      <point x="461" y="233" type="line"/>
      <point x="461" y="232" type="line"/>
      <point x="261" y="232" type="line"/>
      <point x="202" y="5" type="line"/>
      <point x="50" y="5" type="line"/>
      <point x="266" y="774" type="line"/>
      <point x="418" y="774" type="line"/>
      <point x="702" y="5" type="line"/>
    </contour>
  </outline>
</glyph>
<glyph name="B" format="2">
  <advance width="512"/>
  <unicode hex="0042"/>
  <outline>
    <contour>
      <point x="202" y="790" type="line"/>
      <point x="208" y="790"/>
      <point x="220" y="790" type="qcurve"/>
      <point x="327" y="790"/>
      <point x="478" y="639"/>
      <point x="478" y="532" type="qcurve"/>
      <point x="478" y="509"/>
      <point x="450" y="465"/>
      <point x="401" y="413"/>
      <point x="395" y="406" type="qcurve"/>
      <point x="397" y="404"/>
      <point x="458" y="340"/>
      <point x="484" y="295"/>
      <point x="484" y="270" type="qcurve"/>
      <point x="484" y="163"/>
      <point x="333" y="13"/>
      <point x="226" y="13" type="qcurve"/>
      <point x="210" y="13"/>
      <point x="202" y="14" type="qcurve"/>
      <point x="50" y="14" type="line"/>
      <point x="50" y="790" type="line"/>
    </contour>
    <contour>
      <point x="202" y="146" type="line"/>
      <point x="214" y="143"/>
      <point x="226" y="143" type="qcurve"/>
      <point x="271" y="143"/>
      <point x="333" y="205"/>
      <point x="333" y="249" type="qcurve"/>
      <point x="333" y="294"/>
      <point x="271" y="356"/>
      <point x="226" y="356" type="qcurve"/>
      <point x="214" y="356"/>
      <point x="202" y="353" type="qcurve"/>
    </contour>
    <contour>
      <point x="202" y="464" type="line"/>
      <point x="214" y="461"/>
      <point x="226" y="461" type="qcurve"/>
      <point x="271" y="461"/>
      <point x="333" y="523"/>
      <point x="333" y="567" type="qcurve"/>
      <point x="333" y="612"/>
      <point x="271" y="674"/>
      <point x="226" y="674" type="qcurve"/>
      <point x="214" y="674"/>
      <point x="202" y="671" type="qcurve"/>
    </contour>
  </outline>
</glyph>
<glyph name="C" format="2">
  <advance width="555"/>
  <unicode hex="0043"/>
  <outline>
    <contour>
      <point x="432" y="617" type="qcurve"/>
      <point x="337" y="617"/>
      <point x="203" y="480"/>
      <point x="203" y="383" type="qcurve"/>
      <point x="203" y="285"/>
      <point x="337" y="148"/>
      <point x="432" y="148" type="qcurve"/>
      <point x="470" y="148"/>
      <point x="505" y="160" type="qcurve"/>
      <point x="505" y="-2" type="line"/>
      <point x="469" y="-9"/>
      <point x="432" y="-9" type="qcurve"/>
      <point x="274" y="-9"/>
      <point x="50" y="222"/>
      <point x="50" y="548"/>
      <point x="274" y="778"/>
      <point x="432" y="778" type="qcurve"/>
      <point x="469" y="778"/>
      <point x="505" y="771" type="qcurve"/>
      <point x="505" y="605" type="line"/>
      <point x="470" y="617"/>
    </contour>
  </outline>
</glyph>
<glyph name="D" format="2">
  <advance width="630"/>
  <unicode hex="0044"/>
  <outline>
    <contour>
      <point x="50" y="778" type="line"/>
      <point x="65" y="773"/>
      <point x="183" y="783"/>
      <point x="198" y="783" type="qcurve"/>
      <point x="356" y="783"/>
      <point x="580" y="553"/>
      <point x="580" y="390" type="qcurve"/>
      <point x="580" y="283"/>
      <point x="479" y="103"/>
      <point x="305" y="-3"/>
      <point x="202" y="-4" type="qcurve"/>
      <point x="50" y="-4" type="line"/>
    </contour>
    <contour>
      <point x="202" y="153" type="line"/>
      <point x="296" y="155"/>
      <point x="427" y="292"/>
      <point x="427" y="388" type="qcurve"/>
      <point x="427" y="484"/>
      <point x="296" y="620"/>
      <point x="202" y="622" type="qcurve"/>
    </contour>
  </outline>
</glyph>
<glyph name="E" format="2">
  <advance width="668"/>
  <unicode hex="0045"/>
  <outline>
    <contour>
      <point x="509" y="495" type="line"/>
      <point x="510" y="343" type="line"/>
      <point x="202" y="343" type="line"/>
      <point x="202" y="159" type="line"/>
      <point x="617" y="159" type="line"/>
      <point x="618" y="7" type="line"/>
      <point x="51" y="7" type="line"/>
      <point x="51" y="8" type="line"/>
      <point x="50" y="8" type="line"/>
      <point x="50" y="784" type="line"/>
      <point x="50" y="788" type="line"/>
      <point x="617" y="788" type="line"/>
      <point x="618" y="636" type="line"/>
      <point x="202" y="636" type="line"/>
      <point x="202" y="495" type="line"/>
    </contour>
  </outline>
</glyph>
<glyph name="F" format="2">
  <advance width="668"/>
  <unicode hex="0046"/>
  <outline>
    <contour>
      <point x="509" y="495" type="line"/>
      <point x="510" y="343" type="line"/>
      <point x="202" y="343" type="line"/>
      <point x="202" y="8" type="line"/>
      <point x="50" y="8" type="line"/>
      <point x="50" y="784" type="line"/>
      <point x="50" y="788" type="line"/>
      <point x="617" y="788" type="line"/>
      <point x="618" y="636" type="line"/>
      <point x="202" y="636" type="line"/>
      <point x="202" y="495" type="line"/>
    </contour>
  </outline>
</glyph>
<glyph name="H" format="2">
  <advance width="652"/>
  <unicode hex="0048"/>
  <outline>
    <contour>
      <point x="450" y="784" type="line"/>
      <point x="602" y="784" type="line"/>
      <point x="602" y="8" type="line"/>
      <point x="450" y="8" type="line"/>
      <point x="450" y="343" type="line"/>
      <point x="202" y="343" type="line"/>
      <point x="202" y="8" type="line"/>
      <point x="50" y="8" type="line"/>
      <point x="50" y="784" type="line"/>
      <point x="202" y="784" type="line"/>
      <point x="202" y="495" type="line"/>
      <point x="450" y="495" type="line"/>
    </contour>
  </outline>
</glyph>
<glyph name="I" format="2">
  <advance width="252"/>
  <unicode hex="0049"/>
  <outline>
    <contour>
      <point x="50" y="779" type="line"/>
      <point x="202" y="779" type="line"/>
      <point x="202" y="3" type="line"/>
      <point x="50" y="3" type="line"/>
    </contour>
  </outline>
</glyph>
<glyph name="J" format="2">
  <advance width="419"/>
  <unicode hex="004A"/>
  <outline>
    <contour>
      <point x="50" y="11" type="qcurve"/>
      <point x="50" y="179" type="line"/>
      <point x="81" y="153"/>
      <point x="121" y="153" type="qcurve"/>
      <point x="170" y="153"/>
      <point x="202" y="190" type="qcurve"/>
      <point x="202" y="766" type="line"/>
      <point x="369" y="766" type="line"/>
      <point x="366" y="189" type="line"/>
      <point x="342" y="106"/>
      <point x="208" y="2"/>
      <point x="121" y="2" type="qcurve"/>
      <point x="84" y="2"/>
    </contour>
  </outline>
</glyph>
<glyph name="K" format="2">
  <advance width="703"/>
  <unicode hex="004B"/>
  <outline>
    <contour>
      <point x="50" y="784" type="line"/>
      <point x="202" y="784" type="line"/>
      <point x="202" y="443" type="line"/>
      <point x="447" y="780" type="line"/>
      <point x="633" y="778" type="line"/>
      <point x="372" y="397" type="line"/>
      <point x="703" y="7" type="line"/>
      <point x="511" y="8" type="line"/>
      <point x="259" y="312" type="line"/>
      <point x="202" y="229" type="line"/>
      <point x="202" y="8" type="line"/>
      <point x="50" y="8" type="line"/>
    </contour>
  </outline>
</glyph>
<glyph name="M" format="2">
  <advance width="1052"/>
  <unicode hex="004D"/>
  <outline>
    <contour>
      <point x="50" y="773" type="line"/>
      <point x="202" y="773" type="line"/>
      <point x="526" y="151" type="line"/>
      <point x="850" y="773" type="line"/>
      <point x="1002" y="773" type="line"/>
      <point x="1002" y="3" type="line"/>
      <point x="850" y="3" type="line"/>
      <point x="850" y="481" type="line"/>
      <point x="602" y="5" type="line"/>
      <point x="450" y="5" type="line"/>
      <point x="202" y="481" type="line"/>
      <point x="202" y="3" type="line"/>
      <point x="50" y="3" type="line"/>
    </contour>
  </outline>
</glyph>
<glyph name="N" format="2">
  <advance width="852"/>
  <unicode hex="004E"/>
  <outline>
    <contour>
      <point x="50" y="784" type="line"/>
      <point x="202" y="784" type="line"/>
      <point x="650" y="261" type="line"/>
      <point x="650" y="784" type="line"/>
      <point x="802" y="784" type="line"/>
      <point x="802" y="8" type="line"/>
      <point x="650" y="8" type="line"/>
      <point x="202" y="533" type="line"/>
      <point x="202" y="8" type="line"/>
      <point x="50" y="8" type="line"/>
    </contour>
  </outline>
</glyph>
<glyph name="O" format="2">
  <advance width="864"/>
  <unicode hex="004F"/>
  <outline>
    <contour>
      <point x="814" y="390" type="qcurve"/>
      <point x="814" y="227"/>
      <point x="590" y="-4"/>
      <point x="274" y="-4"/>
      <point x="50" y="227"/>
      <point x="50" y="553"/>
      <point x="274" y="783"/>
      <point x="590" y="783"/>
      <point x="814" y="553"/>
    </contour>
    <contour>
      <point x="661" y="388" type="qcurve"/>
      <point x="661" y="485"/>
      <point x="527" y="622"/>
      <point x="337" y="622"/>
      <point x="203" y="485"/>
      <point x="203" y="388" type="qcurve"/>
      <point x="203" y="290"/>
      <point x="337" y="153"/>
      <point x="527" y="153"/>
      <point x="661" y="290"/>
    </contour>
  </outline>
</glyph>
<glyph name="P" format="2">
  <advance width="534"/>
  <unicode hex="0050"/>
  <outline>
    <contour>
      <point x="202" y="13" type="line"/>
      <point x="50" y="13" type="line"/>
      <point x="50" y="789" type="line"/>
      <point x="202" y="789" type="line"/>
      <point x="210" y="790"/>
      <point x="226" y="790" type="qcurve"/>
      <point x="333" y="790"/>
      <point x="484" y="640"/>
      <point x="484" y="426"/>
      <point x="333" y="275"/>
      <point x="226" y="275" type="qcurve"/>
      <point x="210" y="275"/>
      <point x="202" y="276" type="qcurve"/>
    </contour>
    <contour>
      <point x="202" y="636" type="qcurve"/>
      <point x="202" y="429" type="line"/>
      <point x="214" y="426"/>
      <point x="226" y="426" type="qcurve"/>
      <point x="271" y="426"/>
      <point x="333" y="488"/>
      <point x="333" y="533" type="qcurve"/>
      <point x="333" y="577"/>
      <point x="271" y="639"/>
      <point x="226" y="639" type="qcurve"/>
      <point x="214" y="639"/>
    </contour>
  </outline>
</glyph>
<glyph name="Q" format="2">
  <advance width="872"/>
  <unicode hex="0051"/>
  <outline>
    <contour>
      <point x="814" y="385" type="qcurve"/>
      <point x="814" y="298"/>
      <point x="746" y="145"/>
      <point x="685" y="90" type="qcurve"/>
      <point x="822" y="-47" type="line"/>
      <point x="684" y="-186" type="line"/>
      <point x="501" y="-3" type="line"/>
      <point x="467" y="-9"/>
      <point x="432" y="-9" type="qcurve"/>
      <point x="274" y="-9"/>
      <point x="50" y="222"/>
      <point x="50" y="548"/>
      <point x="274" y="778"/>
      <point x="590" y="778"/>
      <point x="814" y="548"/>
    </contour>
    <contour>
      <point x="661" y="383" type="qcurve"/>
      <point x="661" y="480"/>
      <point x="527" y="617"/>
      <point x="337" y="617"/>
      <point x="203" y="480"/>
      <point x="203" y="383" type="qcurve"/>
      <point x="203" y="285"/>
      <point x="337" y="148"/>
      <point x="527" y="148"/>
      <point x="661" y="285"/>
    </contour>
  </outline>
</glyph>
<glyph name="R" format="2">
  <advance width="562"/>
  <unicode hex="0052"/>
  <outline>
    <contour>
      <point x="202" y="8" type="line"/>
      <point x="50" y="8" type="line"/>
      <point x="50" y="784" type="line"/>
      <point x="202" y="784" type="line"/>
      <point x="210" y="785"/>
      <point x="226" y="785" type="qcurve"/>
      <point x="333" y="785"/>
      <point x="484" y="635"/>
      <point x="484" y="528" type="qcurve"/>
      <point x="484" y="445"/>
      <point x="389" y="312"/>
      <point x="313" y="285" type="qcurve"/>
      <point x="512" y="2" type="line"/>
      <point x="372" y="2" type="line"/>
      <point x="207" y="271" type="line"/>
      <point x="204" y="271"/>
      <point x="202" y="271" type="qcurve"/>
    </contour>
    <contour>
      <point x="202" y="631" type="qcurve"/>
      <point x="202" y="424" type="line"/>
      <point x="214" y="421"/>
      <point x="226" y="421" type="qcurve"/>
      <point x="271" y="421"/>
      <point x="333" y="483"/>
      <point x="333" y="528" type="qcurve"/>
      <point x="333" y="572"/>
      <point x="271" y="634"/>
      <point x="226" y="634" type="qcurve"/>
      <point x="214" y="634"/>
    </contour>
  </outline>
</glyph>
<glyph name="S" format="2">
  <advance width="512"/>
  <unicode hex="0053"/>
  <outline>
    <contour>
      <point x="55" y="67" type="qcurve"/>
      <point x="130" y="192" type="line"/>
      <point x="142" y="182"/>
      <point x="152" y="177" type="qcurve"/>
      <point x="190" y="155"/>
      <point x="274" y="176"/>
      <point x="297" y="212" type="qcurve"/>
      <point x="319" y="251"/>
      <point x="270" y="318"/>
      <point x="227" y="325" type="qcurve"/>
      <point x="160" y="361"/>
      <point x="79" y="455"/>
      <point x="58" y="580"/>
      <point x="101" y="649" type="qcurve"/>
      <point x="153" y="736"/>
      <point x="359" y="787"/>
      <point x="453" y="737" type="qcurve"/>
      <point x="456" y="734"/>
      <point x="471" y="725"/>
      <point x="474" y="722" type="qcurve"/>
      <point x="399" y="597" type="line"/>
      <point x="387" y="607"/>
      <point x="377" y="612" type="qcurve"/>
      <point x="339" y="633"/>
      <point x="254" y="612"/>
      <point x="232" y="575" type="qcurve"/>
      <point x="207" y="534"/>
      <point x="248" y="436"/>
      <point x="296" y="428" type="qcurve"/>
      <point x="345" y="402"/>
      <point x="412" y="349"/>
      <point x="461" y="278"/>
      <point x="458" y="190"/>
      <point x="427" y="140" type="qcurve"/>
      <point x="375" y="52"/>
      <point x="170" y="1"/>
      <point x="76" y="52" type="qcurve"/>
      <point x="73" y="55"/>
      <point x="58" y="64"/>
    </contour>
  </outline>
</glyph>
<glyph name="T" format="2">
  <advance width="676"/>
  <unicode hex="0054"/>
  <outline>
    <contour>
      <point x="50" y="619" type="line"/>
      <point x="50" y="771" type="line"/>
      <point x="626" y="771" type="line"/>
      <point x="626" y="619" type="line"/>
      <point x="414" y="619" type="line"/>
      <point x="414" y="3" type="line"/>
      <point x="262" y="3" type="line"/>
      <point x="262" y="619" type="line"/>
    </contour>
  </outline>
</glyph>
<glyph name="U" format="2">
  <advance width="669"/>
  <unicode hex="0055"/>
  <outline>
    <contour>
      <point x="616" y="194" type="line"/>
      <point x="600" y="136"/>
      <point x="511" y="53"/>
      <point x="399" y="14"/>
      <point x="271" y="13"/>
      <point x="158" y="51"/>
      <point x="70" y="135"/>
      <point x="53" y="194" type="qcurve"/>
      <point x="50" y="771" type="line"/>
      <point x="217" y="771" type="line"/>
      <point x="217" y="195" type="line"/>
      <point x="246" y="162"/>
      <point x="424" y="161"/>
      <point x="452" y="195" type="qcurve"/>
      <point x="452" y="771" type="line"/>
      <point x="619" y="771" type="line"/>
    </contour>
  </outline>
</glyph>
<glyph name="V" format="2">
  <advance width="652"/>
  <unicode hex="0056"/>
  <outline>
    <contour>
      <point x="50" y="774" type="line"/>
      <point x="202" y="774" type="line"/>
      <point x="326" y="297" type="line"/>
      <point x="450" y="774" type="line"/>
      <point x="602" y="774" type="line"/>
      <point x="402" y="5" type="line"/>
      <point x="250" y="5" type="line"/>
    </contour>
  </outline>
</glyph>
<glyph name="W" format="2">
  <advance width="1053"/>
  <unicode hex="0057"/>
  <outline>
    <contour>
      <point x="50" y="774" type="line"/>
      <point x="202" y="774" type="line"/>
      <point x="326" y="297" type="line"/>
      <point x="450" y="774" type="line"/>
      <point x="451" y="774" type="line"/>
      <point x="602" y="774" type="line"/>
      <point x="603" y="774" type="line"/>
      <point x="727" y="297" type="line"/>
      <point x="851" y="774" type="line"/>
      <point x="1003" y="774" type="line"/>
      <point x="803" y="5" type="line"/>
      <point x="651" y="5" type="line"/>
      <point x="526" y="484" type="line"/>
      <point x="402" y="5" type="line"/>
      <point x="250" y="5" type="line"/>
    </contour>
  </outline>
</glyph>
<glyph name="X" format="2">
  <advance width="724"/>
  <unicode hex="0058"/>
  <outline>
    <contour>
      <point x="50" y="775" type="line"/>
      <point x="236" y="773" type="line"/>
      <point x="366" y="546" type="line"/>
      <point x="498" y="774" type="line"/>
      <point x="673" y="773" type="line"/>
      <point x="453" y="393" type="line"/>
      <point x="674" y="5" type="line"/>
      <point x="499" y="3" type="line"/>
      <point x="363" y="238" type="line"/>
      <point x="229" y="7" type="line"/>
      <point x="51" y="4" type="line"/>
      <point x="274" y="389" type="line"/>
    </contour>
  </outline>
</glyph>
<glyph name="Y" format="2">
  <advance width="652"/>
  <unicode hex="0059"/>
  <outline>
    <contour>
      <point x="249" y="456" type="line"/>
      <point x="50" y="770" type="line"/>
      <point x="202" y="770" type="line"/>
      <point x="326" y="599" type="line"/>
      <point x="450" y="770" type="line"/>
      <point x="602" y="770" type="line"/>
      <point x="402" y="455" type="line"/>
      <point x="401" y="455" type="line"/>
      <point x="401" y="6" type="line"/>
      <point x="249" y="6" type="line"/>
    </contour>
  </outline>
</glyph>
<glyph name="Z" format="2">
  <advance width="783"/>
  <unicode hex="005A"/>
  <outline>
    <contour>
      <point x="50" y="15" type="line"/>
      <point x="50" y="167" type="line"/>
      <point x="480" y="615" type="line"/>
      <point x="50" y="615" type="line"/>
      <point x="50" y="767" type="line"/>
      <point x="733" y="767" type="line"/>
      <point x="733" y="615" type="line"/>
      <point x="301" y="167" type="line"/>
      <point x="733" y="167" type="line"/>
      <point x="733" y="15" type="line"/>
    </contour>
  </outline>
</glyph>
<glyph name="bracketleft" format="2">
  <advance width="362"/>
  <unicode hex="005B"/>
  <outline>
    <contour>
      <point x="51" y="-75" type="line"/>
      <point x="50" y="-75" type="line"/>
      <point x="50" y="-74" type="line"/>
      <point x="50" y="778" type="line"/>
      <point x="50" y="779" type="line"/>
      <point x="51" y="779" type="line"/>
      <point x="312" y="779" type="line"/>
      <point x="311" y="694" type="line"/>
      <point x="144" y="694" type="line"/>
      <point x="144" y="10" type="line"/>
      <point x="311" y="10" type="line"/>
      <point x="312" y="-75" type="line"/>
    </contour>
  </outline>
</glyph>
<glyph name="backslash" format="2">
  <advance width="691"/>
  <unicode hex="005C"/>
  <outline>
    <contour>
      <point x="156" y="823" type="line"/>
      <point x="641" y="-17" type="line"/>
      <point x="535" y="-78" type="line"/>
      <point x="50" y="762" type="line"/>
    </contour>
  </outline>
</glyph>
<glyph name="bracketright" format="2">
  <advance width="362"/>
  <unicode hex="005D"/>
  <outline>
    <contour>
      <point x="311" y="-76" type="line"/>
      <point x="50" y="-76" type="line"/>
      <point x="51" y="9" type="line"/>
      <point x="218" y="9" type="line"/>
      <point x="218" y="694" type="line"/>
      <point x="51" y="694" type="line"/>
      <point x="50" y="779" type="line"/>
      <point x="311" y="779" type="line"/>
      <point x="312" y="779" type="line"/>
      <point x="312" y="778" type="line"/>
      <point x="312" y="-75" type="line"/>
      <point x="312" y="-76" type="line"/>
    </contour>
  </outline>
</glyph>
<glyph name="asciicircum" format="2">
  <advance width="502"/>
  <unicode hex="005E"/>
  <outline>
    <contour>
      <point x="50" y="288" type="line"/>
      <point x="193" y="622" type="line"/>
      <point x="194" y="622" type="line"/>
      <point x="345" y="622" type="line"/>
      <point x="346" y="622" type="line"/>
      <point x="452" y="288" type="line"/>
      <point x="300" y="288" type="line"/>
      <point x="258" y="502" type="line"/>
      <point x="202" y="288" type="line"/>
    </contour>
  </outline>
</glyph>
<glyph name="underscore" format="2">
  <advance width="544"/>
  <unicode hex="005F"/>
  <outline>
    <contour>
      <point x="544" y="206" type="line"/>
      <point x="544" y="54" type="line"/>
      <point x="0" y="54" type="line"/>
      <point x="0" y="206" type="line"/>
    </contour>
  </outline>
</glyph>
<glyph name="grave" format="2">
  <advance width="252"/>
  <unicode hex="0060"/>
  <outline>
    <contour>
      <point x="163" y="526" type="line"/>
      <point x="-19" y="708" type="line"/>
      <point x="89" y="815" type="line"/>
      <point x="271" y="633" type="line"/>
    </contour>
  </outline>
</glyph>
<glyph name="a" format="2">
  <advance width="512"/>
  <unicode hex="0061"/>
  <outline>
    <contour>
      <point x="332" y="11" type="line"/>
      <point x="332" y="19" type="line"/>
      <point x="324" y="18"/>
      <point x="308" y="18" type="qcurve"/>
      <point x="201" y="18"/>
      <point x="50" y="169"/>
      <point x="50" y="276" type="qcurve"/>
      <point x="50" y="382"/>
      <point x="200" y="525"/>
      <point x="308" y="525" type="qcurve"/>
      <point x="324" y="525"/>
      <point x="332" y="524" type="qcurve"/>
      <point x="484" y="524" type="line"/>
      <point x="484" y="11" type="line"/>
    </contour>
    <contour>
      <point x="332" y="379" type="line"/>
      <point x="320" y="382"/>
      <point x="308" y="382" type="qcurve"/>
      <point x="263" y="382"/>
      <point x="201" y="320"/>
      <point x="201" y="276" type="qcurve"/>
      <point x="201" y="231"/>
      <point x="263" y="169"/>
      <point x="308" y="169" type="qcurve"/>
      <point x="320" y="169"/>
      <point x="332" y="172" type="qcurve"/>
    </contour>
  </outline>
</glyph>
<glyph name="b" format="2">
  <advance width="534"/>
  <unicode hex="0062"/>
  <outline>
    <contour>
      <point x="202" y="162" type="line"/>
      <point x="214" y="159"/>
      <point x="226" y="159" type="qcurve"/>
      <point x="271" y="159"/>
      <point x="333" y="221"/>
      <point x="333" y="265" type="qcurve"/>
      <point x="333" y="310"/>
      <point x="271" y="372"/>
      <point x="226" y="372" type="qcurve"/>
      <point x="214" y="372"/>
      <point x="202" y="369" type="qcurve"/>
    </contour>
    <contour>
      <point x="202" y="785" type="line"/>
      <point x="202" y="522" type="line"/>
      <point x="210" y="523"/>
      <point x="226" y="523" type="qcurve"/>
      <point x="333" y="523"/>
      <point x="484" y="372"/>
      <point x="484" y="158"/>
      <point x="333" y="8"/>
      <point x="226" y="8" type="qcurve"/>
      <point x="210" y="8"/>
      <point x="202" y="9" type="qcurve"/>
      <point x="50" y="9" type="line"/>
      <point x="50" y="785" type="line"/>
    </contour>
  </outline>
</glyph>
<glyph name="c" format="2">
  <advance width="384"/>
  <unicode hex="0063"/>
  <outline>
    <contour>
      <point x="334" y="9" type="line"/>
      <point x="321" y="8"/>
      <point x="308" y="8" type="qcurve"/>
      <point x="201" y="8"/>
      <point x="50" y="158"/>
      <point x="50" y="372"/>
      <point x="201" y="523"/>
      <point x="308" y="523" type="qcurve"/>
      <point x="321" y="523"/>
      <point x="334" y="522" type="qcurve"/>
      <point x="334" y="369" type="line"/>
      <point x="321" y="372"/>
      <point x="308" y="372" type="qcurve"/>
      <point x="263" y="372"/>
      <point x="201" y="310"/>
      <point x="201" y="265" type="qcurve"/>
      <point x="201" y="221"/>
      <point x="263" y="159"/>
      <point x="308" y="159" type="qcurve"/>
      <point x="321" y="159"/>
      <point x="334" y="162" type="qcurve"/>
    </contour>
  </outline>
</glyph>
<glyph name="e" format="2">
  <advance width="617"/>
  <unicode hex="0065"/>
  <outline>
    <contour>
      <point x="211" y="302" type="qcurve"/>
      <point x="407" y="299" type="line"/>
      <point x="403" y="303"/>
      <point x="371" y="341"/>
      <point x="353" y="360"/>
      <point x="322" y="380"/>
      <point x="308" y="380" type="qcurve"/>
      <point x="294" y="380"/>
      <point x="264" y="361"/>
      <point x="245" y="341"/>
      <point x="215" y="307"/>
    </contour>
    <contour>
      <point x="566" y="265" type="qcurve"/>
      <point x="566" y="255"/>
      <point x="567" y="220"/>
      <point x="567" y="213" type="qcurve"/>
      <point x="216" y="210" type="line"/>
      <point x="230" y="187"/>
      <point x="279" y="159"/>
      <point x="308" y="159" type="qcurve"/>
      <point x="342" y="159"/>
      <point x="549" y="164"/>
      <point x="557" y="167" type="qcurve"/>
      <point x="557" y="11" type="line"/>
      <point x="538" y="8"/>
      <point x="308" y="8" type="qcurve"/>
      <point x="201" y="8"/>
      <point x="50" y="158"/>
      <point x="50" y="372"/>
      <point x="201" y="523"/>
      <point x="415" y="523"/>
      <point x="566" y="372"/>
    </contour>
  </outline>
</glyph>
<glyph name="f" format="2">
  <advance width="514"/>
  <unicode hex="0066"/>
  <outline>
    <contour>
      <point x="464" y="757" type="qcurve"/>
      <point x="464" y="589" type="line"/>
      <point x="433" y="615"/>
      <point x="393" y="615" type="qcurve"/>
      <point x="344" y="615"/>
      <point x="312" y="578" type="qcurve"/>
      <point x="312" y="516" type="line"/>
      <point x="409" y="516" type="line"/>
      <point x="409" y="364" type="line"/>
      <point x="312" y="364" type="line"/>
      <point x="312" y="2" type="line"/>
      <point x="145" y="2" type="line"/>
      <point x="147" y="364" type="line"/>
      <point x="50" y="364" type="line"/>
      <point x="50" y="516" type="line"/>
      <point x="148" y="516" type="line"/>
      <point x="148" y="579" type="line"/>
      <point x="172" y="662"/>
      <point x="306" y="766"/>
      <point x="393" y="766" type="qcurve"/>
      <point x="430" y="766"/>
    </contour>
  </outline>
</glyph>
<glyph name="g" format="2">
  <advance width="620"/>
  <unicode hex="0067"/>
  <outline>
    <contour>
      <point x="309" y="8" type="line"/>
      <point x="308" y="8" type="line"/>
      <point x="306" y="8"/>
      <point x="304" y="8" type="qcurve"/>
      <point x="300" y="8" type="line"/>
      <point x="263" y="8"/>
      <point x="259" y="9" type="qcurve"/>
      <point x="161" y="16"/>
      <point x="50" y="159"/>
      <point x="50" y="265" type="qcurve"/>
      <point x="50" y="367"/>
      <point x="189" y="516"/>
      <point x="290" y="522" type="qcurve"/>
      <point x="296" y="523"/>
      <point x="304" y="523" type="qcurve"/>
      <point x="306" y="523"/>
      <point x="308" y="523" type="qcurve"/>
      <point x="309" y="523" type="line"/>
      <point x="310" y="523"/>
      <point x="312" y="523" type="qcurve"/>
      <point x="419" y="523"/>
      <point x="570" y="373"/>
      <point x="570" y="266" type="qcurve"/>
      <point x="570" y="265" type="line"/>
      <point x="570" y="262"/>
      <point x="570" y="258" type="qcurve"/>
      <point x="567" y="-13" type="line"/>
      <point x="543" y="-96"/>
      <point x="412" y="-200"/>
      <point x="325" y="-200" type="qcurve"/>
      <point x="154" y="-200"/>
      <point x="120" y="-191" type="qcurve"/>
      <point x="120" y="-23" type="line"/>
      <point x="132" y="-33"/>
      <point x="290" y="-49"/>
      <point x="325" y="-49" type="qcurve"/>
      <point x="351" y="-49"/>
      <point x="404" y="-29"/>
      <point x="419" y="-12" type="qcurve"/>
      <point x="419" y="31" type="line"/>
      <point x="368" y="8"/>
      <point x="312" y="8" type="qcurve"/>
      <point x="311" y="8"/>
      <point x="310" y="8" type="qcurve" smooth="yes"/>
    </contour>
    <contour>
      <point x="310" y="372" type="qcurve"/>
      <point x="297" y="372"/>
      <point x="286" y="369" type="qcurve"/>
      <point x="286" y="370" type="line"/>
      <point x="249" y="362"/>
      <point x="201" y="304"/>
      <point x="201" y="265" type="qcurve"/>
      <point x="201" y="227"/>
      <point x="249" y="169"/>
      <point x="286" y="161" type="qcurve"/>
      <point x="286" y="162" type="line"/>
      <point x="297" y="159"/>
      <point x="310" y="159" type="qcurve"/>
      <point x="322" y="159"/>
      <point x="334" y="162" type="qcurve"/>
      <point x="334" y="161" type="line"/>
      <point x="371" y="169"/>
      <point x="419" y="227"/>
      <point x="419" y="265" type="qcurve"/>
      <point x="419" y="304"/>
      <point x="371" y="362"/>
      <point x="334" y="370" type="qcurve"/>
      <point x="334" y="369" type="line"/>
      <point x="322" y="372"/>
    </contour>
  </outline>
</glyph>
<glyph name="h" format="2">
  <advance width="597"/>
  <unicode hex="0068"/>
  <outline>
    <contour>
      <point x="50" y="773" type="line"/>
      <point x="219" y="773" type="line"/>
      <point x="219" y="517" type="line"/>
      <point x="258" y="529"/>
      <point x="299" y="529" type="qcurve"/>
      <point x="386" y="529"/>
      <point x="520" y="425"/>
      <point x="544" y="342" type="qcurve"/>
      <point x="547" y="11" type="line"/>
      <point x="380" y="11" type="line"/>
      <point x="380" y="341" type="line"/>
      <point x="348" y="378"/>
      <point x="299" y="378" type="qcurve"/>
      <point x="251" y="378"/>
      <point x="219" y="343" type="qcurve"/>
      <point x="219" y="11" type="line"/>
      <point x="50" y="11" type="line"/>
    </contour>
  </outline>
</glyph>
<glyph name="i" format="2">
  <advance width="252"/>
  <unicode hex="0069"/>
  <outline>
    <contour>
      <point x="50" y="777" type="line"/>
      <point x="202" y="777" type="line"/>
      <point x="202" y="635" type="line"/>
      <point x="50" y="635" type="line"/>
    </contour>
    <contour>
      <point x="50" y="517" type="line"/>
      <point x="202" y="517" type="line"/>
      <point x="202" y="3" type="line"/>
      <point x="50" y="3" type="line"/>
    </contour>
  </outline>
</glyph>
<glyph name="j" format="2">
  <advance width="419"/>
  <unicode hex="006A"/>
  <outline>
    <contour>
      <point x="50" y="-185" type="qcurve"/>
      <point x="50" y="-17" type="line"/>
      <point x="81" y="-43"/>
      <point x="121" y="-43" type="qcurve"/>
      <point x="170" y="-43"/>
      <point x="202" y="-6" type="qcurve"/>
      <point x="202" y="527" type="line"/>
      <point x="369" y="527" type="line"/>
      <point x="366" y="-7" type="line"/>
      <point x="342" y="-90"/>
      <point x="208" y="-194"/>
      <point x="121" y="-194" type="qcurve"/>
      <point x="84" y="-194"/>
    </contour>
    <contour>
      <point x="214" y="782" type="line"/>
      <point x="366" y="782" type="line"/>
      <point x="366" y="640" type="line"/>
      <point x="214" y="640" type="line"/>
    </contour>
  </outline>
</glyph>
<glyph name="k" format="2">
  <advance width="688"/>
  <unicode hex="006B"/>
  <outline>
    <contour>
      <point x="50" y="757" type="line"/>
      <point x="191" y="757" type="line"/>
      <point x="191" y="322" type="line"/>
      <point x="436" y="519" type="line"/>
      <point x="629" y="517" type="line"/>
      <point x="368" y="289" type="line"/>
      <point x="638" y="2" type="line"/>
      <point x="452" y="3" type="line"/>
      <point x="248" y="231" type="line"/>
      <point x="191" y="159" type="line"/>
      <point x="191" y="3" type="line"/>
      <point x="50" y="3" type="line"/>
    </contour>
  </outline>
</glyph>
<glyph name="l" format="2">
  <advance width="419"/>
  <unicode hex="006C"/>
  <outline>
    <contour>
      <point x="369" y="11" type="line"/>
      <point x="335" y="2"/>
      <point x="298" y="2" type="qcurve"/>
      <point x="211" y="2"/>
      <point x="77" y="106"/>
      <point x="53" y="189" type="qcurve"/>
      <point x="50" y="766" type="line"/>
      <point x="217" y="766" type="line"/>
      <point x="217" y="190" type="line"/>
      <point x="249" y="153"/>
      <point x="298" y="153" type="qcurve"/>
      <point x="338" y="153"/>
      <point x="369" y="179" type="qcurve"/>
    </contour>
  </outline>
</glyph>
<glyph name="m" format="2">
  <advance width="924"/>
  <unicode hex="006D"/>
  <outline>
    <contour>
      <point x="50" y="532" type="line"/>
      <point x="219" y="532" type="line"/>
      <point x="219" y="522" type="line"/>
      <point x="258" y="534"/>
      <point x="299" y="534" type="qcurve"/>
      <point x="389" y="534"/>
      <point x="458" y="478" type="qcurve"/>
      <point x="546" y="522" type="line"/>
      <point x="585" y="534"/>
      <point x="626" y="534" type="qcurve"/>
      <point x="713" y="534"/>
      <point x="847" y="430"/>
      <point x="871" y="347" type="qcurve"/>
      <point x="874" y="16" type="line"/>
      <point x="707" y="16" type="line"/>
      <point x="707" y="346" type="line"/>
      <point x="675" y="383"/>
      <point x="626" y="383" type="qcurve"/>
      <point x="578" y="383"/>
      <point x="546" y="348" type="qcurve"/>
      <point x="546" y="126" type="line"/>
      <point x="547" y="16" type="line"/>
      <point x="546" y="16" type="line"/>
      <point x="380" y="16" type="line"/>
      <point x="377" y="16" type="line"/>
      <point x="380" y="333" type="line"/>
      <point x="380" y="346" type="line"/>
      <point x="348" y="383"/>
      <point x="299" y="383" type="qcurve"/>
      <point x="251" y="383"/>
      <point x="219" y="348" type="qcurve"/>
      <point x="219" y="16" type="line"/>
      <point x="50" y="16" type="line"/>
    </contour>
  </outline>
</glyph>
<glyph name="n" format="2">
  <advance width="597"/>
  <unicode hex="006E"/>
  <outline>
    <contour>
      <point x="50" y="532" type="line"/>
      <point x="219" y="532" type="line"/>
      <point x="219" y="522" type="line"/>
      <point x="258" y="534"/>
      <point x="299" y="534" type="qcurve"/>
      <point x="386" y="534"/>
      <point x="520" y="430"/>
      <point x="544" y="347" type="qcurve"/>
      <point x="547" y="16" type="line"/>
      <point x="380" y="16" type="line"/>
      <point x="380" y="346" type="line"/>
      <point x="348" y="383"/>
      <point x="299" y="383" type="qcurve"/>
      <point x="251" y="383"/>
      <point x="219" y="348" type="qcurve"/>
      <point x="219" y="16" type="line"/>
      <point x="50" y="16" type="line"/>
    </contour>
  </outline>
</glyph>
<glyph name="o" format="2">
  <advance width="616"/>
  <unicode hex="006F"/>
  <outline>
    <contour>
      <point x="309" y="13" type="qcurve"/>
      <point x="308" y="13"/>
      <point x="308" y="13" type="qcurve"/>
      <point x="306" y="13"/>
      <point x="304" y="13" type="qcurve"/>
      <point x="296" y="13"/>
      <point x="290" y="14" type="qcurve"/>
      <point x="189" y="20"/>
      <point x="50" y="168"/>
      <point x="50" y="270" type="qcurve"/>
      <point x="50" y="372"/>
      <point x="189" y="521"/>
      <point x="290" y="527" type="qcurve"/>
      <point x="296" y="528"/>
      <point x="304" y="528" type="qcurve"/>
      <point x="306" y="528"/>
      <point x="308" y="528" type="qcurve"/>
      <point x="308" y="528"/>
      <point x="309" y="528" type="qcurve"/>
      <point x="310" y="528"/>
      <point x="312" y="528" type="qcurve"/>
      <point x="419" y="528"/>
      <point x="570" y="377"/>
      <point x="570" y="163"/>
      <point x="419" y="13"/>
      <point x="312" y="13" type="qcurve"/>
      <point x="310" y="13"/>
    </contour>
    <contour>
      <point x="310" y="377" type="qcurve"/>
      <point x="297" y="377"/>
      <point x="286" y="374" type="qcurve"/>
      <point x="286" y="375" type="line"/>
      <point x="249" y="367"/>
      <point x="201" y="309"/>
      <point x="201" y="270" type="qcurve"/>
      <point x="201" y="232"/>
      <point x="249" y="174"/>
      <point x="286" y="166" type="qcurve"/>
      <point x="286" y="167" type="line"/>
      <point x="297" y="164"/>
      <point x="310" y="164" type="qcurve"/>
      <point x="322" y="164"/>
      <point x="334" y="167" type="qcurve"/>
      <point x="334" y="166" type="line"/>
      <point x="371" y="174"/>
      <point x="419" y="232"/>
      <point x="419" y="270" type="qcurve"/>
      <point x="419" y="309"/>
      <point x="371" y="367"/>
      <point x="334" y="375" type="qcurve"/>
      <point x="334" y="374" type="line"/>
      <point x="322" y="377"/>
    </contour>
  </outline>
</glyph>
<glyph name="p" format="2">
  <advance width="512"/>
  <unicode hex="0070"/>
  <outline>
    <contour>
      <point x="202" y="-192" type="line"/>
      <point x="50" y="-192" type="line"/>
      <point x="50" y="519" type="line"/>
      <point x="202" y="519" type="line"/>
      <point x="210" y="520"/>
      <point x="226" y="520" type="qcurve"/>
      <point x="333" y="520"/>
      <point x="484" y="370"/>
      <point x="484" y="156"/>
      <point x="333" y="5"/>
      <point x="226" y="5" type="qcurve"/>
      <point x="210" y="5"/>
      <point x="202" y="6" type="qcurve"/>
    </contour>
    <contour>
      <point x="202" y="366" type="qcurve"/>
      <point x="202" y="159" type="line"/>
      <point x="214" y="156"/>
      <point x="226" y="156" type="qcurve"/>
      <point x="271" y="156"/>
      <point x="333" y="218"/>
      <point x="333" y="263" type="qcurve"/>
      <point x="333" y="307"/>
      <point x="271" y="369"/>
      <point x="226" y="369" type="qcurve"/>
      <point x="214" y="369"/>
    </contour>
  </outline>
</glyph>
<glyph name="q" format="2">
  <advance width="534"/>
  <unicode hex="0071"/>
  <outline>
    <contour>
      <point x="332" y="361" type="line"/>
      <point x="320" y="364"/>
      <point x="308" y="364" type="qcurve"/>
      <point x="263" y="364"/>
      <point x="201" y="302"/>
      <point x="201" y="258" type="qcurve"/>
      <point x="201" y="213"/>
      <point x="263" y="151"/>
      <point x="308" y="151" type="qcurve"/>
      <point x="320" y="151"/>
      <point x="332" y="154" type="qcurve"/>
    </contour>
    <contour>
      <point x="332" y="-197" type="line"/>
      <point x="332" y="1" type="line"/>
      <point x="324" y="0"/>
      <point x="308" y="0" type="qcurve"/>
      <point x="201" y="0"/>
      <point x="50" y="151"/>
      <point x="50" y="365"/>
      <point x="201" y="515"/>
      <point x="308" y="515" type="qcurve"/>
      <point x="324" y="515"/>
      <point x="332" y="514" type="qcurve"/>
      <point x="484" y="514" type="line"/>
      <point x="484" y="-197" type="line"/>
    </contour>
  </outline>
</glyph>
<glyph name="r" format="2">
  <advance width="587"/>
  <unicode hex="0072"/>
  <outline>
    <contour>
      <point x="50" y="527" type="line"/>
      <point x="219" y="527" type="line"/>
      <point x="219" y="517" type="line"/>
      <point x="258" y="529"/>
      <point x="299" y="529" type="qcurve"/>
      <point x="379" y="529"/>
      <point x="508" y="427"/>
      <point x="537" y="350" type="qcurve"/>
      <point x="372" y="350" type="line"/>
      <point x="372" y="349" type="line"/>
      <point x="341" y="378"/>
      <point x="299" y="378" type="qcurve"/>
      <point x="251" y="378"/>
      <point x="219" y="343" type="qcurve"/>
      <point x="219" y="11" type="line"/>
      <point x="50" y="11" type="line"/>
    </contour>
  </outline>
</glyph>
<glyph name="s" format="2">
  <advance width="508"/>
  <unicode hex="0073"/>
  <outline>
    <contour>
      <point x="69.3916" y="52" type="qcurve"/>
      <point x="136.392" y="164" type="line"/>
      <point x="143.392" y="157"/>
      <point x="158.392" y="152" type="qcurve"/>
      <point x="198.392" y="135"/>
      <point x="261.392" y="143"/>
      <point x="281.392" y="167" type="qcurve"/>
      <point x="304.392" y="194"/>
      <point x="259.392" y="206" type="qcurve"/>
      <point x="247.392" y="209"/>
      <point x="205.392" y="216" type="qcurve"/>
      <point x="139.392" y="242"/>
      <point x="59.3916" y="311"/>
      <point x="43.3916" y="395"/>
      <point x="81.3916" y="439" type="qcurve"/>
      <point x="128.392" y="496"/>
      <point x="328.392" y="519"/>
      <point x="424.392" y="478" type="qcurve"/>
      <point x="442.392" y="470"/>
      <point x="446.392" y="467" type="qcurve"/>
      <point x="379.392" y="337" type="line"/>
      <point x="365.392" y="346"/>
      <point x="357.392" y="349" type="qcurve"/>
      <point x="316.392" y="365"/>
      <point x="276.392" y="357"/>
      <point x="256.392" y="333" type="qcurve"/>
      <point x="231.392" y="307"/>
      <point x="240.392" y="288"/>
      <point x="287.392" y="280" type="qcurve"/>
      <point x="326.392" y="263"/>
      <point x="384.392" y="234"/>
      <point x="437.392" y="194"/>
      <point x="460.392" y="155"/>
      <point x="455.392" y="106"/>
      <point x="433.392" y="80" type="qcurve"/>
      <point x="386.392" y="23"/>
      <point x="186.392" y="-2"/>
      <point x="91.3916" y="39" type="qcurve"/>
      <point x="83.3916" y="41"/>
    </contour>
  </outline>
</glyph>
<glyph name="t" format="2">
  <advance width="514"/>
  <unicode hex="0074"/>
  <outline>
    <contour>
      <point x="464" y="11" type="line"/>
      <point x="430" y="2"/>
      <point x="393" y="2" type="qcurve"/>
      <point x="306" y="2"/>
      <point x="172" y="106"/>
      <point x="148" y="189" type="qcurve"/>
      <point x="147" y="369" type="line"/>
      <point x="50" y="369" type="line"/>
      <point x="50" y="521" type="line"/>
      <point x="146" y="521" type="line"/>
      <point x="145" y="766" type="line"/>
      <point x="312" y="766" type="line"/>
      <point x="312" y="521" type="line"/>
      <point x="409" y="521" type="line"/>
      <point x="409" y="369" type="line"/>
      <point x="312" y="369" type="line"/>
      <point x="312" y="190" type="line"/>
      <point x="344" y="153"/>
      <point x="393" y="153" type="qcurve"/>
      <point x="433" y="153"/>
      <point x="464" y="179" type="qcurve"/>
    </contour>
  </outline>
</glyph>
<glyph name="u" format="2">
  <advance width="597"/>
  <unicode hex="0075"/>
  <outline>
    <contour>
      <point x="547" y="7" type="line"/>
      <point x="378" y="7" type="line"/>
      <point x="378" y="17" type="line"/>
      <point x="339" y="5"/>
      <point x="298" y="5" type="qcurve"/>
      <point x="211" y="5"/>
      <point x="77" y="109"/>
      <point x="53" y="192" type="qcurve"/>
      <point x="50" y="523" type="line"/>
      <point x="217" y="523" type="line"/>
      <point x="217" y="193" type="line"/>
      <point x="249" y="156"/>
      <point x="298" y="156" type="qcurve"/>
      <point x="346" y="156"/>
      <point x="378" y="191" type="qcurve"/>
      <point x="378" y="523" type="line"/>
      <point x="547" y="523" type="line"/>
    </contour>
  </outline>
</glyph>
<glyph name="w" format="2">
  <advance width="1044"/>
  <unicode hex="0077"/>
  <outline>
    <contour>
      <point x="446" y="521" type="line"/>
      <point x="598" y="521" type="line"/>
      <point x="718" y="154" type="line"/>
      <point x="842" y="521" type="line"/>
      <point x="994" y="521" type="line"/>
      <point x="794" y="10" type="line"/>
      <point x="646" y="10" type="line"/>
      <point x="522" y="327" type="line"/>
      <point x="398" y="10" type="line"/>
      <point x="250" y="10" type="line"/>
      <point x="50" y="521" type="line"/>
      <point x="198" y="521" type="line"/>
      <point x="322" y="154" type="line"/>
    </contour>
  </outline>
</glyph>
<glyph name="x" format="2">
  <advance width="724"/>
  <unicode hex="0078"/>
  <outline>
    <contour>
      <point x="0" y="518" type="line"/>
      <point x="186" y="516" type="line"/>
      <point x="315" y="365" type="line"/>
      <point x="448" y="517" type="line"/>
      <point x="623" y="516" type="line"/>
      <point x="403" y="263" type="line"/>
      <point x="624" y="5" type="line"/>
      <point x="449" y="3" type="line"/>
      <point x="312" y="160" type="line"/>
      <point x="179" y="7" type="line"/>
      <point x="1" y="4" type="line"/>
      <point x="224" y="261" type="line"/>
    </contour>
  </outline>
</glyph>
<glyph name="y" format="2">
  <advance width="652"/>
  <unicode hex="0079"/>
  <outline>
    <contour>
      <point x="50" y="521" type="line"/>
      <point x="221" y="521" type="line"/>
      <point x="345" y="154" type="line"/>
      <point x="450" y="521" type="line"/>
      <point x="635" y="524" type="line"/>
      <point x="356" y="-190" type="line"/>
      <point x="208" y="-194" type="line"/>
      <point x="277" y="10" type="line"/>
    </contour>
  </outline>
</glyph>
<glyph name="z" format="2">
  <advance width="512"/>
  <unicode hex="007A"/>
  <outline>
    <contour>
      <point x="0" y="15" type="line"/>
      <point x="0" y="167" type="line"/>
      <point x="243" y="371" type="line"/>
      <point x="0" y="371" type="line"/>
      <point x="0" y="523" type="line"/>
      <point x="453" y="523" type="line"/>
      <point x="453" y="371" type="line"/>
      <point x="251" y="167" type="line"/>
      <point x="453" y="167" type="line"/>
      <point x="453" y="15" type="line"/>
    </contour>
  </outline>
</glyph>
<glyph name="braceleft" format="2">
  <advance width="372"/>
  <unicode hex="007B"/>
  <outline>
    <contour>
      <point x="322" y="-80" type="line"/>
      <point x="307" y="-87"/>
      <point x="285" y="-87" type="qcurve"/>
      <point x="241" y="-87"/>
      <point x="172" y="-3"/>
      <point x="160" y="63" type="qcurve"/>
      <point x="159" y="233" type="line"/>
      <point x="50" y="363" type="line"/>
      <point x="159" y="490" type="line"/>
      <point x="160" y="660" type="line"/>
      <point x="172" y="726"/>
      <point x="241" y="810"/>
      <point x="285" y="810" type="qcurve"/>
      <point x="307" y="810"/>
      <point x="322" y="803" type="qcurve"/>
      <point x="322" y="668" type="line"/>
      <point x="306" y="689"/>
      <point x="285" y="689" type="qcurve"/>
      <point x="261" y="689"/>
      <point x="244" y="659" type="qcurve"/>
      <point x="245" y="475" type="line"/>
      <point x="163" y="374" type="line"/>
      <point x="244" y="233" type="line"/>
      <point x="244" y="63" type="line"/>
      <point x="260" y="34"/>
      <point x="285" y="34" type="qcurve"/>
      <point x="306" y="34"/>
      <point x="322" y="55" type="qcurve"/>
    </contour>
  </outline>
</glyph>
<glyph name="bar" format="2">
  <advance width="252"/>
  <unicode hex="007C"/>
  <outline>
    <contour>
      <point x="65" y="881" type="line"/>
      <point x="187" y="881" type="line"/>
      <point x="187" y="-89" type="line"/>
      <point x="65" y="-89" type="line"/>
    </contour>
  </outline>
</glyph>
<glyph name="braceright" format="2">
  <advance width="372"/>
  <unicode hex="007D"/>
  <outline>
    <contour>
      <point x="50" y="-80" type="qcurve"/>
      <point x="50" y="55" type="line"/>
      <point x="66" y="34"/>
      <point x="87" y="34" type="qcurve"/>
      <point x="112" y="34"/>
      <point x="128" y="63" type="qcurve"/>
      <point x="128" y="233" type="line"/>
      <point x="209" y="374" type="line"/>
      <point x="127" y="475" type="line"/>
      <point x="128" y="659" type="line"/>
      <point x="111" y="689"/>
      <point x="87" y="689" type="qcurve"/>
      <point x="66" y="689"/>
      <point x="50" y="668" type="qcurve"/>
      <point x="50" y="803" type="line"/>
      <point x="65" y="810"/>
      <point x="87" y="810" type="qcurve"/>
      <point x="131" y="810"/>
      <point x="200" y="726"/>
      <point x="212" y="660" type="qcurve"/>
      <point x="213" y="490" type="line"/>
      <point x="322" y="363" type="line"/>
      <point x="213" y="233" type="line"/>
      <point x="212" y="63" type="line"/>
      <point x="200" y="-3"/>
      <point x="131" y="-87"/>
      <point x="87" y="-87" type="qcurve"/>
      <point x="65" y="-87"/>
    </contour>
  </outline>
</glyph>
<glyph name="asciitilde" format="2">
  <advance width="599"/>
  <unicode hex="007E"/>
  <outline>
    <contour>
      <point x="549" y="582" type="line"/>
      <point x="549" y="430" type="line"/>
      <point x="548" y="426"/>
      <point x="517" y="390"/>
      <point x="453" y="349"/>
      <point x="421" y="349" type="qcurve"/>
      <point x="321" y="349" type="line"/>
      <point x="289" y="349"/>
      <point x="200" y="405"/>
      <point x="168" y="405" type="qcurve"/>
      <point x="145" y="405"/>
      <point x="86" y="377"/>
      <point x="68" y="363" type="qcurve"/>
      <point x="50" y="349" type="line"/>
      <point x="50" y="501" type="line"/>
      <point x="114" y="557"/>
      <point x="164" y="557" type="qcurve"/>
      <point x="197" y="557"/>
      <point x="291" y="502"/>
      <point x="324" y="502" type="qcurve"/>
      <point x="369" y="502"/>
      <point x="413" y="502" type="qcurve"/>
      <point x="444" y="502"/>
      <point x="512" y="542"/>
      <point x="530" y="562" type="qcurve"/>
    </contour>
  </outline>
</glyph>
<glyph name="exclamdown" format="2">
  <advance width="252"/>
  <unicode hex="00A1"/>
  <outline>
    <contour>
      <point x="202" y="777" type="line"/>
      <point x="202" y="635" type="line"/>
      <point x="50" y="635" type="line"/>
      <point x="50" y="777" type="line"/>
    </contour>
    <contour>
      <point x="202" y="517" type="line"/>
      <point x="202" y="3" type="line"/>
      <point x="50" y="3" type="line"/>
      <point x="50" y="517" type="line"/>
    </contour>
  </outline>
</glyph>
<glyph name="cent" format="2">
  <advance width="384"/>
  <unicode hex="00A2"/>
  <outline>
    <contour>
      <point x="238" y="710" type="line"/>
      <point x="285" y="710" type="line"/>
      <point x="285" y="-89" type="line"/>
      <point x="238" y="-89" type="line"/>
    </contour>
    <contour>
      <point x="334" y="14" type="line"/>
      <point x="321" y="13"/>
      <point x="308" y="13" type="qcurve"/>
      <point x="201" y="13"/>
      <point x="50" y="163"/>
      <point x="50" y="377"/>
      <point x="201" y="528"/>
      <point x="308" y="528" type="qcurve"/>
      <point x="321" y="528"/>
      <point x="334" y="527" type="qcurve"/>
      <point x="334" y="374" type="line"/>
      <point x="321" y="377"/>
      <point x="308" y="377" type="qcurve"/>
      <point x="263" y="377"/>
      <point x="201" y="315"/>
      <point x="201" y="270" type="qcurve"/>
      <point x="201" y="226"/>
      <point x="263" y="164"/>
      <point x="308" y="164" type="qcurve"/>
      <point x="321" y="164"/>
      <point x="334" y="167" type="qcurve"/>
    </contour>
  </outline>
</glyph>
<glyph name="sterling" format="2">
  <advance width="864"/>
  <unicode hex="00A3"/>
  <outline>
    <contour>
      <point x="512" y="757" type="qcurve"/>
      <point x="512" y="589" type="line"/>
      <point x="481" y="615"/>
      <point x="441" y="615" type="qcurve"/>
      <point x="392" y="615"/>
      <point x="360" y="578" type="qcurve"/>
      <point x="360" y="516" type="line"/>
      <point x="457" y="516" type="line"/>
      <point x="457" y="364" type="line"/>
      <point x="360" y="364" type="line"/>
      <point x="360" y="171" type="line"/>
      <point x="626" y="171" type="line"/>
      <point x="664" y="203"/>
      <point x="664" y="253" type="qcurve"/>
      <point x="664" y="293"/>
      <point x="638" y="323" type="qcurve"/>
      <point x="806" y="323" type="line"/>
      <point x="814" y="289"/>
      <point x="814" y="253" type="qcurve"/>
      <point x="814" y="165"/>
      <point x="710" y="31"/>
      <point x="628" y="7" type="qcurve"/>
      <point x="360" y="6" type="line"/>
      <point x="360" y="2" type="line"/>
      <point x="193" y="2" type="line"/>
      <point x="193" y="5" type="line"/>
      <point x="50" y="5" type="line"/>
      <point x="50" y="171" type="line"/>
      <point x="194" y="171" type="line"/>
      <point x="195" y="364" type="line"/>
      <point x="98" y="364" type="line"/>
      <point x="98" y="516" type="line"/>
      <point x="196" y="516" type="line"/>
      <point x="196" y="579" type="line"/>
      <point x="220" y="662"/>
      <point x="354" y="766"/>
      <point x="441" y="766" type="qcurve"/>
      <point x="478" y="766"/>
    </contour>
  </outline>
</glyph>
<glyph name="yen" format="2">
  <advance width="612"/>
  <unicode hex="00A5"/>
  <outline>
    <contour>
      <point x="179" y="456" type="line"/>
      <point x="-20" y="770" type="line"/>
      <point x="132" y="770" type="line"/>
      <point x="256" y="599" type="line"/>
      <point x="380" y="770" type="line"/>
      <point x="532" y="770" type="line"/>
      <point x="332" y="455" type="line"/>
      <point x="331" y="455" type="line"/>
      <point x="331" y="401" type="line"/>
      <point x="530" y="401" type="line"/>
      <point x="530" y="339" type="line"/>
      <point x="331" y="339" type="line"/>
      <point x="331" y="263" type="line"/>
      <point x="530" y="263" type="line"/>
      <point x="530" y="201" type="line"/>
      <point x="331" y="201" type="line"/>
      <point x="331" y="6" type="line"/>
      <point x="179" y="6" type="line"/>
      <point x="179" y="201" type="line"/>
      <point x="-14" y="201" type="line"/>
      <point x="-14" y="263" type="line"/>
      <point x="179" y="263" type="line"/>
      <point x="179" y="339" type="line"/>
      <point x="-14" y="339" type="line"/>
      <point x="-14" y="401" type="line"/>
      <point x="179" y="401" type="line"/>
    </contour>
  </outline>
</glyph>
<glyph name="brokenbar" format="2">
  <advance width="252"/>
  <unicode hex="00A6"/>
  <outline>
    <contour>
      <point x="202" y="838" type="line"/>
      <point x="202" y="464" type="line"/>
      <point x="50" y="464" type="line"/>
      <point x="50" y="838" type="line"/>
    </contour>
    <contour>
      <point x="202" y="375" type="line"/>
      <point x="202" y="-25" type="line"/>
      <point x="50" y="-25" type="line"/>
      <point x="50" y="375" type="line"/>
    </contour>
  </outline>
</glyph>
<glyph name="section" format="2">
  <advance width="512"/>
  <unicode hex="00A7"/>
  <outline>
    <contour>
      <point x="-25" y="118" type="qcurve"/>
      <point x="50" y="243" type="line"/>
      <point x="62" y="233"/>
      <point x="72" y="228" type="qcurve"/>
      <point x="110" y="206"/>
      <point x="194" y="227"/>
      <point x="217" y="263" type="qcurve"/>
      <point x="239" y="302"/>
      <point x="190" y="369"/>
      <point x="147" y="376" type="qcurve"/>
      <point x="80" y="412"/>
      <point x="-1" y="506"/>
      <point x="-22" y="631"/>
      <point x="21" y="700" type="qcurve"/>
      <point x="73" y="787"/>
      <point x="279" y="838"/>
      <point x="373" y="788" type="qcurve"/>
      <point x="376" y="785"/>
      <point x="391" y="776"/>
      <point x="394" y="773" type="qcurve"/>
      <point x="319" y="648" type="line"/>
      <point x="307" y="658"/>
      <point x="297" y="663" type="qcurve"/>
      <point x="259" y="684"/>
      <point x="174" y="663"/>
      <point x="152" y="626" type="qcurve"/>
      <point x="127" y="585"/>
      <point x="168" y="487"/>
      <point x="216" y="479" type="qcurve"/>
      <point x="265" y="453"/>
      <point x="332" y="400"/>
      <point x="381" y="329"/>
      <point x="378" y="241"/>
      <point x="347" y="191" type="qcurve"/>
      <point x="295" y="103"/>
      <point x="90" y="52"/>
      <point x="-4" y="103" type="qcurve"/>
      <point x="-7" y="106"/>
      <point x="-22" y="115"/>
    </contour>
    <contour>
      <point x="55" y="467" type="qcurve"/>
      <point x="130" y="592" type="line"/>
      <point x="142" y="582"/>
      <point x="152" y="577" type="qcurve"/>
      <point x="190" y="555"/>
      <point x="274" y="576"/>
      <point x="297" y="612" type="qcurve"/>
      <point x="319" y="651"/>
      <point x="270" y="718"/>
      <point x="227" y="725" type="qcurve"/>
      <point x="160" y="761"/>
      <point x="79" y="855"/>
      <point x="58" y="980"/>
      <point x="101" y="1049" type="qcurve"/>
      <point x="153" y="1136"/>
      <point x="359" y="1187"/>
      <point x="453" y="1137" type="qcurve"/>
      <point x="456" y="1134"/>
      <point x="471" y="1125"/>
      <point x="474" y="1122" type="qcurve"/>
      <point x="399" y="997" type="line"/>
      <point x="387" y="1007"/>
      <point x="377" y="1012" type="qcurve"/>
      <point x="339" y="1033"/>
      <point x="254" y="1012"/>
      <point x="232" y="975" type="qcurve"/>
      <point x="207" y="934"/>
      <point x="248" y="836"/>
      <point x="296" y="828" type="qcurve"/>
      <point x="345" y="802"/>
      <point x="412" y="749"/>
      <point x="461" y="678"/>
      <point x="458" y="590"/>
      <point x="427" y="540" type="qcurve"/>
      <point x="375" y="452"/>
      <point x="170" y="401"/>
      <point x="76" y="452" type="qcurve"/>
      <point x="73" y="455"/>
      <point x="58" y="464"/>
    </contour>
  </outline>
</glyph>
<glyph name="copyright" format="2">
  <advance width="864"/>
  <unicode hex="00A9"/>
  <outline>
    <contour>
      <point x="492" y="206" type="line"/>
      <point x="484" y="205"/>
      <point x="476" y="205" type="qcurve"/>
      <point x="409" y="205"/>
      <point x="315" y="299"/>
      <point x="315" y="365" type="qcurve"/>
      <point x="315" y="432"/>
      <point x="409" y="527"/>
      <point x="476" y="527" type="qcurve"/>
      <point x="484" y="527"/>
      <point x="492" y="526" type="qcurve"/>
      <point x="492" y="430" type="line"/>
      <point x="484" y="432"/>
      <point x="476" y="432" type="qcurve"/>
      <point x="448" y="432"/>
      <point x="409" y="394"/>
      <point x="409" y="365" type="qcurve"/>
      <point x="409" y="338"/>
      <point x="448" y="299"/>
      <point x="476" y="299" type="qcurve"/>
      <point x="484" y="299"/>
      <point x="492" y="301" type="qcurve"/>
    </contour>
    <contour>
      <point x="779" y="390" type="qcurve"/>
      <point x="779" y="292"/>
      <point x="686" y="127"/>
      <point x="526" y="31"/>
      <point x="336" y="31"/>
      <point x="176" y="127"/>
      <point x="83" y="292"/>
      <point x="83" y="390" type="qcurve"/>
      <point x="83" y="487"/>
      <point x="176" y="652"/>
      <point x="336" y="748"/>
      <point x="526" y="748"/>
      <point x="686" y="652"/>
      <point x="779" y="487"/>
    </contour>
    <contour>
      <point x="724" y="388" type="qcurve"/>
      <point x="724" y="512"/>
      <point x="553" y="688"/>
      <point x="309" y="688"/>
      <point x="138" y="512"/>
      <point x="138" y="388" type="qcurve"/>
      <point x="138" y="263"/>
      <point x="309" y="87"/>
      <point x="553" y="87"/>
      <point x="724" y="263"/>
    </contour>
  </outline>
</glyph>
<glyph name="guillemotleft" format="2">
  <advance width="1244"/>
  <unicode hex="00AB"/>
  <outline>
    <contour>
      <point x="594" y="668" type="line"/>
      <point x="594" y="516" type="line"/>
      <point x="188" y="343" type="line"/>
      <point x="594" y="163" type="line"/>
      <point x="594" y="11" type="line"/>
      <point x="50" y="255" type="line"/>
      <point x="50" y="256" type="line"/>
      <point x="50" y="407" type="line"/>
      <point x="50" y="408" type="line"/>
    </contour>
    <contour>
      <point x="1194" y="668" type="line"/>
      <point x="1194" y="516" type="line"/>
      <point x="788" y="343" type="line"/>
      <point x="1194" y="163" type="line"/>
      <point x="1194" y="11" type="line"/>
      <point x="650" y="255" type="line"/>
      <point x="650" y="256" type="line"/>
      <point x="650" y="407" type="line"/>
      <point x="650" y="408" type="line"/>
    </contour>
  </outline>
</glyph>
<glyph name="logicalnot" format="2">
  <advance width="1000"/>
  <unicode hex="00AC"/>
  <outline>
    <contour>
      <point x="185" y="531" type="line"/>
      <point x="697" y="531" type="line"/>
      <point x="697" y="233" type="line"/>
      <point x="565" y="233" type="line"/>
      <point x="565" y="396" type="line"/>
      <point x="185" y="396" type="line"/>
    </contour>
  </outline>
</glyph>
<glyph name="registered" format="2">
  <advance width="864"/>
  <unicode hex="00AE"/>
  <outline>
    <contour>
      <point x="394" y="483" type="qcurve"/>
      <point x="394" y="407" type="line"/>
      <point x="399" y="406"/>
      <point x="403" y="406" type="qcurve"/>
      <point x="419" y="406"/>
      <point x="442" y="429"/>
      <point x="442" y="445" type="qcurve"/>
      <point x="442" y="461"/>
      <point x="419" y="484"/>
      <point x="403" y="484" type="qcurve"/>
      <point x="399" y="484"/>
    </contour>
    <contour>
      <point x="394" y="256" type="line"/>
      <point x="339" y="256" type="line"/>
      <point x="339" y="538" type="line"/>
      <point x="394" y="538" type="line"/>
      <point x="397" y="539"/>
      <point x="403" y="539" type="qcurve"/>
      <point x="442" y="539"/>
      <point x="497" y="484"/>
      <point x="497" y="445" type="qcurve"/>
      <point x="497" y="415"/>
      <point x="462" y="366"/>
      <point x="435" y="357" type="qcurve"/>
      <point x="507" y="253" type="line"/>
      <point x="456" y="253" type="line"/>
      <point x="396" y="351" type="line"/>
      <point x="395" y="351"/>
      <point x="394" y="351" type="qcurve"/>
    </contour>
    <contour>
      <point x="709" y="390" type="qcurve"/>
      <point x="709" y="271"/>
      <point x="546" y="103"/>
      <point x="316" y="103"/>
      <point x="153" y="271"/>
      <point x="153" y="390" type="qcurve"/>
      <point x="153" y="509"/>
      <point x="316" y="676"/>
      <point x="546" y="676"/>
      <point x="709" y="509"/>
    </contour>
    <contour>
      <point x="666" y="389" type="qcurve"/>
      <point x="666" y="488"/>
      <point x="529" y="628"/>
      <point x="333" y="628"/>
      <point x="196" y="488"/>
      <point x="196" y="389" type="qcurve"/>
      <point x="196" y="289"/>
      <point x="333" y="148"/>
      <point x="529" y="148"/>
      <point x="666" y="289"/>
    </contour>
  </outline>
</glyph>
<glyph name="plusminus" format="2">
  <advance width="644"/>
  <unicode hex="00B1"/>
  <outline>
    <contour>
      <point x="246" y="697" type="line"/>
      <point x="398" y="697" type="line"/>
      <point x="398" y="501" type="line"/>
      <point x="594" y="501" type="line"/>
      <point x="594" y="349" type="line"/>
      <point x="398" y="349" type="line"/>
      <point x="398" y="154" type="line"/>
      <point x="246" y="154" type="line"/>
      <point x="246" y="349" type="line"/>
      <point x="50" y="349" type="line"/>
      <point x="50" y="501" type="line"/>
      <point x="246" y="501" type="line"/>
    </contour>
    <contour>
      <point x="594" y="127" type="line"/>
      <point x="594" y="-25" type="line"/>
      <point x="50" y="-25" type="line"/>
      <point x="50" y="127" type="line"/>
    </contour>
  </outline>
</glyph>
<glyph name="mu" format="2">
  <advance width="598"/>
  <unicode hex="00B5"/>
  <outline>
    <contour>
      <point x="51" y="-179" type="line"/>
      <point x="51" y="534" type="line"/>
      <point x="220" y="534" type="line"/>
      <point x="220" y="202" type="line"/>
      <point x="252" y="167"/>
      <point x="300" y="167" type="qcurve"/>
      <point x="349" y="167"/>
      <point x="381" y="204" type="qcurve"/>
      <point x="381" y="534" type="line"/>
      <point x="548" y="534" type="line"/>
      <point x="545" y="203" type="line"/>
      <point x="521" y="120"/>
      <point x="387" y="16"/>
      <point x="300" y="16" type="qcurve"/>
      <point x="259" y="16"/>
      <point x="220" y="28" type="qcurve"/>
      <point x="220" y="-179" type="line"/>
    </contour>
  </outline>
</glyph>
<glyph name="paragraph" format="2">
  <advance width="752"/>
  <unicode hex="00B6"/>
  <outline>
    <contour>
      <point x="332" y="8" type="line"/>
      <point x="332" y="271" type="line"/>
      <point x="324" y="270"/>
      <point x="308" y="270" type="qcurve"/>
      <point x="201" y="270"/>
      <point x="50" y="421"/>
      <point x="50" y="635"/>
      <point x="201" y="785"/>
      <point x="308" y="785" type="qcurve"/>
      <point x="324" y="785"/>
      <point x="332" y="784" type="qcurve"/>
      <point x="484" y="784" type="line"/>
      <point x="484" y="8" type="line"/>
    </contour>
    <contour>
      <point x="550" y="779" type="line"/>
      <point x="702" y="779" type="line"/>
      <point x="702" y="3" type="line"/>
      <point x="550" y="3" type="line"/>
    </contour>
  </outline>
</glyph>
<glyph name="periodcentered" format="2">
  <advance width="252"/>
  <unicode hex="00B7"/>
  <outline>
    <contour>
      <point x="50" y="408" type="line"/>
      <point x="50" y="550" type="line"/>
      <point x="202" y="550" type="line"/>
      <point x="202" y="408" type="line"/>
    </contour>
  </outline>
</glyph>
<glyph name="questiondown" format="2">
  <advance width="384"/>
  <unicode hex="00BF"/>
  <outline>
    <contour>
      <point x="334" y="4" type="line"/>
      <point x="325" y="3"/>
      <point x="308" y="3" type="qcurve"/>
      <point x="201" y="3"/>
      <point x="50" y="153"/>
      <point x="50" y="260" type="qcurve"/>
      <point x="50" y="332"/>
      <point x="122" y="452"/>
      <point x="182" y="485" type="qcurve"/>
      <point x="182" y="602" type="line"/>
      <point x="334" y="602" type="line"/>
      <point x="334" y="517" type="line"/>
      <point x="334" y="392" type="line"/>
      <point x="334" y="364" type="line"/>
      <point x="322" y="367"/>
      <point x="308" y="367" type="qcurve"/>
      <point x="263" y="367"/>
      <point x="201" y="305"/>
      <point x="201" y="260" type="qcurve"/>
      <point x="201" y="216"/>
      <point x="263" y="154"/>
      <point x="308" y="154" type="qcurve"/>
      <point x="322" y="154"/>
      <point x="334" y="157" type="qcurve"/>
    </contour>
    <contour>
      <point x="334" y="834" type="line"/>
      <point x="334" y="692" type="line"/>
      <point x="182" y="692" type="line"/>
      <point x="182" y="834" type="line"/>
    </contour>
  </outline>
</glyph>
<glyph name="AE" format="2">
  <advance width="1024"/>
  <unicode hex="00C6"/>
  <outline>
    <contour>
      <point x="865" y="490" type="line"/>
      <point x="866" y="338" type="line"/>
      <point x="558" y="338" type="line"/>
      <point x="558" y="154" type="line"/>
      <point x="973" y="154" type="line"/>
      <point x="974" y="2" type="line"/>
      <point x="407" y="2" type="line"/>
      <point x="407" y="3" type="line"/>
      <point x="406" y="3" type="line"/>
      <point x="406" y="232" type="line"/>
      <point x="261" y="232" type="line"/>
      <point x="202" y="5" type="line"/>
      <point x="50" y="5" type="line"/>
      <point x="250" y="783" type="line"/>
      <point x="973" y="783" type="line"/>
      <point x="974" y="631" type="line"/>
      <point x="558" y="631" type="line"/>
      <point x="558" y="490" type="line"/>
    </contour>
    <contour>
      <point x="407" y="372" type="line"/>
      <point x="341" y="540" type="line"/>
      <point x="297" y="372" type="line"/>
    </contour>
  </outline>
</glyph>
<glyph name="Eth" format="2">
  <advance width="690"/>
  <unicode hex="00D0"/>
  <outline>
    <contour>
      <point x="262" y="153" type="line"/>
      <point x="356" y="155"/>
      <point x="487" y="292"/>
      <point x="487" y="388" type="qcurve"/>
      <point x="487" y="484"/>
      <point x="356" y="620"/>
      <point x="262" y="622" type="qcurve"/>
      <point x="262" y="506" type="line"/>
      <point x="321" y="506" type="line"/>
      <point x="321" y="354" type="line"/>
      <point x="262" y="354" type="line"/>
    </contour>
    <contour>
      <point x="110" y="778" type="line"/>
      <point x="125" y="773"/>
      <point x="243" y="783"/>
      <point x="258" y="783" type="qcurve"/>
      <point x="416" y="783"/>
      <point x="640" y="553"/>
      <point x="640" y="390" type="qcurve"/>
      <point x="640" y="283"/>
      <point x="539" y="103"/>
      <point x="365" y="-3"/>
      <point x="262" y="-4" type="qcurve"/>
      <point x="110" y="-4" type="line"/>
      <point x="110" y="354" type="line"/>
      <point x="50" y="354" type="line"/>
      <point x="50" y="506" type="line"/>
      <point x="110" y="506" type="line"/>
    </contour>
  </outline>
</glyph>
<glyph name="multiply" format="2">
  <advance width="724"/>
  <unicode hex="00D7"/>
  <outline>
    <contour>
      <point x="50" y="718" type="line"/>
      <point x="236" y="716" type="line"/>
      <point x="365" y="565" type="line"/>
      <point x="498" y="717" type="line"/>
      <point x="673" y="716" type="line"/>
      <point x="453" y="463" type="line"/>
      <point x="674" y="205" type="line"/>
      <point x="499" y="203" type="line"/>
      <point x="362" y="360" type="line"/>
      <point x="229" y="207" type="line"/>
      <point x="51" y="204" type="line"/>
      <point x="274" y="461" type="line"/>
    </contour>
  </outline>
</glyph>
<glyph name="Oslash" format="2">
  <advance width="864"/>
  <unicode hex="00D8"/>
  <outline>
    <contour>
      <point x="599" y="543" type="qcurve"/>
      <point x="375" y="155" type="line"/>
      <point x="403" y="148"/>
      <point x="432" y="148" type="qcurve"/>
      <point x="527" y="148"/>
      <point x="661" y="285"/>
      <point x="661" y="383" type="qcurve"/>
      <point x="661" y="476"/>
    </contour>
    <contour>
      <point x="495" y="608" type="line"/>
      <point x="464" y="617"/>
      <point x="432" y="617" type="qcurve"/>
      <point x="337" y="617"/>
      <point x="203" y="480"/>
      <point x="203" y="286"/>
      <point x="269" y="217" type="qcurve"/>
    </contour>
    <contour>
      <point x="814" y="385" type="qcurve"/>
      <point x="814" y="222"/>
      <point x="590" y="-9"/>
      <point x="432" y="-9" type="qcurve"/>
      <point x="361" y="-9"/>
      <point x="295" y="17" type="qcurve"/>
      <point x="240" y="-78" type="line"/>
      <point x="134" y="-17" type="line"/>
      <point x="190" y="80" type="line"/>
      <point x="125" y="135"/>
      <point x="50" y="294"/>
      <point x="50" y="385" type="qcurve"/>
      <point x="50" y="548"/>
      <point x="274" y="778"/>
      <point x="432" y="778" type="qcurve"/>
      <point x="507" y="778"/>
      <point x="576" y="749" type="qcurve"/>
      <point x="619" y="823" type="line"/>
      <point x="725" y="762" type="line"/>
      <point x="680" y="684" type="line"/>
      <point x="743" y="629"/>
      <point x="814" y="473"/>
    </contour>
  </outline>
</glyph>
<glyph name="Thorn" format="2">
  <advance width="512"/>
  <unicode hex="00DE"/>
  <outline>
    <contour>
      <point x="202" y="13" type="line"/>
      <point x="50" y="13" type="line"/>
      <point x="50" y="913" type="line"/>
      <point x="197" y="913" type="line"/>
      <point x="202" y="724" type="line"/>
      <point x="210" y="725"/>
      <point x="226" y="725" type="qcurve"/>
      <point x="333" y="725"/>
      <point x="484" y="575"/>
      <point x="484" y="361"/>
      <point x="333" y="210"/>
      <point x="226" y="210" type="qcurve"/>
      <point x="210" y="210"/>
      <point x="202" y="211" type="qcurve"/>
    </contour>
    <contour>
      <point x="202" y="571" type="qcurve"/>
      <point x="202" y="364" type="line"/>
      <point x="214" y="361"/>
      <point x="226" y="361" type="qcurve"/>
      <point x="271" y="361"/>
      <point x="333" y="423"/>
      <point x="333" y="468" type="qcurve"/>
      <point x="333" y="512"/>
      <point x="271" y="574"/>
      <point x="226" y="574" type="qcurve"/>
      <point x="214" y="574"/>
    </contour>
  </outline>
</glyph>
<glyph name="germandbls" format="2">
  <advance width="836"/>
  <unicode hex="00DF"/>
  <outline>
    <contour>
      <point x="283" y="52" type="qcurve"/>
      <point x="350" y="164" type="line"/>
      <point x="357" y="157"/>
      <point x="372" y="152" type="qcurve"/>
      <point x="412" y="135"/>
      <point x="475" y="143"/>
      <point x="495" y="167" type="qcurve"/>
      <point x="518" y="194"/>
      <point x="473" y="206" type="qcurve"/>
      <point x="461" y="209"/>
      <point x="419" y="216" type="qcurve"/>
      <point x="353" y="242"/>
      <point x="273" y="311"/>
      <point x="257" y="395"/>
      <point x="295" y="439" type="qcurve"/>
      <point x="303" y="449"/>
      <point x="337" y="493"/>
      <point x="355" y="514"/>
      <point x="388" y="547"/>
      <point x="416" y="560"/>
      <point x="455" y="571"/>
      <point x="500" y="564"/>
      <point x="526" y="554" type="qcurve"/>
      <point x="527" y="554"/>
      <point x="528" y="554" type="qcurve"/>
      <point x="573" y="554"/>
      <point x="635" y="616"/>
      <point x="635" y="661" type="qcurve"/>
      <point x="635" y="691"/>
      <point x="444" y="723"/>
      <point x="238" y="712"/>
      <point x="217" y="688" type="qcurve"/>
      <point x="217" y="7" type="line"/>
      <point x="50" y="7" type="line"/>
      <point x="53" y="689" type="line"/>
      <point x="77" y="772"/>
      <point x="144" y="824" type="qcurve"/>
      <point x="185" y="856"/>
      <point x="343" y="881"/>
      <point x="519" y="861"/>
      <point x="680" y="812"/>
      <point x="786" y="718"/>
      <point x="786" y="661" type="qcurve"/>
      <point x="786" y="584"/>
      <point x="763" y="490"/>
      <point x="723" y="452"/>
      <point x="673" y="442"/>
      <point x="612" y="449"/>
      <point x="554" y="453"/>
      <point x="492" y="432"/>
      <point x="470" y="405" type="qcurve"/>
      <point x="454" y="387"/>
      <point x="445" y="333"/>
      <point x="471" y="285"/>
      <point x="501" y="280" type="qcurve"/>
      <point x="540" y="263"/>
      <point x="598" y="234"/>
      <point x="651" y="194"/>
      <point x="674" y="155"/>
      <point x="669" y="106"/>
      <point x="647" y="80" type="qcurve"/>
      <point x="600" y="23"/>
      <point x="400" y="-2"/>
      <point x="305" y="39" type="qcurve"/>
      <point x="297" y="41"/>
    </contour>
  </outline>
</glyph>
<glyph name="ae" format="2">
  <advance width="905"/>
  <unicode hex="00E6"/>
  <outline>
    <contour>
      <point x="854" y="265" type="qcurve"/>
      <point x="854" y="255"/>
      <point x="855" y="220"/>
      <point x="855" y="213" type="qcurve"/>
      <point x="508" y="210" type="line"/>
      <point x="539" y="159"/>
      <point x="596" y="159" type="qcurve"/>
      <point x="630" y="159"/>
      <point x="837" y="164"/>
      <point x="845" y="167" type="qcurve"/>
      <point x="845" y="11" type="line"/>
      <point x="826" y="8"/>
      <point x="596" y="8" type="qcurve"/>
      <point x="549" y="8"/>
      <point x="505" y="24" type="qcurve"/>
      <point x="332" y="6" type="line"/>
      <point x="332" y="14" type="line"/>
      <point x="324" y="13"/>
      <point x="308" y="13" type="qcurve"/>
      <point x="201" y="13"/>
      <point x="50" y="164"/>
      <point x="50" y="271" type="qcurve"/>
      <point x="50" y="377"/>
      <point x="200" y="520"/>
      <point x="308" y="520" type="qcurve"/>
      <point x="324" y="520"/>
      <point x="332" y="519" type="qcurve"/>
      <point x="505" y="519" type="line"/>
      <point x="596" y="523" type="line"/>
      <point x="703" y="523"/>
      <point x="854" y="372"/>
    </contour>
    <contour>
      <point x="332" y="374" type="line"/>
      <point x="320" y="377"/>
      <point x="308" y="377" type="qcurve"/>
      <point x="263" y="377"/>
      <point x="201" y="315"/>
      <point x="201" y="271" type="qcurve"/>
      <point x="201" y="226"/>
      <point x="263" y="164"/>
      <point x="308" y="164" type="qcurve"/>
      <point x="320" y="164"/>
      <point x="332" y="167" type="qcurve"/>
    </contour>
    <contour>
      <point x="503" y="302" type="qcurve"/>
      <point x="695" y="299" type="line"/>
      <point x="691" y="303"/>
      <point x="659" y="341"/>
      <point x="641" y="360"/>
      <point x="610" y="380"/>
      <point x="596" y="380" type="qcurve"/>
      <point x="578" y="380"/>
      <point x="547" y="356"/>
      <point x="506" y="305"/>
    </contour>
  </outline>
</glyph>
<glyph name="eth" format="2">
  <advance width="612"/>
  <unicode hex="00F0"/>
  <outline>
    <contour>
      <point x="310" y="377" type="qcurve"/>
      <point x="297" y="377"/>
      <point x="286" y="374" type="qcurve"/>
      <point x="286" y="375" type="line"/>
      <point x="249" y="367"/>
      <point x="201" y="309"/>
      <point x="201" y="270" type="qcurve"/>
      <point x="201" y="232"/>
      <point x="249" y="174"/>
      <point x="286" y="166" type="qcurve"/>
      <point x="286" y="167" type="line"/>
      <point x="297" y="164"/>
      <point x="310" y="164" type="qcurve"/>
      <point x="322" y="164"/>
      <point x="334" y="167" type="qcurve"/>
      <point x="334" y="166" type="line"/>
      <point x="371" y="174"/>
      <point x="419" y="232"/>
      <point x="419" y="270" type="qcurve"/>
      <point x="419" y="309"/>
      <point x="371" y="367"/>
      <point x="334" y="375" type="qcurve"/>
      <point x="334" y="374" type="line"/>
      <point x="322" y="377"/>
    </contour>
    <contour>
      <point x="135" y="790" type="line"/>
      <point x="287" y="790" type="line"/>
      <point x="295" y="783"/>
      <point x="302" y="777" type="qcurve"/>
      <point x="340" y="815" type="line"/>
      <point x="427" y="739" type="line"/>
      <point x="387" y="699" type="line"/>
      <point x="434" y="651"/>
      <point x="502" y="558"/>
      <point x="556" y="428"/>
      <point x="567" y="291"/>
      <point x="531" y="112"/>
      <point x="484" y="14" type="qcurve"/>
      <point x="332" y="14" type="line"/>
      <point x="320" y="13"/>
      <point x="308" y="13" type="qcurve"/>
      <point x="201" y="13"/>
      <point x="50" y="163"/>
      <point x="50" y="377"/>
      <point x="201" y="528"/>
      <point x="308" y="528" type="qcurve"/>
      <point x="320" y="528"/>
      <point x="332" y="527" type="qcurve"/>
      <point x="282" y="594" type="line"/>
      <point x="245" y="557" type="line"/>
      <point x="158" y="633" type="line"/>
      <point x="212" y="687" type="line"/>
    </contour>
  </outline>
</glyph>
<glyph name="divide" format="2">
  <advance width="644"/>
  <unicode hex="00F7"/>
  <outline>
    <contour>
      <point x="250" y="156" type="line"/>
      <point x="250" y="298" type="line"/>
      <point x="402" y="298" type="line"/>
      <point x="402" y="156" type="line"/>
    </contour>
    <contour>
      <point x="250" y="556" type="line"/>
      <point x="250" y="698" type="line"/>
      <point x="402" y="698" type="line"/>
      <point x="402" y="556" type="line"/>
    </contour>
    <contour>
      <point x="594" y="501" type="line"/>
      <point x="594" y="349" type="line"/>
      <point x="50" y="349" type="line"/>
      <point x="50" y="501" type="line"/>
    </contour>
  </outline>
</glyph>
<glyph name="oslash" format="2">
  <advance width="620"/>
  <unicode hex="00F8"/>
  <outline>
    <contour>
      <point x="324" y="160" type="line"/>
      <point x="329" y="161"/>
      <point x="334" y="162" type="qcurve"/>
      <point x="334" y="161" type="line"/>
      <point x="371" y="169"/>
      <point x="419" y="227"/>
      <point x="419" y="265" type="qcurve"/>
      <point x="419" y="287"/>
      <point x="410" y="308" type="qcurve"/>
    </contour>
    <contour>
      <point x="306" y="372" type="line"/>
      <point x="295" y="371"/>
      <point x="286" y="369" type="qcurve"/>
      <point x="286" y="370" type="line"/>
      <point x="249" y="362"/>
      <point x="201" y="304"/>
      <point x="201" y="265" type="qcurve"/>
      <point x="201" y="238"/>
      <point x="214" y="214" type="qcurve"/>
    </contour>
    <contour>
      <point x="50" y="265" type="qcurve"/>
      <point x="50" y="372"/>
      <point x="199" y="523"/>
      <point x="308" y="523" type="qcurve"/>
      <point x="309" y="523" type="line"/>
      <point x="310" y="523"/>
      <point x="312" y="523" type="qcurve"/>
      <point x="351" y="523"/>
      <point x="388" y="512" type="qcurve"/>
      <point x="458" y="630" type="line"/>
      <point x="564" y="569" type="line"/>
      <point x="493" y="449" type="line"/>
      <point x="570" y="373"/>
      <point x="570" y="265" type="qcurve"/>
      <point x="570" y="158"/>
      <point x="419" y="8"/>
      <point x="312" y="8" type="qcurve"/>
      <point x="311" y="8"/>
      <point x="310" y="8" type="qcurve" smooth="yes"/>
      <point x="309" y="8" type="line"/>
      <point x="308" y="8" type="line"/>
      <point x="273" y="8"/>
      <point x="240" y="17" type="qcurve"/>
      <point x="184" y="-78" type="line"/>
      <point x="78" y="-17" type="line"/>
      <point x="133" y="76" type="line"/>
      <point x="94" y="112"/>
      <point x="50" y="210"/>
    </contour>
  </outline>
</glyph>
<glyph name="thorn" format="2">
  <advance width="512"/>
  <unicode hex="00FE"/>
  <outline>
    <contour>
      <point x="202" y="-189" type="line"/>
      <point x="50" y="-189" type="line"/>
      <point x="50" y="711" type="line"/>
      <point x="197" y="711" type="line"/>
      <point x="202" y="522" type="line"/>
      <point x="210" y="523"/>
      <point x="226" y="523" type="qcurve"/>
      <point x="333" y="523"/>
      <point x="484" y="373"/>
      <point x="484" y="159"/>
      <point x="333" y="8"/>
      <point x="226" y="8" type="qcurve"/>
      <point x="210" y="8"/>
      <point x="202" y="9" type="qcurve"/>
    </contour>
    <contour>
      <point x="202" y="369" type="qcurve"/>
      <point x="202" y="162" type="line"/>
      <point x="214" y="159"/>
      <point x="226" y="159" type="qcurve"/>
      <point x="271" y="159"/>
      <point x="333" y="221"/>
      <point x="333" y="266" type="qcurve"/>
      <point x="333" y="310"/>
      <point x="271" y="372"/>
      <point x="226" y="372" type="qcurve"/>
      <point x="214" y="372"/>
    </contour>
  </outline>
</glyph>
<glyph name="dcaron" format="2">
  <advance width="718"/>
  <unicode hex="010F"/>
  <outline>
    <contour>
      <point x="332" y="162" type="qcurve"/>
      <point x="332" y="369" type="line"/>
      <point x="320" y="372"/>
      <point x="308" y="372" type="qcurve"/>
      <point x="263" y="372"/>
      <point x="201" y="310"/>
      <point x="201" y="265" type="qcurve"/>
      <point x="201" y="221"/>
      <point x="263" y="159"/>
      <point x="308" y="159" type="qcurve"/>
      <point x="320" y="159"/>
    </contour>
    <contour>
      <point x="332" y="785" type="line"/>
      <point x="484" y="785" type="line"/>
      <point x="484" y="9" type="line"/>
      <point x="332" y="9" type="line"/>
      <point x="320" y="8"/>
      <point x="308" y="8" type="qcurve"/>
      <point x="201" y="8"/>
      <point x="50" y="158"/>
      <point x="50" y="372"/>
      <point x="201" y="523"/>
      <point x="308" y="523" type="qcurve"/>
      <point x="320" y="523"/>
      <point x="332" y="522" type="qcurve"/>
    </contour>
    <contour>
      <point x="516" y="537" type="line"/>
      <point x="516" y="794" type="line"/>
      <point x="668" y="794" type="line"/>
      <point x="623" y="537" type="line"/>
    </contour>
  </outline>
</glyph>
<glyph name="dcroat" format="2">
  <advance width="585"/>
  <unicode hex="0111"/>
  <outline>
    <contour>
      <point x="332" y="162" type="qcurve"/>
      <point x="332" y="369" type="line"/>
      <point x="320" y="372"/>
      <point x="308" y="372" type="qcurve"/>
      <point x="263" y="372"/>
      <point x="201" y="310"/>
      <point x="201" y="265" type="qcurve"/>
      <point x="201" y="221"/>
      <point x="263" y="159"/>
      <point x="308" y="159" type="qcurve"/>
      <point x="320" y="159"/>
    </contour>
    <contour>
      <point x="332" y="785" type="line"/>
      <point x="484" y="785" type="line"/>
      <point x="484" y="744" type="line"/>
      <point x="535" y="744" type="line"/>
      <point x="535" y="592" type="line"/>
      <point x="484" y="592" type="line"/>
      <point x="484" y="9" type="line"/>
      <point x="332" y="9" type="line"/>
      <point x="320" y="8"/>
      <point x="308" y="8" type="qcurve"/>
      <point x="201" y="8"/>
      <point x="50" y="158"/>
      <point x="50" y="372"/>
      <point x="201" y="523"/>
      <point x="308" y="523" type="qcurve"/>
      <point x="320" y="523"/>
      <point x="332" y="522" type="qcurve"/>
      <point x="332" y="592" type="line"/>
      <point x="264" y="592" type="line"/>
      <point x="264" y="744" type="line"/>
      <point x="332" y="744" type="line"/>
    </contour>
  </outline>
</glyph>
<glyph name="Hbar" format="2">
  <advance width="747"/>
  <unicode hex="0126"/>
  <outline>
    <contour>
      <point x="252" y="566" type="line"/>
      <point x="252" y="490" type="line"/>
      <point x="500" y="490" type="line"/>
      <point x="500" y="566" type="line"/>
    </contour>
    <contour>
      <point x="500" y="779" type="line"/>
      <point x="652" y="779" type="line"/>
      <point x="652" y="718" type="line"/>
      <point x="697" y="718" type="line"/>
      <point x="697" y="566" type="line"/>
      <point x="652" y="566" type="line"/>
      <point x="652" y="3" type="line"/>
      <point x="500" y="3" type="line"/>
      <point x="500" y="338" type="line"/>
      <point x="252" y="338" type="line"/>
      <point x="252" y="3" type="line"/>
      <point x="100" y="3" type="line"/>
      <point x="100" y="566" type="line"/>
      <point x="50" y="566" type="line"/>
      <point x="50" y="718" type="line"/>
      <point x="100" y="718" type="line"/>
      <point x="100" y="779" type="line"/>
      <point x="252" y="779" type="line"/>
      <point x="252" y="718" type="line"/>
      <point x="500" y="718" type="line"/>
    </contour>
  </outline>
</glyph>
<glyph name="hbar" format="2">
  <advance width="658"/>
  <unicode hex="0127"/>
  <outline>
    <contour>
      <point x="111" y="778" type="line"/>
      <point x="280" y="778" type="line"/>
      <point x="280" y="522" type="line"/>
      <point x="319" y="534"/>
      <point x="360" y="534" type="qcurve"/>
      <point x="447" y="534"/>
      <point x="581" y="430"/>
      <point x="605" y="347" type="qcurve"/>
      <point x="608" y="16" type="line"/>
      <point x="441" y="16" type="line"/>
      <point x="441" y="346" type="line"/>
      <point x="409" y="383"/>
      <point x="360" y="383" type="qcurve"/>
      <point x="312" y="383"/>
      <point x="280" y="348" type="qcurve"/>
      <point x="280" y="16" type="line"/>
      <point x="111" y="16" type="line"/>
    </contour>
    <contour>
      <point x="338" y="741" type="line"/>
      <point x="338" y="589" type="line"/>
      <point x="50" y="589" type="line"/>
      <point x="50" y="741" type="line"/>
    </contour>
  </outline>
</glyph>
<glyph name="Lcaron" format="2">
  <advance width="718"/>
  <unicode hex="013D"/>
  <outline>
    <contour>
      <point x="50" y="779" type="line"/>
      <point x="202" y="779" type="line"/>
      <point x="202" y="154" type="line"/>
      <point x="667" y="154" type="line"/>
      <point x="668" y="2" type="line"/>
      <point x="51" y="2" type="line"/>
      <point x="51" y="3" type="line"/>
      <point x="50" y="3" type="line"/>
    </contour>
    <contour>
      <point x="252" y="525" type="line"/>
      <point x="252" y="782" type="line"/>
      <point x="404" y="782" type="line"/>
      <point x="359" y="525" type="line"/>
    </contour>
  </outline>
</glyph>
<glyph name="lcaron" format="2">
  <advance width="419"/>
  <unicode hex="013E"/>
  <outline>
    <contour>
      <point x="260" y="514" type="line"/>
      <point x="260" y="771" type="line"/>
      <point x="412" y="771" type="line"/>
      <point x="367" y="514" type="line"/>
    </contour>
    <contour>
      <point x="369" y="16" type="line"/>
      <point x="335" y="7"/>
      <point x="298" y="7" type="qcurve"/>
      <point x="211" y="7"/>
      <point x="77" y="111"/>
      <point x="53" y="194" type="qcurve"/>
      <point x="50" y="771" type="line"/>
      <point x="217" y="771" type="line"/>
      <point x="217" y="195" type="line"/>
      <point x="249" y="158"/>
      <point x="298" y="158" type="qcurve"/>
      <point x="338" y="158"/>
      <point x="369" y="184" type="qcurve"/>
    </contour>
  </outline>
</glyph>
<glyph name="Lslash" format="2">
  <advance width="869"/>
  <unicode hex="0141"/>
  <outline>
    <contour>
      <point x="50" y="499" type="line"/>
      <point x="507" y="635" type="line"/>
      <point x="508" y="483" type="line"/>
      <point x="50" y="347" type="line"/>
    </contour>
    <contour>
      <point x="201" y="779" type="line"/>
      <point x="353" y="779" type="line"/>
      <point x="353" y="154" type="line"/>
      <point x="818" y="154" type="line"/>
      <point x="819" y="2" type="line"/>
      <point x="202" y="2" type="line"/>
      <point x="202" y="3" type="line"/>
      <point x="201" y="3" type="line"/>
    </contour>
  </outline>
</glyph>
<glyph name="lslash" format="2">
  <advance width="419"/>
  <unicode hex="0142"/>
  <outline>
    <contour>
      <point x="369" y="16" type="line"/>
      <point x="335" y="7"/>
      <point x="298" y="7" type="qcurve"/>
      <point x="211" y="7"/>
      <point x="77" y="111"/>
      <point x="53" y="194" type="qcurve"/>
      <point x="50" y="771" type="line"/>
      <point x="217" y="771" type="line"/>
      <point x="217" y="195" type="line"/>
      <point x="249" y="158"/>
      <point x="298" y="158" type="qcurve"/>
      <point x="338" y="158"/>
      <point x="369" y="184" type="qcurve"/>
    </contour>
  </outline>
</glyph>
<glyph name="OE" format="2">
  <advance width="1068"/>
  <unicode hex="0152"/>
  <outline>
    <contour>
      <point x="432" y="617" type="qcurve"/>
      <point x="337" y="617"/>
      <point x="203" y="480"/>
      <point x="203" y="383" type="qcurve"/>
      <point x="203" y="285"/>
      <point x="337" y="148"/>
      <point x="432" y="148" type="qcurve"/>
      <point x="441" y="148"/>
      <point x="450" y="149" type="qcurve"/>
      <point x="450" y="616" type="line"/>
      <point x="441" y="617"/>
    </contour>
    <contour>
      <point x="909" y="490" type="line"/>
      <point x="910" y="338" type="line"/>
      <point x="602" y="338" type="line"/>
      <point x="602" y="154" type="line"/>
      <point x="1017" y="154" type="line"/>
      <point x="1018" y="2" type="line"/>
      <point x="505" y="2" type="line"/>
      <point x="505" y="-2" type="line"/>
      <point x="469" y="-9"/>
      <point x="432" y="-9" type="qcurve"/>
      <point x="274" y="-9"/>
      <point x="50" y="222"/>
      <point x="50" y="548"/>
      <point x="274" y="778"/>
      <point x="432" y="778" type="qcurve"/>
      <point x="441" y="778"/>
      <point x="450" y="778" type="qcurve"/>
      <point x="450" y="779" type="line"/>
      <point x="450" y="783" type="line"/>
      <point x="1017" y="783" type="line"/>
      <point x="1018" y="631" type="line"/>
      <point x="602" y="631" type="line"/>
      <point x="602" y="490" type="line"/>
    </contour>
  </outline>
</glyph>
<glyph name="oe" format="2">
  <advance width="999"/>
  <unicode hex="0153"/>
  <outline>
    <contour>
      <point x="309" y="8" type="line"/>
      <point x="308" y="8" type="line"/>
      <point x="306" y="8"/>
      <point x="304" y="8" type="qcurve"/>
      <point x="296" y="8"/>
      <point x="290" y="9" type="qcurve"/>
      <point x="189" y="15"/>
      <point x="50" y="163"/>
      <point x="50" y="265" type="qcurve"/>
      <point x="50" y="367"/>
      <point x="189" y="516"/>
      <point x="290" y="522" type="qcurve"/>
      <point x="296" y="523"/>
      <point x="304" y="523" type="qcurve"/>
      <point x="306" y="523"/>
      <point x="308" y="523" type="qcurve"/>
      <point x="309" y="523" type="line"/>
      <point x="310" y="523"/>
      <point x="312" y="523" type="qcurve"/>
      <point x="425" y="523"/>
      <point x="501" y="441" type="qcurve"/>
      <point x="577" y="523"/>
      <point x="690" y="523" type="qcurve"/>
      <point x="797" y="523"/>
      <point x="948" y="372"/>
      <point x="948" y="265" type="qcurve"/>
      <point x="948" y="255"/>
      <point x="949" y="220"/>
      <point x="949" y="213" type="qcurve"/>
      <point x="598" y="210" type="line"/>
      <point x="612" y="187"/>
      <point x="661" y="159"/>
      <point x="690" y="159" type="qcurve"/>
      <point x="724" y="159"/>
      <point x="931" y="164"/>
      <point x="939" y="167" type="qcurve"/>
      <point x="939" y="11" type="line"/>
      <point x="920" y="8"/>
      <point x="690" y="8" type="qcurve"/>
      <point x="577" y="8"/>
      <point x="501" y="90" type="qcurve"/>
      <point x="425" y="8"/>
      <point x="312" y="8" type="qcurve"/>
      <point x="311" y="8"/>
      <point x="310" y="8" type="qcurve" smooth="yes"/>
    </contour>
    <contour>
      <point x="593" y="302" type="qcurve"/>
      <point x="789" y="299" type="line"/>
      <point x="785" y="303"/>
      <point x="753" y="341"/>
      <point x="735" y="360"/>
      <point x="704" y="380"/>
      <point x="690" y="380" type="qcurve"/>
      <point x="676" y="380"/>
      <point x="646" y="361"/>
      <point x="627" y="341"/>
      <point x="597" y="307"/>
    </contour>
    <contour>
      <point x="310" y="372" type="qcurve"/>
      <point x="297" y="372"/>
      <point x="286" y="369" type="qcurve"/>
      <point x="286" y="370" type="line"/>
      <point x="249" y="362"/>
      <point x="201" y="304"/>
      <point x="201" y="265" type="qcurve"/>
      <point x="201" y="227"/>
      <point x="249" y="169"/>
      <point x="286" y="161" type="qcurve"/>
      <point x="286" y="162" type="line"/>
      <point x="297" y="159"/>
      <point x="310" y="159" type="qcurve"/>
      <point x="322" y="159"/>
      <point x="334" y="162" type="qcurve"/>
      <point x="334" y="161" type="line"/>
      <point x="371" y="169"/>
      <point x="419" y="227"/>
      <point x="419" y="265" type="qcurve"/>
      <point x="419" y="304"/>
      <point x="371" y="362"/>
      <point x="334" y="370" type="qcurve"/>
      <point x="334" y="369" type="line"/>
      <point x="322" y="372"/>
    </contour>
  </outline>
</glyph>
<glyph name="tcaron" format="2">
  <advance width="643"/>
  <unicode hex="0165"/>
  <outline>
    <contour>
      <point x="464" y="11" type="line"/>
      <point x="430" y="2"/>
      <point x="393" y="2" type="qcurve"/>
      <point x="306" y="2"/>
      <point x="172" y="106"/>
      <point x="148" y="189" type="qcurve"/>
      <point x="147" y="369" type="line"/>
      <point x="50" y="369" type="line"/>
      <point x="50" y="521" type="line"/>
      <point x="146" y="521" type="line"/>
      <point x="145" y="766" type="line"/>
      <point x="312" y="766" type="line"/>
      <point x="312" y="521" type="line"/>
      <point x="409" y="521" type="line"/>
      <point x="409" y="369" type="line"/>
      <point x="312" y="369" type="line"/>
      <point x="312" y="190" type="line"/>
      <point x="344" y="153"/>
      <point x="393" y="153" type="qcurve"/>
      <point x="433" y="153"/>
      <point x="464" y="179" type="qcurve"/>
    </contour>
    <contour>
      <point x="441" y="509" type="line"/>
      <point x="441" y="766" type="line"/>
      <point x="593" y="766" type="line"/>
      <point x="548" y="509" type="line"/>
    </contour>
  </outline>
</glyph>
<glyph name="uni0237" format="2">
  <advance width="419"/>
  <unicode hex="0237"/>
  <outline>
    <contour>
      <point x="50" y="-185" type="qcurve"/>
      <point x="50" y="-17" type="line"/>
      <point x="81" y="-43"/>
      <point x="121" y="-43" type="qcurve"/>
      <point x="170" y="-43"/>
      <point x="202" y="-6" type="qcurve"/>
      <point x="202" y="527" type="line"/>
      <point x="369" y="527" type="line"/>
      <point x="366" y="-7" type="line"/>
      <point x="342" y="-90"/>
      <point x="208" y="-194"/>
      <point x="121" y="-194" type="qcurve"/>
      <point x="84" y="-194"/>
    </contour>
  </outline>
</glyph>
<glyph name="gravecomb" format="2">
  <advance width="0"/>
  <unicode hex="0300"/>
  <outline>
    <contour>
      <point x="37" y="521" type="line"/>
      <point x="-145" y="703" type="line"/>
      <point x="-37" y="810" type="line"/>
      <point x="145" y="628" type="line"/>
    </contour>
  </outline>
</glyph>
<glyph name="acutecomb" format="2">
  <advance width="0"/>
  <unicode hex="0301"/>
  <outline>
    <contour>
      <point x="-37" y="521" type="line"/>
      <point x="-145" y="628" type="line"/>
      <point x="37" y="810" type="line"/>
      <point x="145" y="703" type="line"/>
    </contour>
  </outline>
</glyph>
<glyph name="uni0302" format="2">
  <unicode hex="0302"/>
  <outline>
    <contour>
      <point x="-100" y="776" type="line"/>
      <point x="-29" y="944" type="line"/>
      <point x="-28" y="944" type="line"/>
      <point x="47" y="944" type="line"/>
      <point x="48" y="944" type="line"/>
      <point x="100" y="776" type="line"/>
      <point x="24" y="776" type="line"/>
      <point x="4" y="884" type="line"/>
      <point x="-24" y="776" type="line"/>
    </contour>
  </outline>
</glyph>
<glyph name="tildecomb" format="2">
  <unicode hex="0303"/>
  <outline>
    <contour>
      <point x="126" y="929" type="line"/>
      <point x="126" y="853" type="line"/>
      <point x="125" y="851"/>
      <point x="110" y="833"/>
      <point x="78" y="812"/>
      <point x="62" y="812" type="qcurve"/>
      <point x="12" y="812" type="line"/>
      <point x="-4" y="812"/>
      <point x="-49" y="840"/>
      <point x="-65" y="840" type="qcurve"/>
      <point x="-76" y="840"/>
      <point x="-106" y="826"/>
      <point x="-115" y="819" type="qcurve"/>
      <point x="-124" y="812" type="line"/>
      <point x="-124" y="888" type="line"/>
      <point x="-92" y="916"/>
      <point x="-67" y="916" type="qcurve"/>
      <point x="-50" y="916"/>
      <point x="-3" y="889"/>
      <point x="13" y="889" type="qcurve"/>
      <point x="36" y="889"/>
      <point x="58" y="889" type="qcurve"/>
      <point x="73" y="889"/>
      <point x="107" y="909"/>
      <point x="116" y="919" type="qcurve"/>
    </contour>
  </outline>
</glyph>
<glyph name="uni0306" format="2">
  <unicode hex="0306"/>
  <outline>
    <contour>
      <point x="128" y="942" type="line"/>
      <point x="128" y="942"/>
      <point x="128" y="928" type="qcurve"/>
      <point x="128" y="875"/>
      <point x="54" y="800"/>
      <point x="0" y="800" type="qcurve"/>
      <point x="-54" y="800"/>
      <point x="-128" y="874"/>
      <point x="-128" y="928" type="qcurve"/>
      <point x="-128" y="942" type="line"/>
      <point x="-52" y="942" type="line"/>
      <point x="-54" y="934"/>
      <point x="-54" y="928" type="qcurve"/>
      <point x="-54" y="906"/>
      <point x="-22" y="874"/>
      <point x="23" y="874"/>
      <point x="54" y="906"/>
      <point x="54" y="928" type="qcurve"/>
      <point x="54" y="934"/>
      <point x="52" y="942" type="qcurve"/>
    </contour>
  </outline>
</glyph>
<glyph name="uni0307" format="2">
  <advance width="0"/>
  <unicode hex="0307"/>
  <outline>
    <contour>
      <point x="-76" y="503" type="line"/>
      <point x="-76" y="645" type="line"/>
      <point x="76" y="645" type="line"/>
      <point x="76" y="503" type="line"/>
    </contour>
  </outline>
</glyph>
<glyph name="hookabovecomb" format="2">
  <advance width="0"/>
  <unicode hex="0309"/>
  <outline>
    <contour>
      <point x="-71" y="437" type="line"/>
      <point x="-71" y="514" type="line"/>
      <point x="-63" y="512"/>
      <point x="-58" y="512" type="qcurve"/>
      <point x="-35" y="512"/>
      <point x="-4" y="543"/>
      <point x="-4" y="587"/>
      <point x="-36" y="619"/>
      <point x="-58" y="619" type="qcurve"/>
      <point x="-63" y="619"/>
      <point x="-71" y="617" type="qcurve"/>
      <point x="-71" y="694" type="line"/>
      <point x="-58" y="694" type="line"/>
      <point x="-4" y="694"/>
      <point x="71" y="619"/>
      <point x="71" y="565" type="qcurve"/>
      <point x="71" y="512"/>
      <point x="-4" y="437"/>
      <point x="-58" y="437" type="qcurve"/>
    </contour>
  </outline>
</glyph>
<glyph name="uni030A" format="2">
  <advance width="0"/>
  <unicode hex="030A"/>
  <outline>
    <contour>
      <point x="-4" y="619"/>
      <point x="-12" y="617" type="qcurve"/>
      <point x="-12" y="618" type="line" smooth="yes"/>
      <point x="-12" y="618" type="line"/>
      <point x="-31" y="614"/>
      <point x="-54" y="585"/>
      <point x="-54" y="565" type="qcurve"/>
      <point x="-54" y="546"/>
      <point x="-31" y="517"/>
      <point x="-12" y="513" type="qcurve"/>
      <point x="-12" y="514" type="line"/>
      <point x="-4" y="512"/>
      <point x="4" y="512"/>
      <point x="12" y="514" type="qcurve"/>
      <point x="12" y="513" type="line"/>
      <point x="31" y="517"/>
      <point x="54" y="546"/>
      <point x="54" y="565" type="qcurve"/>
      <point x="54" y="585"/>
      <point x="31" y="614"/>
      <point x="12" y="618" type="qcurve"/>
      <point x="12" y="617" type="line"/>
      <point x="4" y="619"/>
    </contour>
    <contour>
      <point x="-1" y="437" type="line"/>
      <point x="-3" y="437" type="line"/>
      <point x="-10" y="437" type="line"/>
      <point x="-61" y="441"/>
      <point x="-130" y="514"/>
      <point x="-130" y="616"/>
      <point x="-60" y="690"/>
      <point x="-10" y="694" type="qcurve"/>
      <point x="-3" y="694" type="line"/>
      <point x="-1" y="694" type="line"/>
      <point x="1" y="694" type="line"/>
      <point x="55" y="694"/>
      <point x="130" y="619"/>
      <point x="130" y="565" type="qcurve"/>
      <point x="130" y="512"/>
      <point x="55" y="437"/>
      <point x="1" y="437" type="qcurve"/>
    </contour>
  </outline>
</glyph>
<glyph name="uni030B" format="2">
  <advance width="0"/>
  <unicode hex="030B"/>
  <outline>
    <contour>
      <point x="-180" y="521" type="line"/>
      <point x="-288" y="628" type="line"/>
      <point x="-106" y="810" type="line"/>
      <point x="2" y="703" type="line"/>
    </contour>
    <contour>
      <point x="106" y="519" type="line"/>
      <point x="-2" y="626" type="line"/>
      <point x="180" y="808" type="line"/>
      <point x="288" y="701" type="line"/>
    </contour>
  </outline>
</glyph>
<glyph name="uni030C" format="2">
  <unicode hex="030C"/>
  <outline>
    <contour>
      <point x="-100" y="944" type="line"/>
      <point x="-24" y="944" type="line"/>
      <point x="4" y="836" type="line"/>
      <point x="24" y="944" type="line"/>
      <point x="100" y="944" type="line"/>
      <point x="48" y="776" type="line"/>
      <point x="47" y="776" type="line"/>
      <point x="-28" y="776" type="line"/>
      <point x="-29" y="776" type="line"/>
    </contour>
  </outline>
</glyph>
<glyph name="uni0312" format="2">
  <unicode hex="0312"/>
  <outline>
    <contour>
      <point x="76" y="418" type="line"/>
      <point x="76" y="276" type="line"/>
      <point x="-76" y="276" type="line"/>
      <point x="-76" y="418" type="line"/>
      <point x="-16" y="550" type="line"/>
      <point x="42" y="546" type="line"/>
      <point x="33" y="418" type="line"/>
    </contour>
  </outline>
</glyph>
<glyph name="uni0313" format="2">
  <advance width="0"/>
  <unicode hex="0313"/>
  <outline>
    <contour>
      <point x="-76" y="403" type="line"/>
      <point x="-76" y="545" type="line"/>
      <point x="76" y="545" type="line"/>
      <point x="76" y="403" type="line"/>
      <point x="16" y="271" type="line"/>
      <point x="-42" y="275" type="line"/>
      <point x="-33" y="403" type="line"/>
    </contour>
  </outline>
</glyph>
<glyph name="dotbelowcomb" format="2">
  <unicode hex="0323"/>
  <outline>
    <contour>
      <point x="-76" y="8" type="line"/>
      <point x="-76" y="150" type="line"/>
      <point x="76" y="150" type="line"/>
      <point x="76" y="8" type="line"/>
    </contour>
  </outline>
</glyph>
<glyph name="uni0326" format="2">
  <unicode hex="0326"/>
  <outline>
    <contour>
      <point x="-76" y="108" type="line"/>
      <point x="-76" y="250" type="line"/>
      <point x="76" y="250" type="line"/>
      <point x="76" y="108" type="line"/>
      <point x="16" y="-24" type="line"/>
      <point x="-42" y="-20" type="line"/>
      <point x="-33" y="108" type="line"/>
    </contour>
  </outline>
</glyph>
<glyph name="uni0327" format="2">
  <advance width="0"/>
  <unicode hex="0327"/>
  <outline>
    <contour>
      <point x="-121" y="-63" type="line"/>
      <point x="-121" y="14" type="line"/>
      <point x="-113" y="12"/>
      <point x="-108" y="12" type="qcurve"/>
      <point x="-85" y="12"/>
      <point x="-54" y="43"/>
      <point x="-54" y="87"/>
      <point x="-86" y="119"/>
      <point x="-108" y="119" type="qcurve"/>
      <point x="-113" y="119"/>
      <point x="-121" y="117" type="qcurve"/>
      <point x="-121" y="194" type="line"/>
      <point x="-108" y="194" type="line"/>
      <point x="-54" y="194"/>
      <point x="21" y="119"/>
      <point x="21" y="65" type="qcurve"/>
      <point x="21" y="12"/>
      <point x="-54" y="-63"/>
      <point x="-108" y="-63" type="qcurve"/>
    </contour>
  </outline>
</glyph>
<glyph name="uni0328" format="2">
  <unicode hex="0328"/>
  <outline>
    <contour>
      <point x="71" y="-58" type="line"/>
      <point x="71" y="-58"/>
      <point x="58" y="-58" type="qcurve"/>
      <point x="4" y="-58"/>
      <point x="-71" y="17"/>
      <point x="-71" y="70" type="qcurve"/>
      <point x="-71" y="124"/>
      <point x="4" y="199"/>
      <point x="58" y="199" type="qcurve"/>
      <point x="71" y="199" type="line"/>
      <point x="71" y="122" type="line"/>
      <point x="63" y="124"/>
      <point x="58" y="124" type="qcurve"/>
      <point x="36" y="124"/>
      <point x="4" y="92"/>
      <point x="4" y="48"/>
      <point x="35" y="17"/>
      <point x="58" y="17" type="qcurve"/>
      <point x="63" y="17"/>
      <point x="71" y="19" type="qcurve"/>
    </contour>
  </outline>
</glyph>
<glyph name="u0980" format="2">
  <advance width="534"/>
  <unicode hex="0980"/>
  <outline>
    <contour>
      <point x="210" y="348" type="qcurve"/>
      <point x="210" y="270" type="line"/>
      <point x="107" y="270"/>
      <point x="0" y="415"/>
      <point x="0" y="528" type="qcurve"/>
      <point x="0" y="635"/>
      <point x="151" y="785"/>
      <point x="258" y="785" type="qcurve"/>
      <point x="264" y="785" type="line"/>
      <point x="270" y="785"/>
      <point x="283" y="786"/>
      <point x="304" y="785"/>
      <point x="324" y="783"/>
      <point x="347" y="779"/>
      <point x="367" y="773"/>
      <point x="387" y="763"/>
      <point x="395" y="757" type="qcurve"/>
      <point x="412" y="743"/>
      <point x="431" y="682"/>
      <point x="432" y="659" type="qcurve"/>
      <point x="434" y="636" type="line"/>
      <point x="434" y="8" type="line"/>
      <point x="282" y="8" type="line"/>
      <point x="282" y="271" type="line"/>
      <point x="280" y="271"/>
      <point x="282" y="334"/>
      <point x="286" y="389"/>
      <point x="283" y="393" type="qcurve"/>
      <point x="282" y="424" type="line"/>
      <point x="282" y="631" type="line"/>
      <point x="270" y="634"/>
      <point x="258" y="634" type="qcurve"/>
      <point x="213" y="634"/>
      <point x="151" y="572"/>
      <point x="151" y="528" type="qcurve"/>
      <point x="151" y="503"/>
      <point x="152" y="483"/>
      <point x="157" y="448"/>
      <point x="169" y="433"/>
      <point x="193" y="421"/>
      <point x="210" y="421" type="qcurve"/>
      <point x="210" y="402" type="line"/>
      <point x="210" y="383"/>
      <point x="209" y="351"/>
    </contour>
  </outline>
</glyph>
<glyph name="u0981" format="2">
  <advance width="0"/>
  <unicode hex="0981"/>
  <outline>
    <contour>
      <point x="-61" y="663" type="line"/>
      <point x="-61" y="777" type="line"/>
      <point x="61" y="777" type="line"/>
      <point x="61" y="663" type="line"/>
    </contour>
    <contour>
      <point x="193" y="624" type="line"/>
      <point x="193" y="605" type="line"/>
      <point x="193" y="524"/>
      <point x="81" y="411"/>
      <point x="1" y="411" type="qcurve"/>
      <point x="-80" y="411"/>
      <point x="-193" y="524"/>
      <point x="-193" y="605" type="qcurve"/>
      <point x="-193" y="624" type="line"/>
      <point x="-77" y="624" type="line"/>
      <point x="-80" y="615"/>
      <point x="-80" y="605" type="qcurve"/>
      <point x="-80" y="571"/>
      <point x="-33" y="524"/>
      <point x="35" y="524"/>
      <point x="80" y="571"/>
      <point x="80" y="605" type="qcurve"/>
      <point x="80" y="615"/>
      <point x="77" y="624" type="qcurve"/>
    </contour>
  </outline>
</glyph>
<glyph name="uni0981" format="2">
  <unicode hex="0981"/>
  <outline>
    <contour>
      <point x="193" y="629" type="line"/>
      <point x="193" y="629"/>
      <point x="193" y="610" type="qcurve"/>
      <point x="193" y="529"/>
      <point x="81" y="416"/>
      <point x="1" y="416" type="qcurve"/>
      <point x="-80" y="416"/>
      <point x="-193" y="529"/>
      <point x="-193" y="610" type="qcurve"/>
      <point x="-193" y="629" type="line"/>
      <point x="-77" y="629" type="line"/>
      <point x="-80" y="620"/>
      <point x="-80" y="610" type="qcurve"/>
      <point x="-80" y="576"/>
      <point x="-33" y="529"/>
      <point x="35" y="529"/>
      <point x="80" y="576"/>
      <point x="80" y="610" type="qcurve"/>
      <point x="80" y="620"/>
      <point x="77" y="629" type="qcurve"/>
    </contour>
    <contour>
      <point x="-61" y="668" type="line"/>
      <point x="-61" y="782" type="line"/>
      <point x="61" y="782" type="line"/>
      <point x="61" y="668" type="line"/>
    </contour>
  </outline>
</glyph>
<glyph name="u0982" format="2">
  <advance width="445"/>
  <unicode hex="0982"/>
  <outline>
    <contour>
      <point x="159" y="432" type="line"/>
      <point x="392" y="74" type="line"/>
      <point x="286" y="13" type="line"/>
      <point x="53" y="371" type="line"/>
    </contour>
    <contour>
      <point x="202" y="670"/>
      <point x="194" y="668" type="qcurve"/>
      <point x="194" y="669" type="line" smooth="yes"/>
      <point x="194" y="669" type="line"/>
      <point x="175" y="665"/>
      <point x="152" y="636"/>
      <point x="152" y="616" type="qcurve"/>
      <point x="152" y="597"/>
      <point x="175" y="568"/>
      <point x="194" y="564" type="qcurve"/>
      <point x="194" y="565" type="line"/>
      <point x="202" y="563"/>
      <point x="210" y="563"/>
      <point x="218" y="565" type="qcurve"/>
      <point x="218" y="564" type="line"/>
      <point x="237" y="568"/>
      <point x="260" y="597"/>
      <point x="260" y="616" type="qcurve"/>
      <point x="260" y="636"/>
      <point x="237" y="665"/>
      <point x="218" y="669" type="qcurve"/>
      <point x="218" y="668" type="line"/>
      <point x="210" y="670"/>
    </contour>
    <contour>
      <point x="205" y="488" type="line"/>
      <point x="203" y="488" type="line"/>
      <point x="196" y="488" type="line"/>
      <point x="145" y="492"/>
      <point x="76" y="565"/>
      <point x="76" y="667"/>
      <point x="146" y="741"/>
      <point x="196" y="745" type="qcurve"/>
      <point x="203" y="745" type="line"/>
      <point x="205" y="745" type="line"/>
      <point x="207" y="745" type="line"/>
      <point x="261" y="745"/>
      <point x="336" y="670"/>
      <point x="336" y="616" type="qcurve"/>
      <point x="336" y="563"/>
      <point x="261" y="488"/>
      <point x="207" y="488" type="qcurve"/>
    </contour>
  </outline>
</glyph>
<glyph name="uni0982" format="2">
  <advance width="445"/>
  <unicode hex="0982"/>
  <outline>
    <contour>
      <point x="204" y="493" type="line"/>
      <point x="204" y="493"/>
      <point x="202" y="493" type="qcurve"/>
      <point x="202" y="493"/>
      <point x="195" y="493" type="qcurve"/>
      <point x="144" y="497"/>
      <point x="75" y="570"/>
      <point x="75" y="672"/>
      <point x="145" y="746"/>
      <point x="195" y="750" type="qcurve"/>
      <point x="202" y="750" type="line"/>
      <point x="202" y="750"/>
      <point x="204" y="750" type="qcurve"/>
      <point x="204" y="750"/>
      <point x="206" y="750" type="qcurve"/>
      <point x="260" y="750"/>
      <point x="335" y="675"/>
      <point x="335" y="621" type="qcurve"/>
      <point x="335" y="568"/>
      <point x="260" y="493"/>
      <point x="206" y="493" type="qcurve"/>
    </contour>
    <contour>
      <point x="205" y="675" type="qcurve"/>
      <point x="201" y="675"/>
      <point x="193" y="673" type="qcurve"/>
      <point x="193" y="674" type="line"/>
      <point x="174" y="670"/>
      <point x="151" y="641"/>
      <point x="151" y="621" type="qcurve"/>
      <point x="151" y="602"/>
      <point x="174" y="573"/>
      <point x="193" y="569" type="qcurve"/>
      <point x="193" y="570" type="line"/>
      <point x="201" y="568"/>
      <point x="209" y="568"/>
      <point x="217" y="570" type="qcurve"/>
      <point x="217" y="569" type="line"/>
      <point x="236" y="573"/>
      <point x="259" y="602"/>
      <point x="259" y="621" type="qcurve"/>
      <point x="259" y="641"/>
      <point x="236" y="670"/>
      <point x="217" y="674" type="qcurve"/>
      <point x="217" y="673" type="line"/>
      <point x="209" y="675"/>
    </contour>
    <contour>
      <point x="158" y="437" type="line"/>
      <point x="391" y="79" type="line"/>
      <point x="285" y="18" type="line"/>
      <point x="52" y="376" type="line"/>
    </contour>
  </outline>
</glyph>
<glyph name="u0983" format="2">
  <advance width="445"/>
  <unicode hex="0983"/>
  <outline>
    <contour>
      <point x="218.5" y="670"/>
      <point x="210.5" y="668" type="qcurve"/>
      <point x="210.5" y="669" type="line" smooth="yes"/>
      <point x="210.5" y="669" type="line"/>
      <point x="191.5" y="665"/>
      <point x="168.5" y="636"/>
      <point x="168.5" y="616" type="qcurve"/>
      <point x="168.5" y="597"/>
      <point x="191.5" y="568"/>
      <point x="210.5" y="564" type="qcurve"/>
      <point x="210.5" y="565" type="line"/>
      <point x="218.5" y="563"/>
      <point x="226.5" y="563"/>
      <point x="234.5" y="565" type="qcurve"/>
      <point x="234.5" y="564" type="line"/>
      <point x="253.5" y="568"/>
      <point x="276.5" y="597"/>
      <point x="276.5" y="616" type="qcurve"/>
      <point x="276.5" y="636"/>
      <point x="253.5" y="665"/>
      <point x="234.5" y="669" type="qcurve"/>
      <point x="234.5" y="668" type="line"/>
      <point x="226.5" y="670"/>
    </contour>
    <contour>
      <point x="221.5" y="488" type="line"/>
      <point x="219.5" y="488" type="line"/>
      <point x="212.5" y="488" type="line"/>
      <point x="161.5" y="492"/>
      <point x="92.5" y="565"/>
      <point x="92.5" y="667"/>
      <point x="162.5" y="741"/>
      <point x="212.5" y="745" type="qcurve"/>
      <point x="219.5" y="745" type="line"/>
      <point x="221.5" y="745" type="line"/>
      <point x="223.5" y="745" type="line"/>
      <point x="277.5" y="745"/>
      <point x="352.5" y="670"/>
      <point x="352.5" y="616" type="qcurve"/>
      <point x="352.5" y="563"/>
      <point x="277.5" y="488"/>
      <point x="223.5" y="488" type="qcurve"/>
    </contour>
    <contour>
      <point x="218.5" y="270"/>
      <point x="210.5" y="268" type="qcurve"/>
      <point x="210.5" y="269" type="line" smooth="yes"/>
      <point x="210.5" y="269" type="line"/>
      <point x="191.5" y="265"/>
      <point x="168.5" y="236"/>
      <point x="168.5" y="216" type="qcurve"/>
      <point x="168.5" y="197"/>
      <point x="191.5" y="168"/>
      <point x="210.5" y="164" type="qcurve"/>
      <point x="210.5" y="165" type="line"/>
      <point x="218.5" y="163"/>
      <point x="226.5" y="163"/>
      <point x="234.5" y="165" type="qcurve"/>
      <point x="234.5" y="164" type="line"/>
      <point x="253.5" y="168"/>
      <point x="276.5" y="197"/>
      <point x="276.5" y="216" type="qcurve"/>
      <point x="276.5" y="236"/>
      <point x="253.5" y="265"/>
      <point x="234.5" y="269" type="qcurve"/>
      <point x="234.5" y="268" type="line"/>
      <point x="226.5" y="270"/>
    </contour>
    <contour>
      <point x="221.5" y="88" type="line"/>
      <point x="219.5" y="88" type="line"/>
      <point x="212.5" y="88" type="line"/>
      <point x="161.5" y="92"/>
      <point x="92.5" y="165"/>
      <point x="92.5" y="267"/>
      <point x="162.5" y="341"/>
      <point x="212.5" y="345" type="qcurve"/>
      <point x="219.5" y="345" type="line"/>
      <point x="221.5" y="345" type="line"/>
      <point x="223.5" y="345" type="line"/>
      <point x="277.5" y="345"/>
      <point x="352.5" y="270"/>
      <point x="352.5" y="216" type="qcurve"/>
      <point x="352.5" y="163"/>
      <point x="277.5" y="88"/>
      <point x="223.5" y="88" type="qcurve"/>
    </contour>
  </outline>
</glyph>
<glyph name="uni0983" format="2">
  <advance width="445"/>
  <unicode hex="0983"/>
  <outline>
    <contour>
      <point x="204" y="93" type="line"/>
      <point x="204" y="93"/>
      <point x="202" y="93" type="qcurve"/>
      <point x="202" y="93"/>
      <point x="195" y="93" type="qcurve"/>
      <point x="144" y="97"/>
      <point x="75" y="170"/>
      <point x="75" y="272"/>
      <point x="145" y="346"/>
      <point x="195" y="350" type="qcurve"/>
      <point x="202" y="350" type="line"/>
      <point x="202" y="350"/>
      <point x="204" y="350" type="qcurve"/>
      <point x="204" y="350"/>
      <point x="206" y="350" type="qcurve"/>
      <point x="260" y="350"/>
      <point x="335" y="275"/>
      <point x="335" y="221" type="qcurve"/>
      <point x="335" y="168"/>
      <point x="260" y="93"/>
      <point x="206" y="93" type="qcurve"/>
    </contour>
    <contour>
      <point x="205" y="275" type="qcurve"/>
      <point x="201" y="275"/>
      <point x="193" y="273" type="qcurve"/>
      <point x="193" y="274" type="line"/>
      <point x="174" y="270"/>
      <point x="151" y="241"/>
      <point x="151" y="221" type="qcurve"/>
      <point x="151" y="202"/>
      <point x="174" y="173"/>
      <point x="193" y="169" type="qcurve"/>
      <point x="193" y="170" type="line"/>
      <point x="201" y="168"/>
      <point x="209" y="168"/>
      <point x="217" y="170" type="qcurve"/>
      <point x="217" y="169" type="line"/>
      <point x="236" y="173"/>
      <point x="259" y="202"/>
      <point x="259" y="221" type="qcurve"/>
      <point x="259" y="241"/>
      <point x="236" y="270"/>
      <point x="217" y="274" type="qcurve"/>
      <point x="217" y="273" type="line"/>
      <point x="209" y="275"/>
    </contour>
    <contour>
      <point x="204" y="493" type="line"/>
      <point x="202" y="493" type="line"/>
      <point x="195" y="493" type="line"/>
      <point x="144" y="497"/>
      <point x="75" y="570"/>
      <point x="75" y="672"/>
      <point x="145" y="746"/>
      <point x="195" y="750" type="qcurve"/>
      <point x="202" y="750" type="line"/>
      <point x="204" y="750" type="line"/>
      <point x="206" y="750" type="line"/>
      <point x="260" y="750"/>
      <point x="335" y="675"/>
      <point x="335" y="621" type="qcurve"/>
      <point x="335" y="568"/>
      <point x="260" y="493"/>
      <point x="206" y="493" type="qcurve"/>
    </contour>
    <contour>
      <point x="205" y="675" type="qcurve"/>
      <point x="201" y="675"/>
      <point x="193" y="673" type="qcurve"/>
      <point x="193" y="674" type="line"/>
      <point x="174" y="670"/>
      <point x="151" y="641"/>
      <point x="151" y="621" type="qcurve"/>
      <point x="151" y="602"/>
      <point x="174" y="573"/>
      <point x="193" y="569" type="qcurve"/>
      <point x="193" y="570" type="line"/>
      <point x="201" y="568"/>
      <point x="209" y="568"/>
      <point x="217" y="570" type="qcurve"/>
      <point x="217" y="569" type="line"/>
      <point x="236" y="573"/>
      <point x="259" y="602"/>
      <point x="259" y="621" type="qcurve"/>
      <point x="259" y="641"/>
      <point x="236" y="670"/>
      <point x="217" y="674" type="qcurve"/>
      <point x="217" y="673" type="line"/>
      <point x="209" y="675"/>
    </contour>
  </outline>
</glyph>
<glyph name="u0985" format="2">
  <advance width="946"/>
  <unicode hex="0985"/>
  <outline>
    <contour>
      <point x="401" y="510" type="qcurve"/>
      <point x="396" y="639" type="line"/>
      <point x="397" y="639"/>
      <point x="398" y="639" type="qcurve"/>
      <point x="525" y="639"/>
      <point x="704" y="455"/>
      <point x="704" y="325" type="qcurve"/>
      <point x="704" y="306"/>
      <point x="701" y="288" type="qcurve"/>
      <point x="773" y="216" type="line"/>
      <point x="773" y="676" type="line"/>
      <point x="0" y="676" type="line"/>
      <point x="0" y="808" type="line"/>
      <point x="946" y="808" type="line"/>
      <point x="946" y="676" type="line"/>
      <point x="925" y="676" type="line"/>
      <point x="925" y="5" type="line"/>
      <point x="773" y="5" type="line"/>
      <point x="771" y="3" type="line"/>
      <point x="641" y="133" type="line"/>
      <point x="598" y="76"/>
      <point x="471" y="10"/>
      <point x="398" y="10" type="qcurve"/>
      <point x="271" y="10"/>
      <point x="92" y="194"/>
      <point x="92" y="325" type="qcurve"/>
      <point x="153.5" y="326.5" type="line" smooth="yes"/>
      <point x="215" y="328"/>
      <point x="215" y="329" type="qcurve"/>
      <point x="215" y="326"/>
      <point x="215" y="323" type="qcurve"/>
      <point x="215" y="245"/>
      <point x="322" y="135"/>
      <point x="474" y="135"/>
      <point x="581" y="245"/>
      <point x="581" y="323" type="qcurve"/>
      <point x="581" y="400"/>
      <point x="476" y="509"/>
    </contour>
  </outline>
</glyph>
<glyph name="uni0986" format="2">
  <advance width="1261"/>
  <unicode hex="0986"/>
  <outline>
    <contour>
      <point x="1261" y="813" type="line"/>
      <point x="1261" y="681" type="line"/>
      <point x="1100" y="681" type="line"/>
      <point x="1100" y="813" type="line"/>
    </contour>
    <contour>
      <point x="946" y="810" type="line"/>
      <point x="946" y="681" type="line"/>
      <point x="0" y="681" type="line"/>
      <point x="0" y="810" type="line"/>
    </contour>
    <contour>
      <point x="401" y="515" type="qcurve"/>
      <point x="401" y="514"/>
      <point x="398" y="579"/>
      <point x="397" y="612" type="qcurve"/>
      <point x="396" y="644" type="line"/>
      <point x="397" y="644"/>
      <point x="398" y="644" type="qcurve"/>
      <point x="525" y="644"/>
      <point x="704" y="460"/>
      <point x="704" y="330" type="qcurve"/>
      <point x="704" y="199"/>
      <point x="525" y="15"/>
      <point x="271" y="15"/>
      <point x="92" y="199"/>
      <point x="92" y="330" type="qcurve"/>
      <point x="92" y="330"/>
      <point x="215" y="333"/>
      <point x="215" y="334" type="qcurve"/>
      <point x="215" y="331"/>
      <point x="215" y="328" type="qcurve"/>
      <point x="215" y="250"/>
      <point x="322" y="140"/>
      <point x="474" y="140"/>
      <point x="581" y="250"/>
      <point x="581" y="328" type="qcurve"/>
      <point x="581" y="405"/>
      <point x="476" y="514"/>
    </contour>
    <contour>
      <point x="697" y="297" type="line"/>
      <point x="879" y="115" type="line"/>
      <point x="771" y="8" type="line"/>
      <point x="589" y="190" type="line"/>
    </contour>
    <contour>
      <point x="773" y="10" type="line"/>
      <point x="773" y="786" type="line"/>
      <point x="925" y="786" type="line"/>
      <point x="925" y="10" type="line"/>
    </contour>
    <contour>
      <point x="1059" y="497" type="line"/>
      <point x="754" y="810" type="line"/>
      <point x="955" y="810" type="line"/>
      <point x="1167" y="604" type="line"/>
    </contour>
    <contour>
      <point x="1061" y="860" type="line"/>
      <point x="1213" y="860" type="line"/>
      <point x="1213" y="8" type="line"/>
      <point x="1061" y="8" type="line"/>
    </contour>
  </outline>
</glyph>
<glyph name="u0987" format="2">
  <advance width="689"/>
  <unicode hex="0987"/>
  <outline>
    <contour>
      <point x="689" y="808" type="line"/>
      <point x="689" y="676" type="line"/>
      <point x="0" y="676" type="line"/>
      <point x="0" y="808" type="line"/>
      <point x="333" y="808" type="line"/>
      <point x="324" y="854"/>
      <point x="300" y="878" type="qcurve"/>
      <point x="268" y="909"/>
      <point x="237" y="940" type="qcurve"/>
      <point x="213" y="964"/>
      <point x="108" y="991"/>
      <point x="85" y="1015" type="qcurve"/>
      <point x="69" y="1030"/>
      <point x="48" y="1090"/>
      <point x="46" y="1113" type="qcurve"/>
      <point x="44" y="1135" type="line"/>
      <point x="132" y="1223" type="line"/>
      <point x="133" y="1214"/>
      <point x="137" y="1183"/>
      <point x="160" y="1116"/>
      <point x="176" y="1100" type="qcurve"/>
      <point x="198" y="1078"/>
      <point x="301" y="1054"/>
      <point x="324" y="1032" type="qcurve"/>
      <point x="394" y="961" type="line"/>
      <point x="408" y="947"/>
      <point x="425" y="906"/>
      <point x="429" y="868"/>
      <point x="429" y="834"/>
      <point x="428" y="823.5" type="qcurve" smooth="yes"/>
      <point x="427" y="813" type="line"/>
      <point x="422" y="808" type="line"/>
    </contour>
    <contour>
      <point x="236" y="477" type="qcurve"/>
      <point x="128" y="583" type="line"/>
      <point x="205" y="660"/>
      <point x="418" y="662"/>
      <point x="495" y="585" type="qcurve"/>
      <point x="571" y="508"/>
      <point x="569" y="296"/>
      <point x="492" y="219" type="qcurve"/>
      <point x="455" y="181"/>
      <point x="412" y="161" type="qcurve"/>
      <point x="593" y="4" type="line"/>
      <point x="434" y="4" type="line"/>
      <point x="226" y="158" type="line"/>
      <point x="173" y="180"/>
      <point x="131" y="222" type="qcurve"/>
      <point x="233" y="325" type="line"/>
      <point x="234" y="324" type="line"/>
      <point x="266" y="292"/>
      <point x="352" y="293"/>
      <point x="386" y="326" type="qcurve"/>
      <point x="419" y="360"/>
      <point x="420" y="446"/>
      <point x="388" y="478" type="qcurve"/>
      <point x="356" y="510"/>
      <point x="270" y="510"/>
    </contour>
  </outline>
</glyph>
<glyph name="uni0987" format="2">
  <advance width="689"/>
  <unicode hex="0987"/>
  <outline>
    <contour>
      <point x="339" y="730" type="line"/>
      <point x="339" y="734"/>
      <point x="340" y="749"/>
      <point x="338" y="790"/>
      <point x="331" y="826"/>
      <point x="313" y="869"/>
      <point x="300" y="883" type="qcurve"/>
      <point x="268" y="914"/>
      <point x="237" y="945" type="qcurve"/>
      <point x="213" y="969"/>
      <point x="108" y="996"/>
      <point x="85" y="1020" type="qcurve"/>
      <point x="69" y="1035"/>
      <point x="48" y="1095"/>
      <point x="46" y="1118" type="qcurve"/>
      <point x="44" y="1140" type="line"/>
      <point x="132" y="1228" type="line"/>
      <point x="133" y="1219"/>
      <point x="137" y="1188"/>
      <point x="160" y="1121"/>
      <point x="176" y="1105" type="qcurve"/>
      <point x="198" y="1083"/>
      <point x="301" y="1059"/>
      <point x="324" y="1037" type="qcurve"/>
      <point x="325" y="1035" type="line"/>
      <point x="326" y="1034" type="line"/>
      <point x="328" y="1032" type="line"/>
      <point x="329" y="1031" type="line"/>
      <point x="331" y="1029" type="line"/>
      <point x="332" y="1028" type="line"/>
      <point x="333" y="1027" type="line"/>
      <point x="335" y="1025" type="line"/>
      <point x="336" y="1024" type="line"/>
      <point x="337" y="1023" type="line"/>
      <point x="339" y="1022" type="line"/>
      <point x="340" y="1020" type="line"/>
      <point x="341" y="1019" type="line"/>
      <point x="342" y="1018" type="line"/>
      <point x="343" y="1017" type="line"/>
      <point x="345" y="1016" type="line"/>
      <point x="346" y="1015" type="line"/>
      <point x="347" y="1013" type="line"/>
      <point x="348" y="1012" type="line"/>
      <point x="349" y="1011" type="line"/>
      <point x="350" y="1010" type="line"/>
      <point x="351" y="1009" type="line"/>
      <point x="352" y="1008" type="line"/>
      <point x="353" y="1007" type="line"/>
      <point x="354" y="1006" type="line"/>
      <point x="355" y="1005" type="line"/>
      <point x="356" y="1004" type="line"/>
      <point x="357" y="1003" type="line"/>
      <point x="358" y="1002" type="line"/>
      <point x="359" y="1001" type="line"/>
      <point x="360" y="1000" type="line"/>
      <point x="361" y="999" type="line"/>
      <point x="362" y="998" type="line"/>
      <point x="363" y="997" type="line"/>
      <point x="364" y="996" type="line"/>
      <point x="366" y="994" type="line"/>
      <point x="367" y="994" type="line"/>
      <point x="367" y="993" type="line"/>
      <point x="368" y="992" type="line"/>
      <point x="369" y="991" type="line"/>
      <point x="370" y="990" type="line"/>
      <point x="371" y="989" type="line"/>
      <point x="372" y="988" type="line"/>
      <point x="373" y="987" type="line"/>
      <point x="374" y="986" type="line"/>
      <point x="375" y="986" type="line"/>
      <point x="375" y="985" type="line"/>
      <point x="376" y="984" type="line"/>
      <point x="377" y="983" type="line"/>
      <point x="378" y="982" type="line"/>
      <point x="379" y="981" type="line"/>
      <point x="380" y="981" type="line"/>
      <point x="380" y="980" type="line"/>
      <point x="381" y="979" type="line"/>
      <point x="382" y="978" type="line"/>
      <point x="383" y="977" type="line"/>
      <point x="384" y="976" type="line"/>
      <point x="385" y="975" type="line"/>
      <point x="386" y="974" type="line"/>
      <point x="387" y="973" type="line"/>
      <point x="388" y="972" type="line"/>
      <point x="389" y="971" type="line"/>
      <point x="390" y="971" type="line"/>
      <point x="391" y="970" type="line"/>
      <point x="392" y="969" type="line"/>
      <point x="393" y="968" type="line"/>
      <point x="394" y="966" type="line"/>
      <point x="408" y="952"/>
      <point x="425" y="911"/>
      <point x="429" y="873"/>
      <point x="429" y="839"/>
      <point x="427" y="818"/>
      <point x="427" y="818" type="qcurve"/>
    </contour>
    <contour>
      <point x="236" y="482" type="qcurve"/>
      <point x="128" y="588" type="line"/>
      <point x="205" y="665"/>
      <point x="418" y="667"/>
      <point x="495" y="590" type="qcurve"/>
      <point x="571" y="513"/>
      <point x="569" y="301"/>
      <point x="492" y="224" type="qcurve"/>
      <point x="435" y="166"/>
      <point x="297" y="136"/>
      <point x="178" y="179"/>
      <point x="131" y="227" type="qcurve"/>
      <point x="233" y="330" type="line"/>
      <point x="234" y="329"/>
      <point x="234" y="329" type="qcurve"/>
      <point x="266" y="297"/>
      <point x="352" y="298"/>
      <point x="386" y="331" type="qcurve"/>
      <point x="419" y="365"/>
      <point x="420" y="451"/>
      <point x="388" y="483" type="qcurve"/>
      <point x="356" y="515"/>
      <point x="270" y="515"/>
    </contour>
    <contour>
      <point x="689" y="813" type="line"/>
      <point x="689" y="681" type="line"/>
      <point x="0" y="681" type="line"/>
      <point x="0" y="813" type="line"/>
    </contour>
    <contour>
      <point x="434" y="9" type="line"/>
      <point x="137" y="229" type="line"/>
      <point x="338" y="231" type="line"/>
      <point x="593" y="9" type="line"/>
    </contour>
  </outline>
</glyph>
<glyph name="u0988" format="2">
  <advance width="1077"/>
  <unicode hex="0988"/>
  <outline>
    <contour>
      <point x="236" y="477" type="qcurve"/>
      <point x="128" y="583" type="line"/>
      <point x="205" y="660"/>
      <point x="418" y="662"/>
      <point x="495" y="585" type="qcurve"/>
      <point x="542" y="538"/>
      <point x="560" y="475" type="qcurve"/>
      <point x="639" y="540" type="line"/>
      <point x="654" y="564"/>
      <point x="675" y="585" type="qcurve"/>
      <point x="715" y="625"/>
      <point x="768" y="645" type="qcurve"/>
      <point x="778" y="653" type="line"/>
      <point x="777" y="648" type="line"/>
      <point x="843" y="671"/>
      <point x="988" y="637"/>
      <point x="1042" y="583" type="qcurve"/>
      <point x="934" y="477" type="line"/>
      <point x="900" y="510"/>
      <point x="814" y="510"/>
      <point x="782" y="478" type="qcurve"/>
      <point x="750" y="446"/>
      <point x="751" y="360"/>
      <point x="784" y="326" type="qcurve"/>
      <point x="818" y="293"/>
      <point x="904" y="292"/>
      <point x="936" y="324" type="qcurve"/>
      <point x="937" y="325" type="line"/>
      <point x="1039" y="222" type="line"/>
      <point x="992" y="174"/>
      <point x="873" y="131"/>
      <point x="735" y="161"/>
      <point x="678" y="219" type="qcurve"/>
      <point x="624" y="273"/>
      <point x="607" y="346" type="qcurve"/>
      <point x="534" y="270" type="line"/>
      <point x="533" y="271" type="line"/>
      <point x="516" y="242"/>
      <point x="492" y="219" type="qcurve"/>
      <point x="435" y="161"/>
      <point x="297" y="131"/>
      <point x="178" y="174"/>
      <point x="131" y="222" type="qcurve"/>
      <point x="233" y="325" type="line"/>
      <point x="234" y="324" type="line"/>
      <point x="266" y="292"/>
      <point x="352" y="293"/>
      <point x="386" y="326" type="qcurve"/>
      <point x="390" y="330"/>
      <point x="393" y="334" type="qcurve"/>
      <point x="389" y="336" type="line"/>
      <point x="403" y="347" type="line"/>
      <point x="423" y="379"/>
      <point x="415" y="451"/>
      <point x="388" y="478" type="qcurve"/>
      <point x="356" y="510"/>
      <point x="270" y="510"/>
    </contour>
    <contour>
      <point x="1077" y="808" type="line"/>
      <point x="1077" y="676" type="line"/>
      <point x="0" y="676" type="line"/>
      <point x="0" y="808" type="line"/>
      <point x="538" y="808" type="line"/>
      <point x="529" y="854"/>
      <point x="505" y="878" type="qcurve"/>
      <point x="473" y="909"/>
      <point x="442" y="940" type="qcurve"/>
      <point x="418" y="964"/>
      <point x="313" y="991"/>
      <point x="290" y="1015" type="qcurve"/>
      <point x="274" y="1030"/>
      <point x="253" y="1090"/>
      <point x="251" y="1113" type="qcurve"/>
      <point x="249" y="1135" type="line"/>
      <point x="337" y="1223" type="line"/>
      <point x="338" y="1214"/>
      <point x="342" y="1183"/>
      <point x="365" y="1116"/>
      <point x="381" y="1100" type="qcurve"/>
      <point x="403" y="1078"/>
      <point x="506" y="1054"/>
      <point x="529" y="1032" type="qcurve"/>
      <point x="599" y="961" type="line"/>
      <point x="613" y="947"/>
      <point x="630" y="906"/>
      <point x="634" y="868"/>
      <point x="634" y="834"/>
      <point x="633" y="823.5" type="qcurve" smooth="yes"/>
      <point x="632" y="813" type="line"/>
      <point x="627" y="808" type="line"/>
    </contour>
  </outline>
</glyph>
<glyph name="u0989" format="2">
  <advance width="616"/>
  <unicode hex="0989"/>
  <outline>
    <contour>
      <point x="616" y="808" type="line"/>
      <point x="616" y="676" type="line"/>
      <point x="441" y="676" type="line"/>
      <point x="441" y="489" type="line"/>
      <point x="501" y="455"/>
      <point x="572" y="336"/>
      <point x="570" y="265" type="qcurve"/>
      <point x="567" y="156"/>
      <point x="417" y="8"/>
      <point x="309" y="8" type="qcurve"/>
      <point x="247" y="8"/>
      <point x="149" y="52"/>
      <point x="88" y="126"/>
      <point x="56" y="217"/>
      <point x="56" y="266" type="qcurve"/>
      <point x="201" y="266" type="line"/>
      <point x="201" y="265" type="line"/>
      <point x="201" y="220"/>
      <point x="263" y="160"/>
      <point x="310" y="159" type="qcurve"/>
      <point x="357" y="160"/>
      <point x="419" y="220"/>
      <point x="419" y="265" type="qcurve"/>
      <point x="419" y="307"/>
      <point x="366" y="366"/>
      <point x="324" y="371" type="qcurve"/>
      <point x="309" y="371" type="line"/>
      <point x="309" y="523" type="line"/>
      <point x="309" y="523" type="line"/>
      <point x="309" y="676" type="line"/>
      <point x="0" y="676" type="line"/>
      <point x="0" y="808" type="line"/>
      <point x="299" y="808" type="line"/>
      <point x="289" y="855"/>
      <point x="265" y="880" type="qcurve"/>
      <point x="234" y="911"/>
      <point x="202" y="943" type="qcurve"/>
      <point x="178" y="966"/>
      <point x="73" y="994"/>
      <point x="50" y="1017" type="qcurve"/>
      <point x="34" y="1033"/>
      <point x="14" y="1093"/>
      <point x="11" y="1115" type="qcurve"/>
      <point x="9" y="1137" type="line"/>
      <point x="97" y="1225" type="line"/>
      <point x="98" y="1216"/>
      <point x="103" y="1185"/>
      <point x="125" y="1118"/>
      <point x="141" y="1102" type="qcurve"/>
      <point x="164" y="1080"/>
      <point x="266" y="1056"/>
      <point x="289" y="1034" type="qcurve" smooth="yes"/>
      <point x="359" y="963" type="line" smooth="yes"/>
      <point x="373" y="949"/>
      <point x="390" y="908"/>
      <point x="392" y="889" type="qcurve" smooth="yes"/>
      <point x="394.357" y="866.6"/>
      <point x="394" y="853" type="qcurve" smooth="yes"/>
      <point x="393" y="815" type="line" smooth="yes"/>
      <point x="385" y="808" type="line"/>
    </contour>
  </outline>
</glyph>
<glyph name="u098A" format="2">
  <advance width="616"/>
  <unicode hex="098A"/>
  <outline>
    <contour>
      <point x="616" y="808" type="line"/>
      <point x="616" y="676" type="line"/>
      <point x="441" y="676" type="line"/>
      <point x="441" y="489" type="line"/>
      <point x="501" y="455"/>
      <point x="572" y="336"/>
      <point x="570" y="265" type="qcurve" smooth="yes"/>
      <point x="567" y="156"/>
      <point x="492" y="82" type="qcurve" smooth="yes"/>
      <point x="418" y="9"/>
      <point x="311.396" y="8.00879" type="qcurve"/>
      <point x="172" y="-45" type="line" smooth="yes"/>
      <point x="8" y="4" type="line"/>
      <point x="20" y="125" type="line"/>
      <point x="131.375" y="74.8643" type="line"/>
      <point x="125" y="82"/>
      <point x="118.5" y="89" type="qcurve" smooth="yes"/>
      <point x="88" y="126"/>
      <point x="56" y="217"/>
      <point x="56" y="266" type="qcurve"/>
      <point x="201" y="266" type="line"/>
      <point x="201" y="265" type="line" smooth="yes"/>
      <point x="201" y="220"/>
      <point x="232" y="190" type="qcurve" smooth="yes"/>
      <point x="265" y="158"/>
      <point x="310" y="159" type="qcurve" smooth="yes"/>
      <point x="357" y="160"/>
      <point x="419" y="220"/>
      <point x="419" y="265" type="qcurve" smooth="yes"/>
      <point x="419" y="307"/>
      <point x="366" y="366"/>
      <point x="324" y="371" type="qcurve"/>
      <point x="309" y="371" type="line"/>
      <point x="309" y="523" type="line"/>
      <point x="309" y="676" type="line"/>
      <point x="0" y="676" type="line"/>
      <point x="0" y="808" type="line"/>
      <point x="299" y="808" type="line"/>
      <point x="289" y="855"/>
      <point x="265" y="880" type="qcurve" smooth="yes"/>
      <point x="234" y="911"/>
      <point x="202" y="943" type="qcurve" smooth="yes"/>
      <point x="178" y="966"/>
      <point x="73" y="994"/>
      <point x="50" y="1017" type="qcurve" smooth="yes"/>
      <point x="34" y="1033"/>
      <point x="24" y="1063" type="qcurve" smooth="yes"/>
      <point x="12.4941" y="1098.56"/>
      <point x="11" y="1115" type="qcurve" smooth="yes"/>
      <point x="9" y="1137" type="line"/>
      <point x="97" y="1225" type="line"/>
      <point x="98" y="1216"/>
      <point x="103" y="1185"/>
      <point x="125" y="1118"/>
      <point x="141" y="1102" type="qcurve" smooth="yes"/>
      <point x="164" y="1080"/>
      <point x="215" y="1068" type="qcurve" smooth="yes"/>
      <point x="267.401" y="1055.91"/>
      <point x="289" y="1034" type="qcurve" smooth="yes"/>
      <point x="359" y="963" type="line" smooth="yes"/>
      <point x="373" y="949"/>
      <point x="390" y="908"/>
      <point x="394" y="870"/>
      <point x="394" y="836"/>
      <point x="392" y="815"/>
      <point x="393" y="815" type="qcurve"/>
      <point x="385" y="808" type="line"/>
    </contour>
  </outline>
</glyph>
<glyph name="u098B" format="2">
  <advance width="1344"/>
  <unicode hex="098B"/>
  <outline>
    <contour>
      <point x="897" y="782" type="line"/>
      <point x="1043" y="782" type="line"/>
      <point x="1043" y="291" type="line"/>
      <point x="1117" y="216" type="line"/>
      <point x="1117" y="781" type="line"/>
      <point x="1119" y="781" type="line"/>
      <point x="1119" y="800" type="line"/>
      <point x="1319" y="800" type="line"/>
      <point x="1319" y="668" type="line"/>
      <point x="1269" y="668" type="line"/>
      <point x="1269" y="5" type="line"/>
      <point x="1118" y="5" type="line"/>
      <point x="1115" y="3" type="line"/>
      <point x="1043" y="75" type="line"/>
      <point x="1043" y="6" type="line"/>
      <point x="897" y="6" type="line"/>
      <point x="896" y="6" type="line"/>
      <point x="443" y="185" type="line"/>
      <point x="443" y="337" type="line"/>
      <point x="690" y="567" type="line"/>
      <point x="700" y="634" type="line"/>
      <point x="680" y="577"/>
      <point x="581" y="505"/>
      <point x="519" y="505" type="qcurve"/>
      <point x="474" y="505"/>
      <point x="395" y="543"/>
      <point x="368" y="576" type="qcurve"/>
      <point x="341" y="543"/>
      <point x="263" y="505"/>
      <point x="219" y="505" type="qcurve"/>
      <point x="138" y="505"/>
      <point x="25" y="618"/>
      <point x="25" y="699" type="qcurve"/>
      <point x="25" y="718" type="line"/>
      <point x="141" y="718" type="line"/>
      <point x="138" y="709"/>
      <point x="138" y="699" type="qcurve"/>
      <point x="138" y="665"/>
      <point x="185" y="618"/>
      <point x="253" y="618"/>
      <point x="298" y="665"/>
      <point x="298" y="699" type="qcurve"/>
      <point x="298" y="709"/>
      <point x="295" y="718" type="qcurve"/>
      <point x="325" y="718" type="line"/>
      <point x="411" y="718" type="line"/>
      <point x="441" y="718" type="line"/>
      <point x="438" y="709"/>
      <point x="438" y="699" type="qcurve"/>
      <point x="438" y="665"/>
      <point x="485" y="618"/>
      <point x="553" y="618"/>
      <point x="598" y="665"/>
      <point x="598" y="699" type="qcurve"/>
      <point x="598" y="709"/>
      <point x="595" y="718" type="qcurve"/>
      <point x="711" y="718" type="line"/>
      <point x="711" y="706" type="line"/>
      <point x="713" y="719" type="line"/>
      <point x="897" y="719" type="line"/>
    </contour>
    <contour>
      <point x="896" y="165" type="line"/>
      <point x="896" y="714" type="line"/>
      <point x="729" y="449" type="line"/>
      <point x="728" y="450" type="line"/>
      <point x="587" y="279" type="line"/>
    </contour>
  </outline>
</glyph>
<glyph name="uni098B" format="2">
  <advance width="1344"/>
  <unicode hex="098B"/>
  <outline>
    <contour>
      <point x="1344" y="805" type="line"/>
      <point x="1344" y="673" type="line"/>
      <point x="1144" y="673" type="line"/>
      <point x="1144" y="805" type="line"/>
    </contour>
    <contour>
      <point x="1066" y="297" type="line"/>
      <point x="1248" y="115" type="line"/>
      <point x="1140" y="8" type="line"/>
      <point x="958" y="190" type="line"/>
    </contour>
    <contour>
      <point x="1142" y="10" type="line"/>
      <point x="1142" y="786" type="line"/>
      <point x="1294" y="786" type="line"/>
      <point x="1294" y="10" type="line"/>
    </contour>
    <contour>
      <point x="436" y="723" type="line"/>
      <point x="436" y="723"/>
      <point x="436" y="704" type="qcurve"/>
      <point x="436" y="623"/>
      <point x="324" y="510"/>
      <point x="244" y="510" type="qcurve"/>
      <point x="163" y="510"/>
      <point x="50" y="623"/>
      <point x="50" y="704" type="qcurve"/>
      <point x="50" y="723" type="line"/>
      <point x="166" y="723" type="line"/>
      <point x="163" y="714"/>
      <point x="163" y="704" type="qcurve"/>
      <point x="163" y="670"/>
      <point x="210" y="623"/>
      <point x="278" y="623"/>
      <point x="323" y="670"/>
      <point x="323" y="704" type="qcurve"/>
      <point x="323" y="714"/>
      <point x="320" y="723" type="qcurve"/>
    </contour>
    <contour>
      <point x="738" y="724" type="line"/>
      <point x="925" y="724" type="line"/>
      <point x="754" y="454" type="line"/>
      <point x="707" y="519" type="line"/>
    </contour>
    <contour>
      <point x="754" y="608" type="line"/>
      <point x="754" y="456" type="line"/>
      <point x="612" y="284" type="line"/>
      <point x="922" y="170" type="line"/>
      <point x="922" y="12" type="line"/>
      <point x="468" y="190" type="line"/>
      <point x="468" y="342" type="line"/>
    </contour>
    <contour>
      <point x="922" y="787" type="line"/>
      <point x="1068" y="787" type="line"/>
      <point x="1068" y="11" type="line"/>
      <point x="922" y="11" type="line"/>
    </contour>
    <contour>
      <point x="736" y="723" type="line"/>
      <point x="736" y="704" type="line"/>
      <point x="736" y="623"/>
      <point x="624" y="510"/>
      <point x="544" y="510" type="qcurve"/>
      <point x="463" y="510"/>
      <point x="350" y="623"/>
      <point x="350" y="704" type="qcurve"/>
      <point x="350" y="723" type="line"/>
      <point x="466" y="723" type="line"/>
      <point x="463" y="714"/>
      <point x="463" y="704" type="qcurve"/>
      <point x="463" y="670"/>
      <point x="510" y="623"/>
      <point x="578" y="623"/>
      <point x="623" y="670"/>
      <point x="623" y="704" type="qcurve"/>
      <point x="623" y="714"/>
      <point x="620" y="723" type="qcurve"/>
    </contour>
  </outline>
</glyph>
<glyph name="u098C" format="2">
  <advance width="779"/>
  <unicode hex="098C"/>
  <outline>
    <contour>
      <point x="103.604" y="109" type="line"/>
      <point x="102.604" y="122"/>
      <point x="102.604" y="135" type="qcurve"/>
      <point x="102.604" y="242"/>
      <point x="252.604" y="393"/>
      <point x="359.604" y="393" type="qcurve"/>
      <point x="429.604" y="393"/>
      <point x="547.604" y="324"/>
      <point x="581.604" y="266" type="qcurve"/>
      <point x="595.604" y="325"/>
      <point x="563.604" y="443"/>
      <point x="518.604" y="488" type="qcurve"/>
      <point x="449.604" y="557"/>
      <point x="257.604" y="560"/>
      <point x="190.604" y="492" type="qcurve"/>
      <point x="163.604" y="466"/>
      <point x="147.604" y="432" type="qcurve"/>
      <point x="32.6035" y="547" type="line"/>
      <point x="53.6035" y="577"/>
      <point x="79.6035" y="603" type="qcurve"/>
      <point x="152.604" y="677"/>
      <point x="351.604" y="727"/>
      <point x="552.604" y="671"/>
      <point x="628.604" y="595" type="qcurve"/>
      <point x="703.604" y="519"/>
      <point x="759.604" y="319"/>
      <point x="709.604" y="120"/>
      <point x="635.604" y="47" type="qcurve"/>
      <point x="609.604" y="21"/>
      <point x="579.604" y="0" type="qcurve"/>
      <point x="470.604" y="109" type="line"/>
      <point x="463.604" y="109" type="line"/>
      <point x="463.604" y="112"/>
      <point x="464.604" y="115" type="qcurve"/>
      <point x="461.604" y="118" type="line"/>
      <point x="463.604" y="118"/>
      <point x="465.604" y="119" type="qcurve"/>
      <point x="466.604" y="127"/>
      <point x="466.604" y="135" type="qcurve"/>
      <point x="466.604" y="180"/>
      <point x="404.604" y="242"/>
      <point x="359.604" y="242" type="qcurve"/>
      <point x="315.604" y="242"/>
      <point x="253.604" y="180"/>
      <point x="253.604" y="135" type="qcurve"/>
      <point x="253.604" y="122"/>
      <point x="256.604" y="109" type="qcurve"/>
    </contour>
  </outline>
</glyph>
<glyph name="u098F" format="2">
  <advance width="697"/>
  <unicode hex="098F"/>
  <outline>
    <contour>
      <point x="47.5" y="323" type="qcurve"/>
      <point x="215.5" y="323" type="line"/>
      <point x="189.5" y="292"/>
      <point x="189.5" y="253" type="qcurve"/>
      <point x="189.5" y="203"/>
      <point x="225.5" y="171" type="qcurve"/>
      <point x="492.5" y="171" type="line"/>
      <point x="492.5" y="578" type="line"/>
      <point x="460.5" y="615"/>
      <point x="411.5" y="615" type="qcurve"/>
      <point x="371.5" y="615"/>
      <point x="340.5" y="589" type="qcurve"/>
      <point x="340.5" y="757" type="line"/>
      <point x="374.5" y="766"/>
      <point x="411.5" y="766" type="qcurve"/>
      <point x="498.5" y="766"/>
      <point x="632.5" y="662"/>
      <point x="656.5" y="579" type="qcurve"/>
      <point x="659.5" y="2" type="line"/>
      <point x="586.5" y="1"/>
      <point x="299.5" y="8"/>
      <point x="225.5" y="7" type="qcurve"/>
      <point x="142.5" y="31"/>
      <point x="37.5" y="166"/>
      <point x="37.5" y="253" type="qcurve"/>
      <point x="37.5" y="290"/>
    </contour>
  </outline>
</glyph>
<glyph name="uni098F" format="2">
  <advance width="697"/>
  <unicode hex="098F"/>
  <outline>
    <contour>
      <point x="305" y="762" type="line"/>
      <point x="340" y="771"/>
      <point x="376" y="771" type="qcurve"/>
      <point x="463" y="771"/>
      <point x="597" y="667"/>
      <point x="621" y="584" type="qcurve"/>
      <point x="624" y="7" type="line"/>
      <point x="457" y="7" type="line"/>
      <point x="457" y="583" type="line"/>
      <point x="425" y="620"/>
      <point x="376" y="620" type="qcurve"/>
      <point x="336" y="620"/>
      <point x="305" y="594" type="qcurve"/>
    </contour>
    <contour>
      <point x="12" y="328" type="qcurve"/>
      <point x="180" y="328" type="line"/>
      <point x="154" y="297"/>
      <point x="154" y="258" type="qcurve"/>
      <point x="154" y="208"/>
      <point x="190" y="176" type="qcurve"/>
      <point x="554" y="176" type="line"/>
      <point x="554" y="10" type="line"/>
      <point x="190" y="12" type="line"/>
      <point x="107" y="36"/>
      <point x="2" y="171"/>
      <point x="2" y="258" type="qcurve"/>
      <point x="2" y="295"/>
    </contour>
  </outline>
</glyph>
<glyph name="u0990" format="2">
  <advance width="956"/>
  <unicode hex="0990"/>
  <outline>
    <contour>
      <point x="325.663" y="757" type="line"/>
      <point x="359.663" y="766"/>
      <point x="396.663" y="766" type="qcurve"/>
      <point x="483.663" y="766"/>
      <point x="617.663" y="662"/>
      <point x="641.663" y="579" type="qcurve"/>
      <point x="642.663" y="444" type="line"/>
      <point x="713.663" y="418"/>
      <point x="756.663" y="419" type="qcurve"/>
      <point x="786.663" y="419"/>
      <point x="795.663" y="458" type="qcurve"/>
      <point x="813.663" y="535"/>
      <point x="745.663" y="702"/>
      <point x="683.663" y="764" type="qcurve"/>
      <point x="659.663" y="788"/>
      <point x="554.663" y="815"/>
      <point x="531.663" y="839" type="qcurve"/>
      <point x="515.663" y="854"/>
      <point x="494.663" y="914"/>
      <point x="492.663" y="937" type="qcurve"/>
      <point x="490.663" y="959" type="line"/>
      <point x="578.663" y="1047" type="line"/>
      <point x="579.663" y="1038"/>
      <point x="583.663" y="1007"/>
      <point x="606.663" y="940"/>
      <point x="622.663" y="924" type="qcurve"/>
      <point x="644.663" y="902"/>
      <point x="747.663" y="878"/>
      <point x="770.663" y="856" type="qcurve"/>
      <point x="840.663" y="785" type="line"/>
      <point x="856.663" y="769"/>
      <point x="895.663" y="684"/>
      <point x="925.663" y="571"/>
      <point x="937.663" y="460"/>
      <point x="906.663" y="366"/>
      <point x="867.663" y="347" type="qcurve"/>
      <point x="803.663" y="317"/>
      <point x="744.663" y="317" type="qcurve"/>
      <point x="706.663" y="317"/>
      <point x="642.663" y="336" type="qcurve"/>
      <point x="644.663" y="2" type="line"/>
      <point x="571.663" y="1"/>
      <point x="284.663" y="8"/>
      <point x="210.663" y="7" type="qcurve"/>
      <point x="127.663" y="31"/>
      <point x="22.6631" y="166"/>
      <point x="22.6631" y="253" type="qcurve"/>
      <point x="22.6631" y="290"/>
      <point x="32.6631" y="323" type="qcurve"/>
      <point x="200.663" y="323" type="line"/>
      <point x="174.663" y="292"/>
      <point x="174.663" y="253" type="qcurve"/>
      <point x="174.663" y="203"/>
      <point x="210.663" y="171" type="qcurve"/>
      <point x="477.663" y="171" type="line"/>
      <point x="477.663" y="578" type="line"/>
      <point x="445.663" y="615"/>
      <point x="396.663" y="615" type="qcurve"/>
      <point x="356.663" y="615"/>
      <point x="325.663" y="589" type="qcurve"/>
    </contour>
  </outline>
</glyph>
<glyph name="u0993" format="2">
  <advance width="616"/>
  <unicode hex="0993"/>
  <outline>
    <contour>
      <point x="285" y="687" type="qcurve"/>
      <point x="237" y="684"/>
      <point x="223" y="681" type="qcurve"/>
      <point x="224" y="681"/>
      <point x="214" y="723"/>
      <point x="204" y="765"/>
      <point x="205" y="765" type="qcurve"/>
      <point x="209" y="765"/>
      <point x="249" y="785"/>
      <point x="306" y="810"/>
      <point x="329" y="813" type="qcurve"/>
      <point x="435" y="828"/>
      <point x="570" y="686"/>
      <point x="568" y="570" type="qcurve"/>
      <point x="566" y="483"/>
      <point x="518" y="418" type="qcurve"/>
      <point x="568" y="350"/>
      <point x="568" y="265" type="qcurve"/>
      <point x="568" y="158"/>
      <point x="417" y="8"/>
      <point x="310" y="8" type="qcurve"/>
      <point x="309" y="8"/>
      <point x="308" y="8" type="qcurve" smooth="yes"/>
      <point x="307" y="8" type="line"/>
      <point x="306" y="8" type="line"/>
      <point x="304" y="8"/>
      <point x="302" y="8" type="qcurve"/>
      <point x="294" y="8"/>
      <point x="288" y="9" type="qcurve"/>
      <point x="187" y="15"/>
      <point x="48" y="163"/>
      <point x="48" y="265" type="qcurve"/>
      <point x="48" y="347"/>
      <point x="94" y="413" type="qcurve"/>
      <point x="106" y="417" type="line"/>
      <point x="207" y="389"/>
      <point x="210" y="388" type="qcurve"/>
      <point x="223" y="382"/>
      <point x="218" y="366" type="qcurve"/>
      <point x="202" y="318"/>
      <point x="200" y="290" type="qcurve"/>
      <point x="199" y="278"/>
      <point x="199" y="265" type="qcurve"/>
      <point x="199" y="220"/>
      <point x="261" y="160"/>
      <point x="308" y="159" type="qcurve"/>
      <point x="355" y="160"/>
      <point x="417" y="220"/>
      <point x="417" y="265" type="qcurve"/>
      <point x="417" y="304"/>
      <point x="369" y="362"/>
      <point x="332" y="370" type="qcurve"/>
      <point x="332" y="369" type="line"/>
      <point x="308" y="464" type="line"/>
      <point x="320" y="464"/>
      <point x="332" y="467" type="qcurve"/>
      <point x="332" y="466" type="line"/>
      <point x="369" y="474"/>
      <point x="417" y="532"/>
      <point x="417" y="570" type="qcurve"/>
      <point x="417" y="628"/>
      <point x="345" y="690"/>
    </contour>
  </outline>
</glyph>
<glyph name="u0994" format="2">
  <advance width="884"/>
  <unicode hex="0994"/>
  <outline>
    <contour>
      <point x="285" y="687" type="qcurve"/>
      <point x="237" y="684"/>
      <point x="223" y="681" type="qcurve"/>
      <point x="224" y="681"/>
      <point x="214" y="723"/>
      <point x="204" y="765"/>
      <point x="205" y="765" type="qcurve"/>
      <point x="209" y="765"/>
      <point x="249" y="785"/>
      <point x="306" y="810"/>
      <point x="329" y="813" type="qcurve"/>
      <point x="435" y="828"/>
      <point x="570" y="686"/>
      <point x="568" y="570" type="qcurve"/>
      <point x="567" y="503"/>
      <point x="537" y="447" type="qcurve"/>
      <point x="613" y="418"/>
      <point x="660" y="419" type="qcurve"/>
      <point x="690" y="419"/>
      <point x="699" y="458" type="qcurve"/>
      <point x="717" y="535"/>
      <point x="649" y="702"/>
      <point x="587" y="764" type="qcurve"/>
      <point x="563" y="788"/>
      <point x="458" y="815"/>
      <point x="435" y="839" type="qcurve"/>
      <point x="419" y="854"/>
      <point x="398" y="914"/>
      <point x="396" y="937" type="qcurve"/>
      <point x="394" y="959" type="line"/>
      <point x="482" y="1047" type="line"/>
      <point x="483" y="1038"/>
      <point x="487" y="1007"/>
      <point x="510" y="940"/>
      <point x="526" y="924" type="qcurve"/>
      <point x="548" y="902"/>
      <point x="651" y="878"/>
      <point x="674" y="856" type="qcurve"/>
      <point x="744" y="785" type="line"/>
      <point x="760" y="769"/>
      <point x="799" y="684"/>
      <point x="829" y="571"/>
      <point x="841" y="460"/>
      <point x="810" y="366"/>
      <point x="771" y="347" type="qcurve"/>
      <point x="707" y="317"/>
      <point x="648" y="317" type="qcurve"/>
      <point x="614" y="317"/>
      <point x="559" y="332" type="qcurve"/>
      <point x="568" y="299"/>
      <point x="568" y="265" type="qcurve"/>
      <point x="568" y="158"/>
      <point x="417" y="8"/>
      <point x="310" y="8" type="qcurve"/>
      <point x="309" y="8"/>
      <point x="308" y="8" type="qcurve" smooth="yes"/>
      <point x="307" y="8" type="line"/>
      <point x="306" y="8" type="line"/>
      <point x="304" y="8"/>
      <point x="302" y="8" type="qcurve"/>
      <point x="294" y="8"/>
      <point x="288" y="9" type="qcurve"/>
      <point x="187" y="15"/>
      <point x="48" y="163"/>
      <point x="48" y="265" type="qcurve"/>
      <point x="48" y="347"/>
      <point x="94" y="413" type="qcurve"/>
      <point x="106" y="417" type="line"/>
      <point x="207" y="389"/>
      <point x="210" y="388" type="qcurve"/>
      <point x="223" y="382"/>
      <point x="218" y="366" type="qcurve"/>
      <point x="202" y="318"/>
      <point x="200" y="290" type="qcurve"/>
      <point x="199" y="278"/>
      <point x="199" y="265" type="qcurve"/>
      <point x="199" y="220"/>
      <point x="261" y="160"/>
      <point x="308" y="159" type="qcurve"/>
      <point x="355" y="160"/>
      <point x="417" y="220"/>
      <point x="417" y="265" type="qcurve"/>
      <point x="417" y="304"/>
      <point x="369" y="362"/>
      <point x="332" y="370" type="qcurve"/>
      <point x="332" y="369" type="line"/>
      <point x="308" y="464" type="line"/>
      <point x="320" y="464"/>
      <point x="332" y="467" type="qcurve"/>
      <point x="332" y="466" type="line"/>
      <point x="369" y="474"/>
      <point x="417" y="532"/>
      <point x="417" y="570" type="qcurve"/>
      <point x="417" y="628"/>
      <point x="345" y="690"/>
    </contour>
  </outline>
</glyph>
